<svg xmlns="http://www.w3.org/2000/svg" viewBox="0 0 1190.55 841.89"><defs><style>.cls-1{fill:#fff;}.cls-2{fill:none;}.cls-3{fill:#c6c4c3;}.cls-4{fill:#607989;}.cls-5{fill:#989899;}.cls-6{fill:#8dba8d;}.cls-7{fill:#47b4b3;}.cls-8{fill:#d29fc7;}.cls-9{fill:#b5d6eb;}.cls-10{fill:#fbeef5;}.cls-11{fill:#5a3a2f;}.cls-12{fill:#f6bd94;}.cls-13{fill:#5b4232;}.cls-14{fill:#8e6444;}.cls-15{fill:#221b16;}.cls-16{fill:#6d6454;}.cls-17{fill:#664335;}.cls-18{fill:#4b84c4;}</style></defs><g id="background"><rect class="cls-1" width="1190.55" height="841.89"/><path class="cls-2" d="M467.43,299.59a12.61,12.61,0,0,1,4.34-.94A3.71,3.71,0,0,0,467.43,299.59Z" transform="translate(0 0)"/><path class="cls-2" d="M558.64,723.43c-3.89-10.58-7.8-21.15-11.41-31.82-1.59-4.69-3-9.44-4.58-14.13-.12-.37-.25-.75-.37-1.14-.13.41-.26.82-.4,1.23-1.67,4.91-3.23,9.8-4.6,14.81-2.72,9.94-4.77,20.11-6.91,30.2-2.2,10.42-4,20.91-6.22,31.33-.75,3.6-1.48,7.21-2.23,10.81q25.88.48,51.74.92c-1.28-3.78-2.55-7.55-3.88-11.28C566.08,744,562.42,733.72,558.64,723.43Z" transform="translate(0 0)"/><path class="cls-2" d="M463.21,398.89a12.19,12.19,0,0,1,7.93-.14,12.64,12.64,0,0,1,10.7-1.91c-.32-2.75-.55-5.53-.73-8.31-5.46,4.93-15.19,2.93-18.7-4.32.07,1.29.16,2.59.22,3.89C462.82,391.68,463,395.28,463.21,398.89Z" transform="translate(0 0)"/><path class="cls-2" d="M431,719.74c-2.41-8.84-5-17.64-7.51-26.45-1.44-5-2.89-10.08-4.67-15-.67-1.85-1.43-3.67-2.11-5.53l0-.07c-2.15.45-4.34.89-6.55,1.2-1,5.81-2.3,11.58-3.35,17.34-1.51,8.32-2.84,16.68-4.05,25-2.2,15.3-4.79,30.73-6.12,46.16q23.07.41,46.14.83c-1.39-5-2.63-10.11-4-15.09Z" transform="translate(0 0)"/><path class="cls-2" d="M422.16,83.7a5.71,5.71,0,0,1-3.6,1,22.31,22.31,0,0,1-4.68-.85,13.5,13.5,0,0,1,1.17,1.56,70.45,70.45,0,0,1,3.83,7.11A9.23,9.23,0,0,1,422.16,83.7Z" transform="translate(0 0)"/><path class="cls-2" d="M415.81,200.67c-.29.26-.57.53-.86.78.77.22,1.53.47,2.29.74A12.81,12.81,0,0,1,415.81,200.67Z" transform="translate(0 0)"/><path class="cls-2" d="M353.36,452.31c.15.29,1.65,2.21,0,0Z" transform="translate(0 0)"/><path class="cls-2" d="M436.14,649.86a23.92,23.92,0,0,1,6.21,11.2c.84-6.08-.34-12.93-1-18.86-.78-6.61-1.93-13.17-3.31-19.68-.47-2.22-1-4.42-1.52-6.61-.37,5.74-.69,11.48-.91,17.23-.16,4.33,0,8.76-1,12.7a9.82,9.82,0,0,1,.45,3C435.38,649.14,435.77,649.49,436.14,649.86Z" transform="translate(0 0)"/><path class="cls-2" d="M458.25,340a14.21,14.21,0,0,1,8-9.14,31.09,31.09,0,0,1-3.63-5.85c0,.83-.05,1.65-.13,2.47-.43,4.44-2.4,8.41-6.13,10.58A9.34,9.34,0,0,1,458.25,340Z" transform="translate(0 0)"/><path class="cls-2" d="M415.1,122.47c0-.17,0-.33.08-.5-.22,0-.43.06-.65.07Z" transform="translate(0 0)"/><path class="cls-2" d="M291.43,734.33c-3.16-8.53-6.18-17.12-9.23-25.7-1.31-3.68-2.53-7.63-3.92-11.51-.55,2.23-1,4.47-1.58,6.65-2,8.37-4,16.73-5.91,25.13s-3.75,16.81-5.63,25.21c-.47,2.06-.89,4.19-1.33,6.33l22.68.29,14.6.2c-.11-.31-.21-.62-.32-.92C297.75,751.42,294.59,742.88,291.43,734.33Z" transform="translate(0 0)"/><path class="cls-2" d="M415.5,669.28c-.43-1.31-.45-1.36-.07-.1A.86.86,0,0,1,415.5,669.28Z" transform="translate(0 0)"/><path class="cls-2" d="M421.94,99c1.52,3.19,3,6.37,3.41,9.6a16.15,16.15,0,0,1,6-.71,36.58,36.58,0,0,1-3.64-3.09A62.87,62.87,0,0,1,421.94,99Z" transform="translate(0 0)"/><path class="cls-3" d="M328.45,796.81l.12,0-.53.1Z" transform="translate(0 0)"/><path class="cls-3" d="M1182.78,793.74c-.44-9.82-3.67-20-11.12-26.84-6.92-6.36-17.08-12.27-26.85-11.13-18.19,2.12-36.38,4.57-54.67,5.45q-26.25,1.28-52.5,2.26-53.6,2-107.22,3-107.25,2.07-214.55,1.07-58.5-.52-117-1.51c1.22,4.11,2.34,8.23,3.25,12.35a12.61,12.61,0,0,1,.31,2.9,7.29,7.29,0,0,1,3.93,3.44,7.69,7.69,0,0,1,.84,4.52,6.81,6.81,0,0,1-1.94,4.06,8.77,8.77,0,0,1-3.4,2,8.9,8.9,0,0,1-4.29,0,12.91,12.91,0,0,1-3.4-1.35,6.11,6.11,0,0,1-1.87-1.59c-4.18.34-8.92-1.46-10.65-5.39-3-6.93-5.55-14.17-8-21.4q-25.86-.43-51.74-.92c-.29,1.44-.58,2.89-.9,4.32-1.1,5-1.5,10.91-5.74,14.33a10,10,0,0,1-1.21.83l.41.2c1.45.76,2.3,2.17,3.25,3.42a6.61,6.61,0,0,1,.86,4.6,6.89,6.89,0,0,1-1.42,3.41,7.27,7.27,0,0,1-7.58,2.58,9.26,9.26,0,0,1-4.24-2.18,18.67,18.67,0,0,1-1.91-2.49,6.55,6.55,0,0,1-.84-4.52,6.77,6.77,0,0,1,1.39-3.36,7.16,7.16,0,0,1,1.7-1.56,9,9,0,0,1-2.49-2.48c-3.28-4.82-1.83-10.88-1.25-16.33,0-.38.09-.75.13-1.13l-37-.69c.64,3.36,1.21,6.73,1.64,10.12a7.13,7.13,0,0,1-.28,3,7.92,7.92,0,0,1,2.8,2,7.78,7.78,0,0,1,2.18,3.39,7.89,7.89,0,0,1,.91,4.06c0,.23.07.46.08.69a7.75,7.75,0,0,1-1,4.29,9.09,9.09,0,0,1-2.28,3.52,13.3,13.3,0,0,1-2.58,2,9.62,9.62,0,0,1-9.56,0,8.64,8.64,0,0,1-2.63-2,11.88,11.88,0,0,1-2.84-4.92,7.27,7.27,0,0,1-.29-3.52,10.51,10.51,0,0,1,.67-3.66,11.93,11.93,0,0,1-4.9-6.07c-1.66-4.29-3-8.72-4.25-13.19q-23.07-.43-46.14-.83c-.11,1.27-.23,2.54-.32,3.82-.7,9.83-15.72,10-15.47,0,0-1.37.06-2.73.09-4.09q-28.15-.48-56.33-.9c1.76,6.06,3.31,12.43,2.7,18.14-.73,6.79-9.82,13-15.28,6.33-5.63-6.92-8-16.4-10.91-24.8l-14.6-.2-22.68-.29c-1.43,7.07-3,14.33-6.69,20.38-4.53,7.47-14.16,3.47-15.11-4.09-.67-5.35.18-11,1.33-16.56-65.93-.85-132-1.45-197.79,1.07-17.81.68-34.95,15.2-34.11,34.1.84,18.65,15,33.88,34.11,34.1,71.54.82,143.1-.05,214.65.64s143.14,1.94,214.7,3.2c143.05,2.51,286.16,5.11,429.24,3.57q60.2-.65,120.36-2.46,29.54-.9,59.06-2.15c20.42-.87,40.79-.55,61.23-.53C1164.67,831.73,1183.69,814.24,1182.78,793.74ZM241,796.28a6.86,6.86,0,0,1-9.68,0,6.86,6.86,0,0,1,0-9.68,6.83,6.83,0,0,1,9.68,0,6.86,6.86,0,0,1,0,9.68Zm91.63-1.64a1.36,1.36,0,0,0-.12.12l.28-.35a5.62,5.62,0,0,1-2.16,1.58,5.5,5.5,0,0,1-.61.23,5,5,0,0,1-.86.38,4.77,4.77,0,0,1-1,.42,4.58,4.58,0,0,1-1.32.15h-.12a5.12,5.12,0,0,1-3.25-1.15,4.1,4.1,0,0,1-1.38-1.51l-.54-1.28a7,7,0,0,1,0-3.48,7.38,7.38,0,0,1,.62-1.51,6.18,6.18,0,0,1,2.14-2.14l.37-.19a7.56,7.56,0,0,1,3.63-.95,6,6,0,0,1,5.05,2.87,9.29,9.29,0,0,1,.64,1.49A5.34,5.34,0,0,1,332.61,794.64Zm43.08,6.66c-14.62,0-14.6-22.69,0-22.69S390.29,801.3,375.69,801.3Z" transform="translate(0 0)"/><path class="cls-4" d="M242,776.73c.95,7.56,10.58,11.56,15.11,4.09,3.67-6.05,5.26-13.31,6.69-20.38.44-2.14.86-4.27,1.33-6.33q2.82-12.6,5.63-25.21c1.88-8.4,3.88-16.76,5.91-25.13.53-2.18,1-4.42,1.58-6.65,1.39,3.88,2.61,7.83,3.92,11.51,3.05,8.58,6.07,17.17,9.23,25.7s6.32,17.09,9.36,25.68c.11.3.21.61.32.92,2.89,8.4,5.28,17.88,10.91,24.8,5.46,6.71,14.55.46,15.28-6.33.61-5.71-.94-12.08-2.7-18.14-.91-3.16-1.88-6.25-2.62-9.11-2.19-8.48-4.33-17-6.57-25.44-2.09-7.91-4.39-15.77-6.74-23.61a8.44,8.44,0,0,0,0-2.74c-1.5-8.66-2.78-17.38-3.87-26.11a14,14,0,0,0,.91-2.45c3.62-13.76,1.87-28.83,1.84-43.19a61.48,61.48,0,0,0,6.16,15.55c3.41,5.65,13.37,5.12,14.82-1.94,3-14.36-2.27-30.91-6.29-44.65-1.86-6.38-3.49-13.6-8.12-18.64a13.94,13.94,0,0,0-10.14-4.73c-3.93-3.56-10.5-3.05-14.41.51a16,16,0,0,0-3.57,4.85c-1.31,13.68-2.69,27.34-3.08,41.16-.25,9.23-14.23,9.24-14.34,0-.21-16.37-.2-33.13,1.51-49.54a23.67,23.67,0,0,0-1.6-2.3c-4-5-13.59-3.49-16.27,2.1-3,6.32-2.94,13.66-2.6,20.76-.24.55-.48,1.1-.73,1.64-2.48,5.45-4.95,10.9-7.59,16.28-5.14,10.43-10.38,20.87-16.1,31-4.62,8.17,7.59,15.25,12.55,7.33,4.15-6.63,8.26-13.25,12.26-20-.39,14.74-1.44,29.45-3.07,44.12-.61,5.47,3.45,10.67,7.71,13.44a13.34,13.34,0,0,0,2.93,1.46c0,.07,0,.14,0,.22-.37,3.58-1.17,7.17-1.81,10.72-1.6,8.81-3.24,17.62-5,26.41l-5.07,25.36c-.67,3.35-1.54,6.86-2.28,10.41C242.21,765.72,241.36,771.38,242,776.73Z" transform="translate(0 0)"/><path class="cls-4" d="M375.12,130.5c5.75,1.39,11.52,2.71,17.25,4.2,6.54,1.7,13.27,5.31,20.08,3.25l.06,0c-1.08,6-2.27,12.07-3.65,18a151.39,151.39,0,0,1-5.21,17.61c-2.11,5.76-5.62,11.5-6.87,17.47a12.36,12.36,0,0,0,4,11.3l-.32.22c-5.14-2-11.27-1-13.91,4.95-3.88,8.77-5.9,18.43-8,27.76q-3,13.1-5.43,26.32c-3.31,17.58-6.57,36.88-4.54,54.8.43,3.8,2.59,7.06,6.66,7.55,3.42.4,7.85-1.68,8.44-5.51,2.67-17.34,3.36-34.76,7-52a182.25,182.25,0,0,1,7.11-24.9c2.61-7.14,6.13-13.94,8.92-21a10.05,10.05,0,0,0,2.67-.78c1.94,0,3.48,1,5.07,2.5,2.85,2.63,2.34,7.82,3,11.45,2.12,10.94,4.09,21.91,6.15,32.87s4.32,21.88,6.57,32.8c2.3,11.19,3.66,24.25,9.46,34.26a12.83,12.83,0,0,0,3.45,3.78,12.3,12.3,0,0,1,13.2.63c3.73-2.17,5.7-6.14,6.13-10.58.08-.82.12-1.64.13-2.47-.1-.2-.19-.42-.28-.63-.12,1.29-.24,2.59-.4,3.88-.2,1.67-2.9,2.43-3.22.44-1.11-6.87-.29-14.24,1.25-21.12-.23-1-.45-2-.65-3-1.42-6.73-3-13.42-4.56-20.13-3.14-13.73-6.49-27.39-9.87-41.06-.87-3.53-1.62-7.26-2.57-10.9a7.11,7.11,0,0,1-.75-.33,5,5,0,0,1-2.26-1.32,7.7,7.7,0,0,1-2.63-2.86c-.34-.82-.69-1.63-1-2.44a29,29,0,0,1-.55-4c0-.49,0-1,0-1.48a10,10,0,0,1,.41-2.81,63.33,63.33,0,0,0-6.78-8.24,23.72,23.72,0,0,0-4.13-3.27,12.07,12.07,0,0,0,2,.18c5.71,0,11.43-4.1,12.81-9.75.23-.94.41-1.9.58-2.86q.48,4.35.87,8.71c.85,9.43,15.52,9.67,14.91,0a504.91,504.91,0,0,0-11.19-77.45c0-.73.1-1.45.14-2.18a13.49,13.49,0,0,0-4.58-10.58,20.32,20.32,0,0,1-8.83-4,16.15,16.15,0,0,0-6,.71,11.59,11.59,0,0,1-2,8.09,11.38,11.38,0,0,1-8.21,5.27c0,.17-.06.33-.08.5l-.57-.43a13.75,13.75,0,0,1-3.69-.24,11.13,11.13,0,0,1-6-3.19c-1.39-.22-2.81-.41-4.27-.64-4.37-.68-8.7-1.78-13-2.74l-13.48-3c-1.94-.43-3.9-.82-5.83-1.27a7.58,7.58,0,0,0-11.12-7.34c-1.62.84-3.21,1.4-4.76,2.39-3.45,2.21-4.49,5.65-3.87,9.52C350.31,127.17,366,128.32,375.12,130.5Zm40.69,70.17a12.81,12.81,0,0,0,1.43,1.52c-.76-.27-1.52-.52-2.29-.74C415.24,201.2,415.52,200.93,415.81,200.67Z" transform="translate(0 0)"/><path class="cls-5" d="M387.46,522.59q-.76-10.07-1.86-20.1c-1.67-15.17-4.4-30.11-6.61-45.19-.48-3.3-.83-6.65-1.22-10,0-.44-.1-.74-.13-1a6.88,6.88,0,0,0,.32-1.71,26.38,26.38,0,0,0-.22-7.26c-1.07-7.56-3.83-15.07-9.41-20.54-12-11.74-34.51-10.22-43.27,4.65a16,16,0,0,0-.95,15.23c-1.24,5-2.13,10.12-3.17,15-2.37,11-4.66,22.13-6.44,33.29-1.73,10.85-3.64,21.68-5.32,32.54-1.77,11.32-4.82,24.09-2.89,35.51a7.69,7.69,0,0,0,.25,1,11,11,0,0,0-3.52,5c-.07.37-.13.73-.19,1.09l-.33,2.49a7,7,0,0,0,.7,3.38c.05.18.1.37.16.56l.88,2.11a6.74,6.74,0,0,0,2.27,2.47,4.37,4.37,0,0,0,1.95,1.13,6.6,6.6,0,0,0,3.39.76,10.44,10.44,0,0,0,4.45-1.2,6.67,6.67,0,0,0,2.47-2.27,6.59,6.59,0,0,0,1.58-3l.14-.51a4.62,4.62,0,0,0,.55-2.19,7.07,7.07,0,0,0-.17-3.73l-.18-1.09-.84-2a6.75,6.75,0,0,0,1.6-2.07c4.72-9.59,5.75-21.52,7.94-31.92,2.26-10.69,4.74-21.35,7.81-31.85,3-10.2,5.89-20.42,9.14-30.54,1.35-4.21,2.78-8.39,4.17-12.58.69,1.14,1.35,2.14,2.19,3.27l.65.87c1,2.29,1.54,5,2.28,7.42a177.34,177.34,0,0,1,4,18c2.26,11.4,4.26,22.84,5.88,34.36.77,5.48,1.42,11,2,16.49.67,6.23.63,12.91,2.48,18.91,2.48,8.07,16.13,9.49,17.81,0a49.42,49.42,0,0,0,.65-8.85C383.1,535.85,385.48,526.85,387.46,522.59Zm-34.1-70.28c1.65,2.21.15.29,0,0Z" transform="translate(0 0)"/><path class="cls-5" d="M503.2,781.82a9,9,0,0,0,2.49,2.48,7.25,7.25,0,0,1,5.76-1,14.16,14.16,0,0,1,2.62.88,10,10,0,0,0,1.21-.83c4.24-3.42,4.64-9.31,5.74-14.33.32-1.43.61-2.88.9-4.32.75-3.6,1.48-7.21,2.23-10.81,2.17-10.42,4-20.91,6.22-31.33,2.14-10.09,4.19-20.26,6.91-30.2,1.37-5,2.93-9.9,4.6-14.81.14-.41.27-.82.4-1.23.12.39.25.77.37,1.14,1.59,4.69,3,9.44,4.58,14.13,3.61,10.67,7.52,21.24,11.41,31.82,3.78,10.29,7.44,20.61,11.14,30.93,1.33,3.73,2.6,7.5,3.88,11.28,2.46,7.23,5,14.47,8,21.4,1.73,3.93,6.47,5.73,10.65,5.39a6.92,6.92,0,0,1-1.42-2.7,8.45,8.45,0,0,1,0-3.81c.72-3.19,3.86-5.07,6.91-5.27a12.28,12.28,0,0,1,3.57.31,9.52,9.52,0,0,1,1.07.35,12.61,12.61,0,0,0-.31-2.9c-.91-4.12-2-8.24-3.25-12.35-2.38-8-5.13-16-7.53-23.83-3.66-12-7.09-24.15-10.58-36.24-3.3-11.47-6.75-22.9-10.85-34.11-2.19-6-4.33-12.24-7.5-17.78-3.58-6.26-10.62-10.3-17.49-8.52a10.94,10.94,0,0,0-2.48-1.55,20.5,20.5,0,0,0-7.36-2c-8.08-.83-14.27,7.35-14.58,14.57-.09,2,.3,4.07.13,6.07-.21,2.54-1,5.12-1.43,7.64-.93,5.44-1.81,10.86-2.88,16.28-2.08,10.45-4.55,20.83-6.63,31.29-2,10.13-4.07,20.29-5.52,30.52-.75,5.31-1.51,10.62-2.11,16,0,.38-.09.75-.13,1.13C501.37,770.94,499.92,777,503.2,781.82Z" transform="translate(0 0)"/><path class="cls-6" d="M396.31,766.25c.09-1.28.21-2.55.32-3.82,1.33-15.43,3.92-30.86,6.12-46.16,1.21-8.37,2.54-16.73,4.05-25,1.05-5.76,2.37-11.53,3.35-17.34,2.21-.31,4.4-.75,6.55-1.2l0,.07c.68,1.86,1.44,3.68,2.11,5.53,1.78,4.93,3.23,10,4.67,15,2.53,8.81,5.1,17.61,7.51,26.45l7.76,28.43c1.36,5,2.6,10.06,4,15.09,1.24,4.47,2.59,8.9,4.25,13.19a11.93,11.93,0,0,0,4.9,6.07,10.33,10.33,0,0,1,.77-1.66l1.65-2.13a10.65,10.65,0,0,1,7.45-3.09,7.91,7.91,0,0,1,4.07.91c.2.06.39.15.59.23a7.13,7.13,0,0,0,.28-3c-.43-3.39-1-6.76-1.64-10.12-2.11-11-5.14-22-7.71-32.86q-4.85-20.56-9.46-41.19c-1.32-5.94-2.7-11.88-3.62-17.9a9.3,9.3,0,0,0,7.28,3.37,10,10,0,0,0,9.5-12.46c-1.94-7-2.08-14.61-3.05-21.76-1-7.34-2.27-14.62-3.9-21.84A201.39,201.39,0,0,0,440,576.86a6.45,6.45,0,0,0-1.88-2.37,13.75,13.75,0,0,0-1.61-2.73c-1.79-4.25-7.46-5.44-11.39-3.19l0,0c-8.42,3.8-8.74,13.08-10.18,21.2-.33,1.85-.62,3.7-.89,5.56-.11-1-.23-2.08-.39-3.11a11.44,11.44,0,0,0-7-9c-1.87-5.78-3.91-11.49-6.25-17a8.49,8.49,0,0,1-.86,2.62,11.84,11.84,0,0,1-10.54,7.09,11.55,11.55,0,0,1-5.82-1.57l-2.33-1.81a11.52,11.52,0,0,1-3-5.09l-.13-1a9.92,9.92,0,0,0-.12,1.46c0,7.24-2.69,14.49-4.21,21.56-1.61,7.5-3,15.05-4.35,22.62-2.62,15.17-4.94,30.49-6.42,45.82-.8,8.32,12.72,10,14.55,2,2.58-11.34,4.66-22.78,7-34.18-.34,9.37-1.1,18.89-.82,28.25a21.79,21.79,0,0,0,4.24,12.79c-1.41,7.08-1.9,14.47-2.68,21.57-.95,8.73-1.82,17.47-2.53,26.23-1.29,15.9-1.17,31.76-1.49,47.66,0,1.36-.05,2.72-.09,4.09C380.59,776.29,395.61,776.08,396.31,766.25Zm39.26-133.11c.22-5.75.54-11.49.91-17.23.53,2.19,1,4.39,1.52,6.61,1.38,6.51,2.53,13.07,3.31,19.68.7,5.93,1.88,12.78,1,18.86a23.92,23.92,0,0,0-6.21-11.2c-.37-.37-.76-.72-1.15-1.05a9.82,9.82,0,0,0-.45-3C435.54,641.9,435.41,637.47,435.57,633.14ZM415.5,669.28a.86.86,0,0,0-.07-.1C415.05,667.92,415.07,668,415.5,669.28Z" transform="translate(0 0)"/><path class="cls-7" d="M491,538.34a6.72,6.72,0,0,1-2.88-1.85,7.67,7.67,0,0,1-.76-.86,10,10,0,0,1-1.56-2c-.12-.2-.21-.42-.32-.63a8.31,8.31,0,0,0-2.18,2.17c-3.45,5-7.05,9.6-10.86,14.29-4.54,5.58-5.14,13.68.14,19.07,4.23,4.31,10.49,6.72,15.39,10.2a104.78,104.78,0,0,0,12,7.76c-.77,3-1.6,6-2.61,8.88-2.79,7.94-6.7,17.27-11.8,23.93-5.66,7.41,6.83,17,13,10,3.49-4,7.45-7.44,10.72-11.75a107.13,107.13,0,0,0,8.7-13.51,100.09,100.09,0,0,0,6.89-15.08c.28-.84.58-1.69.87-2.54-.07-2.15-.13-4.3-.2-6.45a12.93,12.93,0,0,1,2.41-7.87,14.36,14.36,0,0,0-.46-2c-2.9-9.48-13-10.69-19.59-5.36-2.59-1.28-5.25-2.42-7.89-3.51s-5.26-2-7.83-3.24c-1.17-.54-2.31-1.12-3.46-1.7.62-1.43,1.41-2.85,1.93-3.88,1.7-3.32,3.66-6.54,5.49-9.79a7.76,7.76,0,0,0,1-4,11.29,11.29,0,0,1-2.7.45A6.83,6.83,0,0,1,491,538.34Z" transform="translate(0 0)"/><path class="cls-7" d="M557.6,630.27a11.14,11.14,0,0,1-3.62,6.58c1.66,5.67,10.93,6.22,13.59,1,3.26-6.38,4.52-14.12,5.22-21.72,5,12.47,10.05,24.89,15,37.36,3.35,8.42,17.08,4.93,13.83-3.81-5-13.49-9.53-27.14-13.89-40.85-2.18-6.86-4.26-13.75-6.55-20.57-2.22-6.59-3.69-14.7-7.72-20.42s-13.3-4.86-15.08,1.65c-.17.17-.33.34-.49.53-2,2.48-3.58,4.73-3.74,8C560,594.26,560.07,613.46,557.6,630.27Z" transform="translate(0 0)"/><path class="cls-8" d="M485.23,362.6c.1,6.64.9,13.85-.81,20.31a11.14,11.14,0,0,1-3.31,5.62c.18,2.78.41,5.56.73,8.31a12.64,12.64,0,0,0-10.7,1.91,12.19,12.19,0,0,0-7.93.14c-.18-3.61-.39-7.21-.58-10.79-.06-1.3-.15-2.6-.22-3.89a11.46,11.46,0,0,1-.54-1.3c-2.15-6.13-1.75-13.83-2.18-20.31s-1.58-12.76-1.84-19.11a12,12,0,0,1,.4-3.5,9.34,9.34,0,0,0-1.93-1.94,12.3,12.3,0,0,0-13.2-.63,8.61,8.61,0,0,0-3.94,5.77c-.36,1.75-.69,3.51-1,5.27a11.53,11.53,0,0,0-2.24,6.52,15.05,15.05,0,0,0,.36,3.39c-.16.79-.31,1.58-.48,2.37-1.29,5.8-3.12,11.47-4.16,17.32a8.9,8.9,0,0,0,1.29,6.63c-.27,1.18-.53,2.36-.81,3.54-2.61,11.08-5.42,22.15-8.41,33.13-2.39,8.8,10.69,12.26,13.56,3.74q3.57-10.59,6.59-21.27c.42,8.28,1.1,16.56,3,24.52a6.74,6.74,0,0,0,1.93,3.35c-.41,1.82-.82,3.63-1.22,5.45-2.44,11.26-4.4,22.61-6.29,34s-3.66,22.73-4.85,34.16c-.56,5.37-.92,10.76-1.28,16.14-.41,6.2-1.27,12.21-.23,18.38a6.4,6.4,0,0,0,1.93,3.5,7.51,7.51,0,0,1,2.64-.38,9.85,9.85,0,0,1,6.31,2.38,9.35,9.35,0,0,0,5-5.5c1.94-5,2.11-10.59,3.06-15.84s2-10.6,3-15.91c2.06-11,4-21.94,6.38-32.84,2.32-10.59,5-21.11,7.76-31.6q1.44-5.52,3-11c4.95,14.48,8.8,29.32,12.6,44.15q3.85,15,7.27,30.09c.77,3.41,1.41,7.08,2.16,10.75a10.33,10.33,0,0,1,8.29,9.82c0,.38.05.76.08,1.15a10,10,0,0,1-1.37,5.05,9.6,9.6,0,0,1-1,1.36,25.43,25.43,0,0,0,1.57,2.27c3.84,4.92,11.72,1.67,13.24-3.5,1.56-5.32.36-10.72-.5-16.08-.82-5.11-1.82-10.17-2.88-15.23q-3.27-15.63-7-31.16c-4.55-19-10.07-37.78-14.19-56.89,4.13.37,8.33-1.63,9.12-6.48q.33-2.06.54-4.14c3.44,9.65,6.88,19.34,10.84,28.77,3.76,9,17.38,5.92,15-4.14-3-12.51-6.82-24.86-10.42-37.21s-7-24.92-11.56-36.89a10.34,10.34,0,0,0-5-5.93c0-.6-.05-1.19-.07-1.79a11.49,11.49,0,0,0-11.25-11.25A11.27,11.27,0,0,0,483.8,337a14.88,14.88,0,0,1,1.76,6.45C485.8,349.81,485.14,356.25,485.23,362.6Z" transform="translate(0 0)"/><path class="cls-9" d="M268.54,620.72c.11,9.24,14.09,9.23,14.34,0,.39-13.82,1.77-27.48,3.08-41.16.58-6.06,1.15-12.12,1.61-18.2a6.73,6.73,0,0,0-2.5-5.86l-.23,0a10.4,10.4,0,0,1-7.71-1.94,6.63,6.63,0,0,0-5.49,5.6c-.65,4-1.17,7.95-1.59,12C268.34,587.59,268.33,604.35,268.54,620.72Z" transform="translate(0 0)"/><path class="cls-9" d="M302.65,421.28c5.35-10.26,9.29-21.59,13.42-32.39,1-2.67,2-5.48,3-8.33-.3,5.88-.35,11.78,2.39,17.07s9.93,6.83,14.88,4.1a27,27,0,0,0,4,2.63,16.13,16.13,0,0,0,8.86,1.8c6.07,2.72,13.62,1.61,17.44-5.65a53,53,0,0,0,5.76-21.61c1.26,2.5,2.43,5,3.46,7.61a222.79,222.79,0,0,1,11.33,38.88c.84,4.18,5.79,6.57,9.69,5.5,4.51-1.24,6.12-5.46,5.5-9.68A262.44,262.44,0,0,0,392.73,380c-2.07-6.54-4.08-13.1-6.21-19.62-2.47-7.54-4.71-16.92-12.44-20.76a10.84,10.84,0,0,0-10.22-.1c-3.4-4.48-10.47-6.26-15.59-4.86-.3.08-.6.2-.89.3a2.79,2.79,0,0,1,1,2.84,5.76,5.76,0,0,1-.78,2.24,10.21,10.21,0,0,1-1.54,1.74A2.44,2.44,0,0,1,342,339.4a8,8,0,0,1,.39-1.81,4.79,4.79,0,0,1,1-1.74l.58-.62.2-.17a24.85,24.85,0,0,0-25.09,4.05c-10,8.22-13.57,23.31-17.89,35-5.19,14-10.36,28.58-12.2,43.49C288.11,424.9,299.46,427.38,302.65,421.28Zm39.23-76.88A3.35,3.35,0,0,1,345,344a4.05,4.05,0,0,1,2.86,2.86c1.17,8.74,1.86,17.54,2.47,26.33.51,7.41,2.95,17.67-.92,24.41a2.09,2.09,0,0,1-3.56,0c-4.25-6.18-3-16.25-3.53-23.44-.7-8.75-1.72-17.47-2.49-26.21A4,4,0,0,1,341.88,344.4Z" transform="translate(0 0)"/><path class="cls-9" d="M525.7,586.4c.2,6.59.38,13.18.42,19.78,0,7.23-1.49,17.4,2.63,24A14.93,14.93,0,0,0,541.16,641,16.59,16.59,0,0,0,554,636.85a11.14,11.14,0,0,0,3.62-6.58c2.47-16.81,2.38-36-3.44-52.21-.23-.63-.45-1.27-.69-1.89-2.6-6.59-8.14-11.32-15.62-10.2a15,15,0,0,0-9.94,6.11A12.93,12.93,0,0,0,525.5,580C525.57,582.1,525.63,584.25,525.7,586.4Z" transform="translate(0 0)"/><path class="cls-10" d="M469,334.19c-1-1.12-2-2.22-2.82-3.34a14.21,14.21,0,0,0-8,9.14,12,12,0,0,0-.4,3.5c.26,6.35,1.43,12.74,1.84,19.11s0,14.18,2.18,20.31a11.46,11.46,0,0,0,.54,1.3c3.51,7.25,13.24,9.25,18.7,4.32a11.14,11.14,0,0,0,3.31-5.62c1.71-6.46.91-13.67.81-20.31-.09-6.35.57-12.79.33-19.11A14.88,14.88,0,0,0,483.8,337a14.24,14.24,0,0,0-1.49-2.26C478.51,337.75,472.82,338.34,469,334.19Z" transform="translate(0 0)"/><path class="cls-11" d="M413.88,83.84a22.31,22.31,0,0,0,4.68.85,5.71,5.71,0,0,0,3.6-1,9.23,9.23,0,0,0-3.28,8.81c.87,1.82,1.7,3.65,2.57,5.47.16.34.32.69.49,1a62.87,62.87,0,0,0,5.73,5.8,36.58,36.58,0,0,0,3.64,3.09,20.32,20.32,0,0,0,8.83,4c.31,0,.63.08.95.11,4,.32,8.33-3.92,8-8-.45-5.1-3.69-9.76-7.21-13.38-3.3-3.39-6.9-7.76-11.77-8.65a9.89,9.89,0,0,0-7.58,1.5c3.14-2.4,4.22-7.7.93-10.54-4.16-3.59-9.52-5.25-14.69-6.86-7.68-2.39-12.8,9.35-5.53,13.11l1.8.92A10.7,10.7,0,0,1,413.88,83.84Z" transform="translate(0 0)"/><path class="cls-12" d="M224.83,676.56a8.45,8.45,0,0,0,5.37,2.22,7.68,7.68,0,0,0,5.37-2.22,7.46,7.46,0,0,0,2.23-5.37c0-.28-.06-.56-.08-.84,0-.12,0-.24,0-.37a10,10,0,0,0-.34-2.25c-.25-.59-.49-1.18-.74-1.76a5.55,5.55,0,0,0-1.91-2.08,3.76,3.76,0,0,0-1.63-1,5.63,5.63,0,0,0-2.86-.63,8.78,8.78,0,0,0-3.74,1,8.4,8.4,0,0,0-3.4,4.42,9.81,9.81,0,0,0-.33,2.16c0,.15,0,.31,0,.46s-.06.56-.08.84a8.45,8.45,0,0,0,2.22,5.37Z" transform="translate(0 0)"/><path class="cls-12" d="M333.41,662.5a7.13,7.13,0,0,0-2.45-2.66,4.67,4.67,0,0,0-2.09-1.22,7.09,7.09,0,0,0-3.66-.82l-2.52.34-2.27,1a10.6,10.6,0,0,0-4.36,5.67l-.29.84a9.81,9.81,0,0,0,2.52,9.54,10.16,10.16,0,0,0,6.92,2.87,7.45,7.45,0,0,0,3.78-.85,7.37,7.37,0,0,0,3.15-2,9.81,9.81,0,0,0,2.52-9.54l-.29-.84Z" transform="translate(0 0)"/><path class="cls-12" d="M284.84,555.55l.23,0c3.7-.64,8.08-3.54,8.65-7.61s.63-6.45,1.25-9.62c.8-4.1,1.93-8.37,1.88-12.55a14.75,14.75,0,0,0-12.77-14.47c-6.61-.89-15,3.31-16.16,10.55A35.88,35.88,0,0,0,269,538.27c.51,1.74,2,4.88,2.24,5.51a38.68,38.68,0,0,0,3,6.67,11.54,11.54,0,0,0,2.94,3.16A10.4,10.4,0,0,0,284.84,555.55Z" transform="translate(0 0)"/><path class="cls-12" d="M413.9,534.54c-.54-5.6-4.15-12.25-10.91-11.7-3.83.31-7,3.36-8.64,6.68-1.41,2.92-1.24,6.6-3.57,9a.83.83,0,0,1-.12.08,23.4,23.4,0,0,0,1.86,8.31c2.69,6.37,8.21,11.12,15.45,10.85,3.55-.13,8-1.92,9.51-5.45,1.13-2.6,2.21-4.74,2.28-7.69,0-.36,0-.71,0-1.06C416.27,542,414.28,538.51,413.9,534.54Z" transform="translate(0 0)"/><path class="cls-12" d="M481.42,332.41c-3.81-4.89-4.33-10.13-4.7-16.18-.29-4.93.5-10.37-2.09-14.86a6.29,6.29,0,0,0-2.86-2.72,12.61,12.61,0,0,0-4.34.94,6.46,6.46,0,0,0-1.14,1.66,34,34,0,0,0-2.14,7.7,131.83,131.83,0,0,0-1.85,15.42c.09.21.18.43.28.63a31.09,31.09,0,0,0,3.63,5.85c.86,1.12,1.79,2.22,2.82,3.34,3.79,4.15,9.48,3.56,13.28.59a10.41,10.41,0,0,0,.94-.82A6.15,6.15,0,0,1,481.42,332.41Z" transform="translate(0 0)"/><path class="cls-12" d="M417.13,448.63l1.74,1.34,2,.87a6.56,6.56,0,0,0,3.43.15,4.23,4.23,0,0,0,2.16-.59,6.37,6.37,0,0,0,2.76-1.77l.72-.76a7.67,7.67,0,0,0,2.2-5.3,8,8,0,0,0-2.2-5.31l-.72-.76-1.74-1.34-2-.87a6.56,6.56,0,0,0-3.43-.15,8.48,8.48,0,0,0-6.69,5.12,6.37,6.37,0,0,0-.74,3.31l.3,2.28.87,2Z" transform="translate(0 0)"/><path class="cls-12" d="M525.88,437.07a8.48,8.48,0,0,0-3,3c-.29.42-.6.84-.88,1.27a9.35,9.35,0,0,0-.69,1.38,6.4,6.4,0,0,0-1,3.2,8.86,8.86,0,0,0,4.12,8.6,8.72,8.72,0,0,0,6.64.87,8.89,8.89,0,0,0,5.16-4,29.31,29.31,0,0,0,2-4.87,9.5,9.5,0,0,0-.84-6.48l-1.32-1.7a6.27,6.27,0,0,0-2.71-1.74,4.14,4.14,0,0,0-2.12-.57,6.27,6.27,0,0,0-3.35.15Z" transform="translate(0 0)"/><path class="cls-13" d="M338.08,324c3.2,2.95,9.58,5.45,13.6,2.38,2.8-2.14,5.13-4,6.11-7.58a32.32,32.32,0,0,0,.62-6.68c0-.68.06-1.36.11-2,0-.16.06-.34.1-.55.39-1.53.83-3,1.13-4.59a15,15,0,0,0,.1-5.3c-3.76,1.11-8.27-.77-11.91-1.85s-4.51-5.43-2.78-8.08a10.52,10.52,0,0,0-7.94,5.73A36.71,36.71,0,0,0,334,312.71C334.27,316.54,335.1,321.27,338.08,324Z" transform="translate(0 0)"/><path class="cls-13" d="M287.51,448.73a7,7,0,0,0,2.39,2.61,8.83,8.83,0,0,0,5.62,2,11,11,0,0,0,4.69-1.27,9.48,9.48,0,0,0,4.11-5.16,10.73,10.73,0,0,0,1.07-5.25,32.62,32.62,0,0,0-.52-4.29c-.33-.77-.66-1.54-1-2.31a7.27,7.27,0,0,0-2.5-2.72,9.19,9.19,0,0,0-5.87-2.08,11.58,11.58,0,0,0-4.89,1.32,9.72,9.72,0,0,0-4.45,5.79,32.62,32.62,0,0,0-.52,4.29,10.51,10.51,0,0,0,1.22,5.59Z" transform="translate(0 0)"/><path class="cls-13" d="M388.29,451.17a10.56,10.56,0,0,0,4.57,5.94,10.08,10.08,0,0,0,7.65,1,9.94,9.94,0,0,0,6.95-12.22c-1-2.81-2-6.14-4.33-8.15a9.43,9.43,0,0,0-9.17-2.42,9.38,9.38,0,0,0-6.58,6.58,10.41,10.41,0,0,0-.32,3.46l.3,2.27A18.44,18.44,0,0,0,388.29,451.17Z" transform="translate(0 0)"/><path class="cls-14" d="M545.53,523.5a9.48,9.48,0,0,0-6.47-2.42c-6.46,0-10.49,6-10.38,12,.07,3.53-.1,7-.35,10.48-.28,3.85,3,8.05,6.77,8.9a9.64,9.64,0,0,0,10.43-4.24,19.58,19.58,0,0,0,1.52-2.69c-.2-4.7-.19-9.44-.51-14.18A36.45,36.45,0,0,0,545.53,523.5Z" transform="translate(0 0)"/><path class="cls-14" d="M599.32,659.55l-.35.08-2.12.9a6.72,6.72,0,0,0-2.5,2.29,4.47,4.47,0,0,0-1.15,2,6.72,6.72,0,0,0-.76,3.43c.1.79.21,1.58.31,2.37l.9,2.12a10.07,10.07,0,0,0,5.32,4.1l.35.08a9,9,0,0,0,8.75-2.31l.09-.1a9.84,9.84,0,0,0,2.59-6.26c-.11-.79-.21-1.57-.32-2.35a8.88,8.88,0,0,0-2.27-3.91l-.09-.1a9,9,0,0,0-8.75-2.31Z" transform="translate(0 0)"/><path class="cls-14" d="M504.48,528.56c0-.39-.06-.77-.08-1.15a7.54,7.54,0,0,0-.86-3.83,10.79,10.79,0,0,0-7.43-6,8.27,8.27,0,0,0-1.66-.12,10,10,0,0,0-7,2.91l-1.55,2a9.88,9.88,0,0,0-1.36,5c0,.38-.05.76-.08,1.15a10.08,10.08,0,0,0,1.05,4.42c.11.21.2.43.32.63a10,10,0,0,0,1.56,2,7.67,7.67,0,0,0,.76.86,6.72,6.72,0,0,0,2.88,1.85,6.83,6.83,0,0,0,3.45.77,11.29,11.29,0,0,0,2.7-.45,7.92,7.92,0,0,0,3.63-2.17l.43-.56a9.25,9.25,0,0,0,.92-1,9.6,9.6,0,0,0,1-1.36A10,10,0,0,0,504.48,528.56Z" transform="translate(0 0)"/><path class="cls-15" d="M347.94,297.79c3.64,1.08,8.15,3,11.91,1.85h.06c4.85-1.48,5.27-7.56,1.34-10.28-3.09-2.15-8.26-1.69-11.93-1.77a4.67,4.67,0,0,0-4.16,2.13C343.43,292.36,344.19,296.67,347.94,297.79Z" transform="translate(0 0)"/><path class="cls-16" d="M519.2,521.62c-1.77,3.25,2.25,6.06,4.93,3.81,4.38-3.69,8.74-7.11,14.82-6.92a6.44,6.44,0,0,1,6.58,5,36.45,36.45,0,0,1,1,7.83c.32,4.74.31,9.48.51,14.18.28,6.48,1,12.87,3.6,19,2.84,6.71,13.63.9,10.05-5.88-3.73-7.06-4.57-14.53-5.24-22.39-.54-6.41-.38-15.17-4.56-20.5C543,505.7,524.52,511.85,519.2,521.62Z" transform="translate(0 0)"/><path class="cls-16" d="M236.14,784.59a7.08,7.08,0,0,0-4.84,2,6.86,6.86,0,0,0,0,9.68,6.86,6.86,0,0,0,9.68,0,6.86,6.86,0,0,0,0-9.68A7.13,7.13,0,0,0,236.14,784.59Z" transform="translate(0 0)"/><path class="cls-16" d="M333.37,787.84a6,6,0,0,0-5.05-2.87,7.56,7.56,0,0,0-3.63.95l-.37.19a6.18,6.18,0,0,0-2.14,2.14,7.38,7.38,0,0,0-.62,1.51,7,7,0,0,0,0,3.48l.54,1.28a4.1,4.1,0,0,0,1.38,1.51,5.12,5.12,0,0,0,3.25,1.15h.12a4.58,4.58,0,0,0,1.32-.15,4.77,4.77,0,0,0,1-.42,5,5,0,0,0,.86-.38,5.5,5.5,0,0,0,.61-.23,5.62,5.62,0,0,0,2.16-1.58l-.28.35a1.36,1.36,0,0,1,.12-.12,5.34,5.34,0,0,0,1.4-5.31A9.29,9.29,0,0,0,333.37,787.84Zm-4.92,9-.41.05.53-.1Z" transform="translate(0 0)"/><path class="cls-16" d="M505.69,784.3a7.16,7.16,0,0,0-1.7,1.56,6.77,6.77,0,0,0-1.39,3.36,6.55,6.55,0,0,0,.84,4.52,18.67,18.67,0,0,0,1.91,2.49,9.26,9.26,0,0,0,4.24,2.18,7.27,7.27,0,0,0,7.58-2.58,6.89,6.89,0,0,0,1.42-3.41,6.61,6.61,0,0,0-.86-4.6c-1-1.25-1.8-2.66-3.25-3.42l-.41-.2a14.16,14.16,0,0,0-2.62-.88A7.25,7.25,0,0,0,505.69,784.3Z" transform="translate(0 0)"/><path class="cls-16" d="M597.81,780.65c-3,.2-6.19,2.08-6.91,5.27a8.45,8.45,0,0,0,0,3.81,6.92,6.92,0,0,0,1.42,2.7,6.11,6.11,0,0,0,1.87,1.59,12.91,12.91,0,0,0,3.4,1.35,8.9,8.9,0,0,0,4.29,0,8.77,8.77,0,0,0,3.4-2,6.81,6.81,0,0,0,1.94-4.06,7.69,7.69,0,0,0-.84-4.52,7.29,7.29,0,0,0-3.93-3.44,9.52,9.52,0,0,0-1.07-.35A12.28,12.28,0,0,0,597.81,780.65Z" transform="translate(0 0)"/><path class="cls-17" d="M433.51,537.2c2.85-16.82-14.54-34.05-31.62-28.08A26.11,26.11,0,0,0,387.5,522.5a.36.36,0,0,0,0,.09c-2,4.26-4.36,13.26,1,16,.12.07.23.14.36.2a1.67,1.67,0,0,0,1.81-.17.83.83,0,0,0,.12-.08c2.33-2.43,2.16-6.11,3.57-9,1.6-3.32,4.81-6.37,8.64-6.68,6.76-.55,10.37,6.1,10.91,11.7.38,4,2.37,7.5,5.85,9.05a9.86,9.86,0,0,0,2.8.76C427.05,544.88,432.67,542.16,433.51,537.2Z" transform="translate(0 0)"/><path class="cls-17" d="M458.68,328.69c.32,2,3,1.23,3.22-.44.16-1.29.28-2.59.4-3.88A131.83,131.83,0,0,1,464.15,309a34,34,0,0,1,2.14-7.7,6.46,6.46,0,0,1,1.14-1.66,3.71,3.71,0,0,1,4.34-.94,6.29,6.29,0,0,1,2.86,2.72c2.59,4.49,1.8,9.93,2.09,14.86.37,6,.89,11.29,4.7,16.18a6.15,6.15,0,0,0,1.83,1.55,9.22,9.22,0,0,0,10.3-1.55c3.61-3.61,2.87-8.47,0-12.13-1.2-1.55-2.45-2.59-3.28-4.29a26.42,26.42,0,0,1-1.44-5.37c-.87-3.76-1.83-7.64-3.83-11-3.35-5.57-9-7.52-15.1-6.4-5.83,1.06-7.8,5.72-9.17,11-.28,1.1-.55,2.21-.8,3.34C458.39,314.45,457.57,321.82,458.68,328.69Z" transform="translate(0 0)"/><path class="cls-14" d="M414.53,122c.22,0,.43,0,.65-.07a11.38,11.38,0,0,0,8.21-5.27,11.59,11.59,0,0,0,2-8.09c-.38-3.23-1.89-6.41-3.41-9.6-.17-.34-.33-.69-.49-1-.87-1.82-1.7-3.65-2.57-5.47a70.45,70.45,0,0,0-3.83-7.11,13.5,13.5,0,0,0-1.17-1.56A10.7,10.7,0,0,0,405,80.1c-6.35.4-12.29,6.05-10.43,13.93a117.51,117.51,0,0,0,4.51,13.38c1.49,4.06,2.87,8.32,5.71,11.2a11.13,11.13,0,0,0,6,3.19A13.75,13.75,0,0,0,414.53,122Z" transform="translate(0 0)"/><path class="cls-14" d="M435.06,221.59a29,29,0,0,0,.55,4c.34.81.69,1.62,1,2.44a7.7,7.7,0,0,0,2.63,2.86,5,5,0,0,0,2.26,1.32,7.11,7.11,0,0,0,.75.33,7.73,7.73,0,0,0,3.18.55l2.72-.37,2.44-1a11.43,11.43,0,0,0,4.7-6.1,28.83,28.83,0,0,0,.55-4c0-.49,0-1,0-1.48a7.91,7.91,0,0,0-.9-4,7.74,7.74,0,0,0-2.15-3.35,11.62,11.62,0,0,0-7.36-3.05,10.54,10.54,0,0,0-7.36,3.05,11.56,11.56,0,0,0-2.63,4.55,10,10,0,0,0-.41,2.81C435.06,220.6,435.05,221.1,435.06,221.59Z" transform="translate(0 0)"/><path class="cls-5" d="M371.24,93.16c2.65.34,5.25,1.2,7.93,1.62a28,28,0,0,0,5.77.5c3-.18,4.73-1.36,7-3.14,3.25-2.54,3.23-9.21,0-11.74-2.28-1.78-4-3-7-3.13a26.64,26.64,0,0,0-5.77.5c-2.68.41-5.28,1.27-7.93,1.61C362.4,80.5,362.38,92,371.24,93.16Z" transform="translate(0 0)"/><path class="cls-5" d="M375.69,778.61c-14.6,0-14.62,22.69,0,22.69S390.31,778.61,375.69,778.61Z" transform="translate(0 0)"/><path class="cls-5" d="M461.79,775.64a10.65,10.65,0,0,0-7.45,3.09l-1.65,2.13a10.33,10.33,0,0,0-.77,1.66,10.51,10.51,0,0,0-.67,3.66,7.27,7.27,0,0,0,.29,3.52,11.88,11.88,0,0,0,2.84,4.92,8.64,8.64,0,0,0,2.63,2,9.62,9.62,0,0,0,9.56,0,13.3,13.3,0,0,0,2.58-2,9.09,9.09,0,0,0,2.28-3.52,7.75,7.75,0,0,0,1-4.29c0-.23-.05-.46-.08-.69a7.89,7.89,0,0,0-.91-4.06,7.78,7.78,0,0,0-2.18-3.39,7.92,7.92,0,0,0-2.8-2c-.2-.08-.39-.17-.59-.23A7.91,7.91,0,0,0,461.79,775.64Z" transform="translate(0 0)"/><path class="cls-5" d="M436.88,543.31a8.48,8.48,0,0,0-1.08.45,7.25,7.25,0,0,0-3.12,2,9.86,9.86,0,0,0-2.49,9.41c.1.41.2.81.29,1.22l.95,2.24a7.1,7.1,0,0,0,2.41,2.63,4.71,4.71,0,0,0,2.07,1.2,7,7,0,0,0,3.61.81L442,563l2.24-1a10.47,10.47,0,0,0,4.31-5.6c.09-.41.19-.81.29-1.22a9.74,9.74,0,0,0-2.49-9.41l-.54-.46a9.85,9.85,0,0,0-6.31-2.38A7.51,7.51,0,0,0,436.88,543.31Z" transform="translate(0 0)"/><path class="cls-5" d="M380.9,572.45l2.33,1.81a11.55,11.55,0,0,0,5.82,1.57,11.16,11.16,0,0,0,10.54-7.09,8.49,8.49,0,0,0,.86-2.62,9.13,9.13,0,0,0,.13-1.82c-.14-1-.27-2-.41-3.07a11.48,11.48,0,0,0-3-5.08c-.77-.61-1.55-1.21-2.33-1.81a11.45,11.45,0,0,0-5.82-1.57,11.84,11.84,0,0,0-11.53,11.53c.09.7.19,1.4.28,2.11l.13,1A11.52,11.52,0,0,0,380.9,572.45Z" transform="translate(0 0)"/><path class="cls-18" d="M345.88,397.58a2.09,2.09,0,0,0,3.56,0c3.87-6.74,1.43-17,.92-24.41-.61-8.79-1.3-17.59-2.47-26.33A4.05,4.05,0,0,0,345,344a3.35,3.35,0,0,0-3.15.42,4,4,0,0,0-2,3.53c.77,8.74,1.79,17.46,2.49,26.21C342.92,381.33,341.63,391.4,345.88,397.58Z" transform="translate(0 0)"/><path class="cls-18" d="M343.42,335.85a4.79,4.79,0,0,0-1,1.74,8,8,0,0,0-.39,1.81,2.44,2.44,0,0,0,4.07,2.37,10.21,10.21,0,0,0,1.54-1.74,5.76,5.76,0,0,0,.78-2.24,2.79,2.79,0,0,0-1-2.84l-.2-.13a2.74,2.74,0,0,0-3,.24l-.2.17Z" transform="translate(0 0)"/></g><g id="line_art" data-name="line art"><path d="M231,801.61a2,2,0,0,1-1.44-.61,16.83,16.83,0,0,0-1.79-1.5,15.73,15.73,0,0,1-2.53-2.23,2,2,0,0,1-.33-2,5.07,5.07,0,0,1,.77-1.26,2.35,2.35,0,0,1,.14-.37c0-.41,0-.88,0-1.38,0-1.32,0-2.44.08-3.37H26.9a2,2,0,1,1,0-4H228.28a2.23,2.23,0,0,1,1.11.11,2.1,2.1,0,0,1,.8.54,2,2,0,0,1,.05-1c4.58-14.66,7-31.56,9.39-47.91q.47-3.23.92-6.36c.43-2.92,1.24-6.79,2.16-11.27,2.46-11.85,6.17-29.76,3.23-35.32a2,2,0,0,1,.41-2.4l.09-.13a2,2,0,0,1,2.34-.64,2.67,2.67,0,0,1,1.11.82,2.08,2.08,0,0,1,1-.32h.38A10.31,10.31,0,0,0,259,677.4c5.13-5.46,8-16.4,9.48-29.59a18.48,18.48,0,0,0-7.73,3.55c-2.46,2.09-4.36,6.15-6.19,10.08-1.71,3.67-3.49,7.46-5.92,10.27a2,2,0,0,1-1.07.89,2,2,0,0,1-2.73-2.16c-1.59-11.23-.79-25.07.6-38.07-3,8.5-7.1,16.62-13.32,21.72.32,0,.64-.07.94-.12a2,2,0,0,1,2.06.94c3,4.92,4.4,11.76-.38,16.19a2,2,0,0,1-2.89-.19,11.26,11.26,0,0,0-1.9-1.47c-1.15,2.91-3.29,6.92-6.82,8.64a8,8,0,0,1-6.74.12,2,2,0,0,1-1.23-1.85,46.33,46.33,0,0,1,3.9-17.65,15.59,15.59,0,0,1-1.41-1.63,7.35,7.35,0,0,0-1.34-1.44,2,2,0,0,1-.63-2.62c21.77-39.31,31.55-70.33,29.06-92.18a2,2,0,0,1,1.59-2.18c4.87-1,9.75-2.09,14.47-3.15,2.43-.55,4.81-1.09,7.15-1.6a2,2,0,0,1,1.64.36,2,2,0,0,1,.55.66c0-.51.07-1,.11-1.49a16.92,16.92,0,0,0,0-4.44,32.41,32.41,0,0,0-2.54-6.36c-2.15-4.55-4.19-8.85-2.64-12a4.74,4.74,0,0,1,1.85-2c-1.3-6,.23-11.31,4.32-14.87a14.93,14.93,0,0,1,15.89-2.26c5.18,2.43,8.19,7.74,8.34,14.66,2.63,1.81,3.27,3.74,3.31,5.1s-.54,3.6-3.46,5.77c-.05.3-.1.61-.14.93-.68,4.52-1.61,10.8-5.76,14.14a9.54,9.54,0,0,0,1.71-.5,2,2,0,0,1,1.57,0,1.92,1.92,0,0,1,.84.73,44.68,44.68,0,0,0,7,5.38l.71,0a5.82,5.82,0,0,1,1.12-1.58c-4.9-14.71-.72-34.54,3-52.2,1.62-7.67,3.15-14.92,3.79-21.08.84-8,1.39-16.41,1.93-24.52,1.16-17.71,2.37-36,6.61-52.64a11.34,11.34,0,0,1-5.17-5.56,84.4,84.4,0,0,1-7.19,21.36,38.5,38.5,0,0,1-4.06,6.74c.34,1.43.86,2.93,1.39,4.48,1.61,4.68,3.44,10,.56,14.89a2,2,0,0,1-1.72,1h-.25c1.35,2.25,2.71,5.05.92,9.09a2,2,0,0,1-2.3,1.14c-10.11-2.46-10.41-10-10.67-16.69-.18-4.48-.34-8.71-3.13-11.7a2,2,0,0,1-.34-2.22,2,2,0,0,1,1.92-1.14l1.52.09c2,.13,3.58.22,4.81.19-.76-.17-1.54-.32-2.33-.47a34.57,34.57,0,0,1-8.44-2.41,2,2,0,0,1-.76-3c6.59-9.15,9-25.57,11.16-40.06a200.49,200.49,0,0,1,3.6-20c5-19.12,14.85-25.53,27.33-33.63,3.42-2.23,7-4.52,10.74-7.29a2.38,2.38,0,0,1,.41-.23,35.9,35.9,0,0,0-1.91-5.08c-1.59-3.64-3.23-7.41-2.4-12.13a2,2,0,0,1,2.7-1.51,15,15,0,0,0,1.49.41c1.23-8.53,6.94-16.43,13.3-17.92,3.14-.73,9.17-.56,14.28,8.85a15.31,15.31,0,0,1,1.39,3.73c.37-1.82.76-3.64,1.14-5.41a116.4,116.4,0,0,0,2.14-11.66c.69-6.82,1-13.89,1.39-21.38,1-20.56,2-41.82,10.58-59a2,2,0,0,1,.78-.83c.17-5.71,2.61-13.19,5.37-21.66,4.47-13.68,9.53-29.19,4.32-37.59-2.14-3.48-5.94-5.57-11.59-6.41-3.36-.5-7.74,0-12,.55-7.56.91-14.7,1.78-18.47-2.4-2.33-2.59-2.83-6.61-1.53-12.29,2.33-10.12,7.15-17.58,14.63-22.52a8.91,8.91,0,0,1,1.64-4.52h-.22a2,2,0,0,1-2-1.8,18.36,18.36,0,0,1,2.37-11.19,2,2,0,0,1,1.43-.89,85.26,85.26,0,0,1,14.56,0c5.31.28,10.32.55,14.43-.3l.28,0a2,2,0,0,1-1-.89,8.74,8.74,0,0,0-.74-.71,2,2,0,0,1-.93-1,2,2,0,0,1,.07-1.63c3.27-6.61,15.41-11,22.43-9.68,11,2.15,12.32,10.85,12.92,18.38,7.09,2,19.88,11,21.91,20.45a10.56,10.56,0,0,1-2.16,9.21s0,.07,0,.11c4.8,13.19,5.53,23.72,6.38,35.91.27,3.94.55,8,1,12.48.28,2.89.94,6.59,1.71,10.87,2.7,15.13,6.07,34-2.28,42.47a2,2,0,0,1-.62.43,9.86,9.86,0,0,1,1.89,4.52c.63,4.64-2.37,10.1-10.52,11.8a2,2,0,0,1-1.7-.43A183.9,183.9,0,0,0,446.89,251c2.49,9.33,5.06,19,5.63,28.87.28,4.92.53,10,.76,15,.25,5.11.49,10.28.79,15.39,1.39-9.53,3.82-19.11,10.07-23.38,3.39-2.3,7.55-2.82,12.39-1.53,9.92,2.65,12.17,15.54,13.39,22.47a84.59,84.59,0,0,0,3.53,12.54,77.31,77.31,0,0,1,3.36,12,2,2,0,0,1-1.43,2.25c3.87,1.42,8.1,3.17,10.78,7.78,3.23,5.55,4.57,13.12,5.87,20.44a99.32,99.32,0,0,0,2.53,11.7c.7,2.25,2.34,6.3,4.25,11,8.58,21.13,15.91,40.73,12.43,49.15a9.88,9.88,0,0,1,4,3.19c3.78,5,3.11,12.79,2.65,15.91a2,2,0,0,1-.71,1.25,28.84,28.84,0,0,1-5,3,2,2,0,0,1-2.13-.38c-2.39-2.21-3.61-5.49-4.43-8.45-.37.26-.75.5-1.1.74a12.65,12.65,0,0,0-2.08,1.55,2,2,0,0,1-3.41-1.51c.08-1.78.27-3.45.46-5.06a52.39,52.39,0,0,0,.46-6.4H519a9,9,0,0,0-2.15.12,2,2,0,0,1-2.23-.56c-4.2-4.91-5.74-12.42-7.1-19.06-.51-2.5-1-4.86-1.58-6.91q-.72-2.5-1.44-5.08c-.82-2.9-1.64-5.83-2.5-8.76l-.09,2.25c-.13,3.58-.26,7.11-.35,10.47,1.15,8.18,2.79,16.34,4.4,24.37,2.12,10.53,4.3,21.41,5.39,32.25l.48,4.9c1.38,13.91,2.68,27,5.36,40.67a43,43,0,0,0,1.32,4.62,24.92,24.92,0,0,1,6.1-6.39c5.16-3.78,10.93-5.09,15.84-3.59,11.56,3.54,14.76,16,16.36,27.78A115.6,115.6,0,0,0,562.49,560a25,25,0,0,1,6.12,2.16c8.26,4.09,8.9,7.35,9.33,12.75a35.65,35.65,0,0,0,1.14,7.32c3.34,12.27,8.72,24.79,13.92,36.89,7.76,18.07,15.79,36.76,17.61,55.69a2,2,0,0,1-3.18,1.8c-3.13-2.31-5.75-5.52-8.28-8.63l-.75-.93a11,11,0,0,1-3.17,5,2,2,0,0,1-2.94-.15c-3.1-3.75-3.58-7.78-1.47-12.35a2,2,0,0,1,1.55-1.14,17,17,0,0,0,7.74-2.66,35.91,35.91,0,0,0-10.28-1,2,2,0,0,1-2.08-1.78c-1.22-11.43-5.64-23.27-10.36-34.87a195,195,0,0,1-5.49,22c-.95,3.27-1.82,6.26-2.44,8.75.49,1.9.89,4,1.32,6.27.14.75.29,1.53.44,2.34,1.18,6.11,2.19,12.2,3.16,18.1,2.13,13,4.15,25.26,8,38l1.59,5.32q1.45,4.89,2.9,9.68a110.84,110.84,0,0,1,15.94,25.55,127.3,127.3,0,0,1,4.6,12.06c.82,2.4,1.6,4.66,2.43,6.82.26.68.69,1.72,1.19,2.93,1.79,4.37,2.9,7.13,3.45,9h538.42a2,2,0,0,1,0,4H613.73a2.26,2.26,0,0,1-2.78-.61,2,2,0,0,1-.41-2.17.59.59,0,0,1,.06-.14c-.66-2.07-2.39-6.28-3.3-8.52-.51-1.25-.95-2.32-1.22-3-.86-2.23-1.65-4.53-2.48-7-1.35-3.93-2.75-8-4.45-11.69A112,112,0,0,0,590.42,740a252.73,252.73,0,0,0,10.87,28.35c3.07,6.65,3.44,11.49,1.12,14.78-2.48,3.52-7.58,4.81-16,4a2,2,0,0,1-1.54-.95c-5.7-9.39-8.6-20.36-11.41-31-2-7.58-4.08-15.42-7.17-22.77-3-7.12-5.49-14.31-7.9-21.25-1.35-3.87-2.74-7.87-4.19-11.78-.78-2.1-1.54-4.85-2.34-7.77-1.56-5.63-3.32-12-5.6-15.11a7,7,0,0,0-2.08-2.12c-1.15,1.14-2,7.27-2.48,10.61-.38,2.7-.74,5.26-1.25,7.3-3,11.89-6.41,26.08-9.12,41.08-1.48,8.15-3.38,16-5.22,23.52-2.44,10-4.78,19.62-6.09,29.59a2,2,0,0,1,.27,2.11,2.06,2.06,0,0,1-.61.75q-.32,2.79-.5,5.63a2,2,0,0,1-.8,1.48,2,2,0,0,1-1.65.34,25.17,25.17,0,0,0-5.39-.25c-4.28.08-9.14.16-12.1-2.79a9.13,9.13,0,0,1-2.38-6.89,2,2,0,0,1,2.74-1.83c2.53,1,3.87.93,5.88,0-2.54-.51-5-.86-7-1.13a2,2,0,0,1-1.33-.8,2,2,0,0,1-.36-1.5l.11-.74c.95-5.82,1.92-11.85,3.17-18,4.26-20.81,5.71-38.73,4.72-58.1-1.06-21,4.16-38.69,9.2-55.81a84.23,84.23,0,0,1,3.57-9.41,64.25,64.25,0,0,0,3.74-10.41c1.61-6.65-.11-9.82-2.7-14.63-.64-1.17-1.33-2.46-2-3.89-4.24,7.64-9.56,14.42-16.07,18a20.54,20.54,0,0,1-16.43,1.57,2,2,0,0,1-1.37-1.52c-1.74-8.77,2.64-17,6.87-25,3.4-6.39,6.91-13,7-19.59.09-7.3-.89-7.62-6.38-9.43-1.5-.49-3.2-1-5.21-1.85-7.21-2.89-14.71-6.35-20.77-12.15a2,2,0,0,1-.44-2.26l.6-1.33c3.26-7.29,7.73-17.27,12.92-23.77a24.38,24.38,0,0,1,5.5-4.78l-.71-.19a2,2,0,0,1-1.47-1.58,2,2,0,0,1,.83-2c1.4-1,2.81-1.85,4.17-2.71a61.9,61.9,0,0,0,5.49-3.7c-.47-2.73-1-5.46-1.43-8.17l-1.22-6.93c-1.66-9.41-4.68-19.31-7.61-28.88-3.47-11.38-7-23.08-8.56-34.55-1.94,4.8-3.24,11.8-4.27,17.34-.52,2.84-1,5.51-1.52,7.53-1.84,7.24-2.62,15-3.37,22.57-.44,4.4-.89,8.95-1.55,13.34s-1.43,9.24-2.18,14c-1.19,7.53-2.42,15.31-3.43,22.62-.46,3.36-.63,6.2-.79,8.71-.59,9.9-1.43,14.21-15.32,15.35,1.26,4.25,3.73,8.7,6.13,13a85.78,85.78,0,0,1,5.44,11,219.83,219.83,0,0,1,9.48,33.16c.21,1,.43,2.08.65,3.16,1.92,9.2,4.09,19.63,2.62,29.47a42.36,42.36,0,0,1-2.72,8.88c-.73,1.86-1.42,3.64-1.91,5.36a16.8,16.8,0,0,0,4.18-1.13,3.52,3.52,0,0,1,.84-2.12,2,2,0,0,1,2.42-.3c1.09.64,1.09,1.6.86,2.68,1.74,3,2.89,7,1.29,10.18-.8,1.6-2.61,3.56-6.65,3.79a2.05,2.05,0,0,1-1.46-.52,2.92,2.92,0,0,1-.34-.37l-.08.1a2,2,0,0,1-1.63.85h0a2,2,0,0,1-1.64-.86,13.47,13.47,0,0,1-2.47-7.71,20.44,20.44,0,0,0-5.69,1.36,2,2,0,0,1-1.84-.12l-.19-.13c4.23,13.54,6.93,27.82,9.55,41.68,1.23,6.52,2.5,13.26,3.92,19.88.86,4,1.55,8.25,2.22,12.37a165.1,165.1,0,0,0,3.61,18c1.15,4,3.18,7.63,5.33,11.47a68.76,68.76,0,0,1,5.05,10.34,2,2,0,0,1-.51,2.13c-5.2,4.93-11.34,4.2-17.28,3.49a45.57,45.57,0,0,0-7.14-.48A2,2,0,0,1,450,787a13.53,13.53,0,0,1,4.6-5.17,30.24,30.24,0,0,0-5.87,1.21,2,2,0,0,1-1.92-.42c-5.81-5.17-6.34-14.56-6.8-22.85a75.06,75.06,0,0,0-.82-8.9c-1.38-7.53-4.18-15-6.88-22.28-1.26-3.37-2.56-6.85-3.7-10.31-3.71-11.14-5.33-22.87-6.9-34.21-.69-5-1.4-10.17-2.3-15.25-3.37-2.19-5.72-6-7.25-10.55l-2.65,1.55a81,81,0,0,1-1.61,7.94c-3.49,13.62-5.37,28-7.19,42-.71,5.4-1.44,11-2.25,16.44-.51,3.38-.32,9.5-.12,16,.42,13.78.9,29.39-4.06,35.24a8.66,8.66,0,0,1-6.9,3.3,9.23,9.23,0,0,1,3.15,4.14,8.65,8.65,0,0,1-2.72,9.46c-5.77,5.12-18.41,5.83-23.6,3.58a2,2,0,0,1-1.07-2.53c.45-1.22.92-2.9,1.42-4.68,1.75-6.22,3.93-14,8.78-16.23a6.09,6.09,0,0,1,1.39-.45c-1.87-4.78-1.62-12.16-1.42-18.13,0-1.11.07-2.15.08-3.08.22-12.93,2-26.17,3.69-39,2-14.92,4.05-30.33,3.58-45a14.12,14.12,0,0,1-4.63-8,15.57,15.57,0,0,1-.22-2.92c-1.51,4.84-3.36,8.51-5.67,10.64,2.49.83,3.05,1.88,3.32,2.38a7.55,7.55,0,0,1-.18,7.51,12.34,12.34,0,0,1-9.28,5.9,2,2,0,0,1-1.56-.64c-.4-.43-.81-.86-1.22-1.28a2,2,0,0,1-.27-2.42,17.93,17.93,0,0,0,2.19-8.52c-1.16-.06-2.45-.1-3.89-.08h0a2,2,0,0,1-1.4-.58l-1.21-1.15a2,2,0,0,1-.6-1.94c2.52-10.56,3.73-21.84,4.9-32.75,1.56-14.58,3.17-29.65,7.92-43.49a103.48,103.48,0,0,0,5.81-31.93,8.8,8.8,0,0,0-.73-1.14,2,2,0,0,1-.33-1.89,2,2,0,0,1,1.1-1.19l0-1.57a9.66,9.66,0,0,1-1.66-.95c-5.57-4-6.57-10.6-7.46-16.46-.19-1.26-.37-2.45-.59-3.61-1.42-7.5-2.06-16.23-2.74-25.47-1.54-21-3.28-44.74-15.16-58.05-7.8,7.35-11.64,34.82-13.75,49.94-.62,4.46-1.16,8.31-1.67,11-1.67,8.74-3.61,17.41-5.49,25.79-1.39,6.22-2.83,12.65-4.11,18.91a2,2,0,0,1-1.89,1.6,26.84,26.84,0,0,1,0,7,9.5,9.5,0,0,1,3.52,1.61c5.32,4.39,6.68,17.89,7.61,31.35.14,2,.26,3.65.39,5,1.56,15.87,2.33,30.9,2.35,46,0,4.93-.64,8.85-2,11.83,1.13,5.45,1.45,11-.77,15.82a2,2,0,0,1-2,1.16c-3.79-.23-6.1,1.91-9,4.64l-.74.7a2,2,0,0,1-2.72,0c-3.53-3.26-3.34-6.85-3.18-9.73a17.46,17.46,0,0,0,0-3.07,41.8,41.8,0,0,1-2.06,10.49,2,2,0,0,1-2,1.33,25.72,25.72,0,0,1-2.93-.26c7.35,7.34,7.69,10.94,8.58,20.31l.17,1.72c1.93,19.83,4.51,37.83,7.86,55,.48,2.46.94,5,1.42,7.78.91,5.17,1.84,10.5,3,15.29,2.32,1.26,4.18,4,5.1,7.48s.92,8.22-1.76,11.14a2,2,0,0,1-2.49.36c-2.42-1.44-4.81-1.55-7.34-1.66-3.62-.17-7.72-.35-11.72-4.61a2,2,0,0,1-.45-2,11.4,11.4,0,0,1,7.66-7.6l-1.34-.25c-3.92-.7-7.63-1.37-10.81-8.38-2.51-5.52-3.47-12.4-4.4-19.06a97.63,97.63,0,0,0-2.73-14.35c-1.18-3.85-2.3-7.91-3.47-12.21-3.7-13.49-7.86-28.68-15-39-7.87,9.56-11.65,29.87-14.2,43.59-.44,2.38-.86,4.6-1.26,6.6a104.47,104.47,0,0,0-1.25,13.81c-.57,11.19-1.22,23.88-7.22,30.41a2,2,0,0,1-1.83.62,2,2,0,0,1-1.5-1.23c-11.19-28.19-.6-78,16.35-103.77A40.71,40.71,0,0,1,285.71,665a56.91,56.91,0,0,1-7.5-19.7,41.87,41.87,0,0,1-5.6,1.57c-1.55,14.62-4.75,27-10.68,33.27A14.28,14.28,0,0,1,251.48,685l-.87.34c1.47,8.18-1.51,22.57-4,34.46-.92,4.42-1.71,8.24-2.12,11-.31,2.09-.61,4.21-.92,6.36-2.13,14.74-4.53,31.33-8.68,45.67,6.58-.2,17.74,1.39,21.06,6.06a2,2,0,0,1-.46,2.78c-5.25,3.78-10.73,5.51-16.53,7.34-2.37.75-4.82,1.52-7.27,2.45A2,2,0,0,1,231,801.61Zm-1.6-5.9.79.61c.42.32.84.64,1.26,1,2.15-.78,4.27-1.45,6.33-2.1,4.68-1.47,9.14-2.88,13.28-5.38-4.38-2.56-14.46-3.51-18.55-2.76a2,2,0,0,1-1.84-.61,2,2,0,0,1,0,.73,2.06,2.06,0,0,1-.71,1.21,36.45,36.45,0,0,0-.14,3.84v.33a2,2,0,0,1,.34,1.63A3.94,3.94,0,0,1,229.4,795.71Zm138.13-1c4.85,1,13.73,0,17.61-3.43a4.72,4.72,0,0,0,1.54-5.34c-.35-1.16-2.8-3-4.77-4.44a45.37,45.37,0,0,1-4.3-3.45,4.07,4.07,0,0,0-2.59,0c-3.2,1.5-5.18,8.54-6.63,13.69C368.1,792.75,367.81,793.76,367.53,794.69Zm-54.2-3.6c2.57,2.24,5.05,2.35,8.1,2.49a20.44,20.44,0,0,1,7.45,1.34,10.57,10.57,0,0,0,.09-6.17,9.14,9.14,0,0,0-2.43-4.47,2.22,2.22,0,0,1-.06.51,2,2,0,0,1-1.88,1.48C319.86,786.41,315.26,787.11,313.33,791.09Zm199.9,1.5c.71,0,1.4,0,2.07.06.1-1.21.21-2.41.34-3.6-.51-.21-.94-.43-1.41-.66l-.88-.43a8.51,8.51,0,0,1-4.28.06l-.51-.09c-2.43,1.34-4.52,2.21-7.36,1.78A3.66,3.66,0,0,0,502,791c1.76,1.75,5.71,1.68,9.2,1.62Zm-57.42-6.66c1.24.1,2.47.24,3.68.39,5,.59,9.41,1.12,13.06-1.59a76.25,76.25,0,0,0-4.28-8.45A58.06,58.06,0,0,1,462.59,764a164.21,164.21,0,0,1-3.71-18.41c-.67-4.06-1.36-8.26-2.19-12.17-1.43-6.67-2.71-13.43-3.94-20-3.09-16.37-6-31.82-11.25-46.69l-.2-.57A15.13,15.13,0,0,1,440,667.3a19.94,19.94,0,0,1-16.2,3.24c.71,4.33,1.31,8.67,1.91,13,1.54,11.16,3.14,22.7,6.72,33.5,1.13,3.39,2.41,6.84,3.66,10.17,2.76,7.42,5.62,15.08,7.06,23a77.46,77.46,0,0,1,.89,9.41c.39,7.07.83,15,4.7,19.33a36.47,36.47,0,0,1,6.57-1.14l.15,0c3.45-1.88,7.91-2.14,11-.62a2,2,0,0,1,1.12,1.93,2,2,0,0,1-1.38,1.76C461.56,782.25,458,784,455.81,785.93Zm45.24-5.67c5.47.82,10.91,1.88,15.21,3.94,1.37-9.5,3.59-18.65,5.91-28.18,1.83-7.5,3.71-15.26,5.17-23.29,2.74-15.12,6.18-29.39,9.18-41.34.46-1.84.81-4.29,1.17-6.89,1-7,1.84-13.06,5.48-14,2.67-.68,4.84,1.77,6.25,3.67,2.73,3.69,4.6,10.46,6.25,16.43.78,2.83,1.51,5.5,2.24,7.44,1.46,4,2.85,8,4.2,11.85,2.4,6.89,4.87,14,7.82,21,3.19,7.61,5.31,15.58,7.35,23.3,2.76,10.46,5.38,20.35,10.44,29,6.13.43,10-.39,11.42-2.45s.87-5.7-1.48-10.8c-6-12.87-10.28-25.95-14.41-39.55q-1.38-1.65-2.87-3.3C567.46,712.75,562,687.43,564,651.92a2.08,2.08,0,0,1,.25-1.07,2,2,0,0,1,.79-.8c.08-.39.17-.81.27-1.24-1.44-5-3.65-6.84-10.47-6.89-4.34,0-8.42.31-12.35.63a121.39,121.39,0,0,1-14.57.57,2,2,0,0,1-1.59-3.11c4.5-6.71,24.08-10.33,31.77-9.1,8.22-5.4,3.2-42.87-1.35-58.45-.15-.52-.31-1-.46-1.47a14.6,14.6,0,0,1-8.15-6.08c-.77.09-1.61.24-2.52.43-.24,3.37-1,5.82-3.21,6.72s-4.87-.23-8.78-3.78l-2.29.47c-.66,1.45-1.39,2.86-2.15,4.24a51.4,51.4,0,0,1-1.78,10.19,142.51,142.51,0,0,1-8.5,22.92c.16.43.33.87.53,1.31.86,2,1.76,3.63,2.64,5.25,2.7,5,5,9.33,3.07,17.46a68.69,68.69,0,0,1-3.95,11,78.72,78.72,0,0,0-3.41,9c-5,16.8-10.07,34.18-9,54.47,1,19.73-.48,38-4.8,59.11C502.84,769.32,501.92,774.87,501.05,780.26ZM279.2,685h.14a2,2,0,0,1,1.44.77c8.47,11,13,27.63,17.07,42.34,1.16,4.27,2.27,8.3,3.43,12.09a99.53,99.53,0,0,1,2.87,15c.89,6.37,1.81,13,4.08,18s4.29,5.46,7.88,6.1a26.1,26.1,0,0,1,7.85,2.44c-1.26-5-2.23-10.6-3.18-16-.48-2.72-.93-5.29-1.4-7.71-3.38-17.32-6-35.44-7.92-55.4l-.17-1.73c-.87-9.16-1.11-11.62-7.72-18.16-1.86-1.84-3.44-3.5-4.84-5.11A32.51,32.51,0,0,1,288,668.33a36.86,36.86,0,0,0-16.58,14c-15.37,23.34-25.62,69.18-17.25,96.45,3.16-6.16,3.66-16,4.11-24.88a106.57,106.57,0,0,1,1.33-14.39c.4-2,.81-4.19,1.25-6.55,3-16,7.05-37.93,16.93-47.44A2,2,0,0,1,279.2,685Zm100.52,89.49c.76.24,1.52.52,2.27.8,4.15,1.53,6.82,2.33,9.22-.51,4-4.67,3.47-20.77,3.11-32.53-.21-7-.4-13,.16-16.69.81-5.42,1.54-11,2.24-16.37,1.84-14,3.74-28.58,7.29-42.43l.3-1.22a18.48,18.48,0,0,1-6,5.45,15,15,0,0,1-13.65.4c.16,14.15-1.78,28.76-3.67,42.92-1.69,12.69-3.44,25.81-3.66,38.5,0,1-.05,2-.09,3.15-.18,5.51-.43,13,1.32,16.95A6.51,6.51,0,0,0,379.72,774.47Zm188-114.3c-.73,27.3,3.51,47.6,12.62,60.49l-.19-.67-1.59-5.31c-3.89-13-6-26-8.09-38.53C569.57,670.93,568.69,665.55,567.68,660.17ZM367.11,671.82a23.13,23.13,0,0,1-1.7,8.07,8.55,8.55,0,0,0,4.37-3.51,3.55,3.55,0,0,0,.13-3.66A6.47,6.47,0,0,0,367.11,671.82Zm-49.95-5.74a15.3,15.3,0,0,1,.48,5.79c-.12,2-.2,3.62.7,5.14,2.64-2.45,5.48-4.77,9.72-5a19.5,19.5,0,0,0,.63-8.44c-.19.16-.39.32-.6.47C325.4,666,321.78,666.68,317.16,666.08Zm-16,8.22a21.29,21.29,0,0,0,7.07,2,46.47,46.47,0,0,0,1.57-11.93l-.69-.23a2,2,0,0,1-1.27-1.26c0-.06,0-.12-.05-.19-2.73-.49-6,.53-10.43,2.06l-1.46.5-.68.24A50.52,50.52,0,0,0,301.2,674.3Zm-82,.56a3.74,3.74,0,0,0,2.17-.38c2.26-1.09,4.48-4.58,5.65-8.86a2,2,0,0,1,3.4-.83,12.85,12.85,0,0,0,1.69,1.27l1,.71c1.6-2.91.17-6.7-.82-8.68-1.27.11-2.6.11-3.89.1a33.06,33.06,0,0,0-4.08.15,2.14,2.14,0,0,1-.8-.07,1.9,1.9,0,0,1-.2.72A42.8,42.8,0,0,0,219.22,674.86ZM462,671.15l.26,0a2,2,0,0,1,1.59,1.22,4.14,4.14,0,0,1,.26,1.64,2.57,2.57,0,0,0,1.48-1.23c.57-1.14.38-3-.43-4.9a24,24,0,0,1-6.29,1.52,9.63,9.63,0,0,0,.57,3.58c.39-.4.77-.81,1-1.06A2,2,0,0,1,462,671.15ZM598.49,661c1.26,1.36,2.48,2.86,3.76,4.43s2.42,3,3.69,4.35a109.86,109.86,0,0,0-2.52-11.6A15.45,15.45,0,0,1,598.49,661Zm-209.83,7.53a10.76,10.76,0,0,0,7.74-1,13.6,13.6,0,0,0,3.48-2.82A62.41,62.41,0,0,1,388.66,668.52Zm55.53-6.21.48,1.36.61,1.72c.34,1,.67,2,1,2.94-.24-3.73-.45-7.42-.65-11A13.4,13.4,0,0,1,444.19,662.31Zm-84,5c1.16,0,2.21,0,3.17.09.05-.06.09-.12.15-.18a2,2,0,0,1,1.5-.66h0c8.26,0,11.47-32.49,13.19-50,.78-7.9,1.4-14.14,2.23-17.59a2,2,0,0,1,3.91.09c.31,1.66.66,3.36,1,5.09,1.74,8.36,3.7,17.84,2.51,26.88-.5,3.79-2.18,8-4,12.41-2.37,5.92-4.82,12-4,16.57a9.83,9.83,0,0,0,2.89,5.29c6.49-.32,14.3-3.56,20.9-7a73,73,0,0,0,2.6-7.25c.33-5.88.14-11.66-.06-17.62s-.41-12.41-.08-19.2c.49-10,4.73-18.74,8.84-27.15,3-6.16,5.9-12.08,7.43-18.46-2.83-1.94-4.63-5.8-5.11-10.65-3.16,7.63-5.75,19.07-7.79,28.1-1,4.48-1.89,8.35-2.68,11.12a2,2,0,0,1-3.92-.58c.12-8.82-2-17.93-4-26.74-1.27-5.59-2.47-10.87-3.16-16.11a2,2,0,0,1,3.1-1.92c4.73,3.19,9.13,4.16,12.09,2.64s4.43-5.19,4.59-10.77a2,2,0,0,1,1.51-1.88c-.34-.65-.68-1.33-1-2.06a38.27,38.27,0,0,1-2-5.86c-1-3.74-2.23-8-4.65-9-1.25-.55-3-.32-5.21.68-1.38,6.23-7.17,23.24-15,23.82a5.89,5.89,0,0,1-.84,0c.85,2.16,1.54,2.5,1.66,2.55a10.51,10.51,0,0,1,1.93,4.47,1.81,1.81,0,0,1-.37.65c2.72,4.2,4.24,10.27,1.79,13.7-1.2,1.67-3.74,3.36-9.05,1.86-2.61-.74-4.55-3.24-6.19-6.12a107.63,107.63,0,0,1-5.66,26.17c-4.6,13.41-6.19,28.26-7.73,42.62C363.74,645.92,362.57,656.87,360.19,667.3Zm233.86-5.16a6.56,6.56,0,0,0,0,5c.84-1.43.85-2.85.22-5.08Zm-171.07,4a8.11,8.11,0,0,0,1,.33,16.06,16.06,0,0,0,13.53-2.37,11.28,11.28,0,0,0,2.25-2.28c-2.09-5.86-4.28-11.44-7.74-16.71-1.26-1.93-2.76-3.77-4.33-5.73-4.25-5.25-8.63-10.68-8.64-18,0-8.54,4.15-16.53,8.17-24.25,3.8-7.28,7.72-14.81,8.26-22.87a49.37,49.37,0,0,0-.07-5.24c-.05-1.18-.11-2.42-.13-3.69-3.59,3.91-6.73,4.79-9,4.63-1.69,6.72-4.69,12.88-7.63,18.89-4.11,8.41-8,16.36-8.44,25.59-.32,6.62-.11,12.85.09,18.87.07,2.33.15,4.64.2,6.94a2,2,0,0,1,3.32,1.51,55.3,55.3,0,0,0,.9,10.13l1.79-1.19a2,2,0,0,1,3,1.07A129.41,129.41,0,0,1,423,666.16Zm15.49-81.83a2,2,0,0,1,.34,0,2,2,0,0,1,1.58,1.41c6.69,23,7.8,44.06,9,66.42.25,4.7.5,9.54.81,14.47a37.51,37.51,0,0,1,5.12-.87,49.94,49.94,0,0,1,2.42-7.33,38.26,38.26,0,0,0,2.5-8c1.36-9.13-.74-19.19-2.59-28.07-.22-1.08-.44-2.14-.65-3.18a215.14,215.14,0,0,0-9.31-32.54,81.24,81.24,0,0,0-5.18-10.43c-1-1.82-2-3.65-3-5.51a37.42,37.42,0,0,1,0,3.83,39.39,39.39,0,0,1-2.12,10.11A2,2,0,0,1,438.47,584.33Zm-187.67,20a2,2,0,0,1,2,2.26c-.28,2.16-.6,4.46-.92,6.87-2.07,15.28-4.83,35.62-3.57,51.67.94-1.69,1.81-3.54,2.66-5.37,2-4.31,4.09-8.77,7.23-11.43s7-3.86,10.73-4.71c2.36-27-.44-61.39-1.79-78.07-.23-2.83-.43-5.25-.57-7.22l-4.86,1.09c-4.17.94-8.47,1.9-12.79,2.8,1.86,22.3-7.88,53-28.95,91.37.31.34.59.69.85,1a10,10,0,0,0,1.32,1.47,2,2,0,0,1,1.34-1.61c13.91-4.73,19-24.43,23.13-40.25.78-3,1.52-5.9,2.28-8.46A2,2,0,0,1,250.8,604.31Zm31,38.44a54.42,54.42,0,0,0,7.69,20.59l.14-.05A134.22,134.22,0,0,1,281.84,642.75Zm32.07,18.64c5.47,1.4,9.37,1.21,11.85-.58a7.6,7.6,0,0,0,2-2.27c-.55-2.38-1.24-4.76-1.9-7s-1.25-4.3-1.69-6.24c-.49-2.21-1-4.44-1.58-6.7-2-8.11-4-16.49-4.39-25.21-1.05-23.12-2.3-35.27-18.05-48.41-3.81,8.73-9.84,20-18.22,28.43a2.06,2.06,0,0,1-1.22.58c-2.3,23.78,3.36,48.69,12.69,67.94l1.23-.43,1.43-.49c4.5-1.55,9.1-3.14,13.35-2l.32-.59c-.21-4.69-.68-9.47-1.14-14-.39-3.94-.77-7.66-.95-11.11-.52-10-.34-20-.17-29.7.08-4.78.17-9.73.17-14.64a2,2,0,0,1,4-.24c.5,4.09,1.32,8.85,2.19,13.89,3.2,18.61,7.12,41.37,0,56.65,0,.71,0,1.42.06,2.12ZM415.69,656a24.18,24.18,0,0,0,2.22,5.31c-.44-2-.92-3.89-1.46-5.8Zm15.6-58-.5,1c-4,7.63-7.73,14.84-7.72,22.4,0,5.9,3.77,10.55,7.75,15.48,1.57,1.94,3.19,4,4.56,6a67.53,67.53,0,0,1,6.31,12.57c0-7.31-2.53-15.3-5.2-23.74C432.94,620.51,429.29,609,431.29,598.05Zm-21,53.75c-.06,1-.13,2-.22,3l.94-.57c-.21-1-.39-2-.55-3C410.42,651.44,410.37,651.62,410.31,651.8Zm181.2-1.19a41.9,41.9,0,0,1,10.06,1.31c-3.35-10.53-7.84-21-12.25-31.25-5.25-12.23-10.69-24.88-14.1-37.42a40.54,40.54,0,0,1-1.27-8c-.36-4.52-.49-6.2-7.11-9.48a22.9,22.9,0,0,0-2.59-1.11c.54,1.35,1.12,2.72,1.74,4.14a2,2,0,0,1-.11,1.81,2,2,0,0,1-1.52,1,27,27,0,0,1-3.64.14c2.33,8.34,12.6,56.6-1.41,63.14A2,2,0,0,1,558,635c-4.66-1.07-17,.94-24,4.16,2.73-.11,5.39-.33,8.13-.55,4-.33,8.17-.66,12.71-.64,6.41.05,9.91,1.81,12,4.87.36-1.24.73-2.53,1.12-3.86,2.5-8.6,5.74-19.74,6.18-28.62-2.14-5.2-4.14-10.17-5.82-15a2,2,0,0,1,2.86-2.4c5.46,3,7.19,9.24,7,16.73l.69,1.7C584.27,624.19,589.75,637.5,591.51,650.61ZM313.23,573.15c7.23,10.72,8.2,22.6,9,40,.37,8.33,2.36,16.53,4.28,24.45.55,2.28,1.09,4.53,1.6,6.76.41,1.82,1,3.85,1.62,6,0,.12.07.24.1.37.09-1.1.13-2.27.13-3.53,0-14.92-.78-29.82-2.33-45.56-.14-1.36-.26-3.08-.4-5.07-.6-8.7-1.73-24.88-6.17-28.54a5.25,5.25,0,0,0-1.84-.8c-.83,2.48-2.17,4.53-4.13,5.42A5.33,5.33,0,0,1,313.23,573.15Zm124.54,18.14c-6.08,12-1.7,25.84,2.54,39.27,2.05,6.49,4,12.72,4.9,18.74C444.17,629.77,443,611.09,437.77,591.29ZM311.37,612c-.09,7-.07,14,.3,21,.17,3.35.54,7,.93,10.92.14,1.36.27,2.73.41,4.12C314.85,637.27,313.32,624.19,311.37,612Zm71.41-.54c-.18,1.75-.37,3.61-.56,5.53-1.07,10.87-2.2,21-3.75,29.55.56-1.52,1.17-3,1.78-4.54,1.68-4.2,3.26-8.16,3.69-11.46C384.77,624.28,384,617.83,382.78,611.45ZM270.62,559c.13,1.75.3,3.82.49,6.18,1.46,17.93,4.13,50.75,1.9,77.47a27.07,27.07,0,0,0,5.86-2,2,2,0,0,1,1.83,0,2,2,0,0,1,.73.65c-6.63-23.58-7.69-50.79,1.55-74.2.15-1.29.25-2.58.29-3.86-2.43,1.58-5.4,1.66-8.53.09A7.68,7.68,0,0,1,270.62,559ZM486.43,626.7a16.34,16.34,0,0,0,12.16-1.6c6.57-3.56,11.91-11.2,16-19.34-3.25-11,2.17-19.86,7.43-28.47,1.09-1.79,2.2-3.61,3.24-5.46,0-.66.07-1.31.09-2l-.78.14c-7.15,1.28-13.9,2.49-20.31,5a2,2,0,0,1-2.48-.91c-2.33-4.28-2.07-8.82-1.28-13.32-2.19-.92-4.41-1.63-6.57-2.33-4.87-1.57-9.91-3.19-14.42-7a2,2,0,0,1-.5-2.4c1.88-3.86,4.86-6.59,7.74-9.23,2.71-2.49,5.29-4.86,6.65-8,0-.1,0-.2-.05-.3-1.9-.49-3.74-1-5.54-1.55l-1.23.83a26.72,26.72,0,0,0-6.18,5c-4.88,6.1-9.23,15.81-12.4,22.91h0c5.05,4.48,11.07,7.42,18.45,10.37,1.9.76,3.54,1.3,5,1.78,6.42,2.11,9.26,3.45,9.13,13.27-.1,7.56-3.85,14.6-7.47,21.42C489.24,612.84,485.57,619.73,486.43,626.7Zm37-43.94c-3.26,5.51-5.84,10.72-5.78,16.48A149,149,0,0,0,523.4,582.76ZM286.9,568.07c-.48,3.95-1.33,7.85-2.17,11.71-.43,2-.85,3.92-1.22,5.82,6.34-7.93,10.95-17.27,13.9-24.36a11.71,11.71,0,0,1-5.45-3.5A78.34,78.34,0,0,0,286.9,568.07Zm113.56-10.72c.67,3.77,1.54,7.64,2.46,11.67,1.12,4.91,2.25,9.91,3,14.94,2-8.7,4.25-18.54,7.12-26l-.21.11C409.43,559.85,405.11,559.58,400.46,557.35Zm103.87,4.9a17.19,17.19,0,0,0,.29,8.35c6.25-2.19,12.85-3.38,19.26-4.53l1.5-.27c0-.21,0-.42,0-.63A15.68,15.68,0,0,1,511.73,563a2,2,0,0,1-.88-1.67,5.65,5.65,0,0,0-.75-2.62c-.07-.16-.15-.32-.23-.49l-1.62.3a25.56,25.56,0,0,1-2.65,3.12A2,2,0,0,1,504.33,562.25Zm-125.66-3.72c.33.65.68,1.36,1.05,2.11,1.48,3,3.71,7.57,5.82,8.16,1.38.39,3.84.87,4.71-.34,1.19-1.66.18-6.21-2.12-9.53a10.88,10.88,0,0,0-1.07-1.33,39.19,39.19,0,0,0-8.39.82Zm-71.34,6.73h0c2.57,2.92,4.85,4.33,6.1,3.76a4.44,4.44,0,0,0,1.84-2.56l-2.58-.36C310.79,565.85,309,565.61,307.33,565.26Zm231.22,1.87c1.77,1.29,2.38,1.21,2.43,1.2a3.63,3.63,0,0,0,.57-2l-.75.19Zm20.68.42a17.21,17.21,0,0,0,2,.14c-.58-1.4-1.13-2.77-1.64-4.12-1-.09-2-.11-3.06-.11A13.68,13.68,0,0,1,559.23,567.55Zm-135-21.34c2.17,3.83,3.7,7.61,3.32,15.2a42.32,42.32,0,0,1-.48,4.57c2.52-.25,5.59-3,8.55-7.72a2,2,0,0,1,2.06-.9l.17,0c12.66-.74,12.77-2.67,13.32-11.72.16-2.58.33-5.51.82-9,1-7.36,2.25-15.16,3.44-22.7.75-4.73,1.49-9.42,2.17-14,.65-4.29,1.1-8.79,1.53-13.14.77-7.68,1.56-15.62,3.47-23.16.48-1.88,1-4.5,1.47-7.27.46-2.46.94-5.08,1.51-7.69a102.39,102.39,0,0,0-6.15,19.36c-4.89,24.26-10.11,52.79-11.85,80.51a2,2,0,0,1-1.82,1.87c-2.16.19-4,.47-5.71.71-4.21.61-7.25,1.06-9.59-.76-1.67-1.3-2.62-3.45-3.18-7.26A18.2,18.2,0,0,1,424.24,546.21Zm107.15,15a2,2,0,0,1,1.46.63c.74.79,1.41,1.48,2,2.09,1.47-.34,2.85-.7,4.19-1a38.16,38.16,0,0,1-10-2.94c.08,1.08.15,2.17.21,3.26.07-.2.13-.4.19-.6a2,2,0,0,1,1.47-1.35A2.18,2.18,0,0,1,531.39,561.19ZM421.72,550a1.71,1.71,0,0,1,0,.31c-1.08,6-.14,10.94,1.65,13.57.1-.88.18-1.77.23-2.67C423.83,555.85,423.08,552.82,421.72,550Zm-115,11a47,47,0,0,0,6.51,1.15c1,.14,2,.27,2.94.42a22.89,22.89,0,0,0,0-5.67c0-.14,0-.27-.05-.41a32.21,32.21,0,0,0-8.88,1.39l.25.54a2,2,0,0,1,0,1.67A2,2,0,0,1,306.72,561Zm208.06-.77a11.64,11.64,0,0,0,9.46,1.11c-1.08-3-4.13-5.54-6.67-7.21a2,2,0,0,1,.64-3.62,39.27,39.27,0,0,1-5.11-13.15c-6-28-10.11-57.54-14.07-86.09-.62-4.53-1.26-9.13-1.91-13.74,0,9.4,0,18.69-.1,27.86-.14,18.82,2.25,37.36,6.73,52.2,1,3.26,2.25,6.52,3.47,9.67,3.46,8.87,7,18,3.57,26.67a2,2,0,0,1,1.46.28,2,2,0,0,1,.89,1.3,6.67,6.67,0,0,0,.59,1.54A10.68,10.68,0,0,1,514.78,560.22ZM274.4,551c0,1-.08,1.92-.15,2.8-.27,3.34-.27,4.75,2.29,6,1.73.87,4.21,1.58,6.32-1.75a25.5,25.5,0,0,0-2.11-3.17A29.68,29.68,0,0,1,274.4,551Zm272-2.16a67.86,67.86,0,0,0,3.4,10.86c1.26,0,2.45,0,3.61-.1,1.61-.06,3.15-.12,4.7-.07A122.42,122.42,0,0,1,552.87,536c-1.43-10.5-4.16-21.62-13.56-24.49-3.63-1.11-8.24,0-12.31,3a19.94,19.94,0,0,0-6.7,8.41c1.21,3.61,2.47,7.46,3.43,11.19a38,38,0,0,1,2.48-10.66,2.07,2.07,0,0,1,.83-1c7.54-4.52,12.78-5.61,16.49-3.45,3.48,2,5.07,6.66,4.88,14.14a31.17,31.17,0,0,1-3.6,12.75c1,.2,1.5,1,1.58,2.49A1.37,1.37,0,0,1,546.38,548.79Zm-17.71,6.45a33,33,0,0,0,13.06,4,63.91,63.91,0,0,1,.34-9.08c-2.41,2.91-5.47,5-9.13,5a2,2,0,0,1-1.8-1,30.51,30.51,0,0,0-3-4.27c.09,1,.19,1.91.29,2.87Zm-241.61,2.23a2,2,0,0,1,.08.69c.33-.61.66-1.21,1-1.8q-.61,0-1.23,0Q287,556.92,287.06,557.47Zm196.34-8.12c3.58,2.63,7.57,3.92,11.78,5.27l2.19.72c-1.7-2.61-2-6.38-2.28-10.59-.15-2.14-.33-4.55-.7-7a48,48,0,0,1-4.91,5A33.53,33.53,0,0,0,483.4,549.35Zm20.12-20.6a113.88,113.88,0,0,1,2.91,18.64,32.3,32.3,0,0,1-.64,7.4h.13C510.56,546.87,507.26,538.37,503.52,528.75Zm-6,3.48c.24,1.46.48,2.9.71,4.32.46,2.84.65,5.53.82,7.91.33,4.59.6,8.21,2.46,9.56a2.9,2.9,0,0,0,.29.19,29.26,29.26,0,0,0,.61-6.62c-.34-6.78-1.77-13.21-3.28-20-.49-2.22-1-4.44-1.44-6.67-2.56-12.61-5.75-25.3-8.83-37.57-1.64-6.49-3.33-13.21-4.91-19.86-2.34-9.84-4.59-18.49-8-26.64,1.24,11.9,5,24.32,8.71,36.36,3,9.69,6,19.71,7.72,29.36l1.22,6.93c.42,2.42.85,4.87,1.29,7.32a2,2,0,0,1,1.05,1.9,12,12,0,0,1-.34,2.16q.64,3.72,1.27,7.4a2,2,0,0,1,1.14,2.26A16.86,16.86,0,0,1,497.55,532.23Zm-176.38-124c-3.86,15.92-5,33.48-6.14,50.5-.54,8.14-1.09,16.57-1.94,24.66-.66,6.37-2.21,13.72-3.85,21.5-3.55,16.79-7.51,35.6-3.41,49.21a33.67,33.67,0,0,1,9.82-1.65c-2.19-22.69,2.19-44.49,9.43-69.88.56-1.95,1.2-4.9,1.94-8.31,3.83-17.66,7.92-33.63,15.9-35,3.95-.66,7.82,2.23,11.86,8.84,10.68,17.49,17.89,42.93,21.44,75.63l.13,1.17c1,9.29,1.91,17.62,2.22,25.67.57.09,1.17.16,1.8.22a22.15,22.15,0,0,1,4.79.9,28.29,28.29,0,0,1-1.79-5.72,24.67,24.67,0,0,1-2.92-6.32,22.76,22.76,0,0,1,.57-15.33c0-.77-.1-1.54-.14-2.32-.24-3.93-.44-7.33-.71-9.22-1.38-9.54-2.14-19.69-2.87-29.51-.47-6.27-1-12.75-1.6-19a126.42,126.42,0,0,1-.3-13.53c.12-12.53.27-26.72-7-33.29-5.81-5.24-15-5.14-23.84-5-8.39.1-17.05.2-23.3-4.17Zm202.62,143,.52.55-.12-1.25c-.07.13-.14.27-.22.4Zm3.83-8.13.36.41a61.46,61.46,0,0,1,6,7.48c6.28-1.3,10.32-12,10.47-17.95.15-5.73-.85-9.39-2.9-10.58s-6.15-.24-11.83,3.07C527.61,531.13,527.31,537,527.62,543.16Zm-253.95,2.57a1.66,1.66,0,0,1,.32,0,15.24,15.24,0,0,1,8.65,5.11,2,2,0,0,1,1-.49c5.28-.76,6.49-6.07,7.51-12.93.09-.62.18-1.23.28-1.81a2,2,0,0,1,.87-1.35c1.54-1,2.44-2.06,2.41-2.82s-.88-1.58-2.29-2.39a2,2,0,0,1-1-1.78c.12-5.91-2-10.21-6.05-12.1a11,11,0,0,0-11.56,1.67c-3.3,2.86-4.24,7.29-2.65,12.47a2,2,0,0,1-.19,1.6,2,2,0,0,1-1.31.94c-.58.12-.94.31-1.06.57-.69,1.38,1.33,5.64,2.66,8.47.8,1.68,1.57,3.31,2.13,4.83Zm89-69.8c1.95,10.05,2.74,20.82,3.48,31,.67,9.12,1.3,17.74,2.68,25,.24,1.23.43,2.51.62,3.75.78,5.19,1.52,10.11,5,13.15-.37-7.35-1.19-15-2.11-23.42l-.13-1.18C370.23,505.67,367,489.53,362.7,475.93Zm57,72a2,2,0,0,1,.89.21,1.43,1.43,0,0,1,.21.12l-.3-.54a4.11,4.11,0,0,1-1.22-.09l-.06.36A2,2,0,0,1,419.72,548ZM344,443.23a1.61,1.61,0,0,0-.39,0c-6,1-10.32,21.09-12.66,31.87-.76,3.49-1.41,6.5-2,8.57-6.69,23.43-10.9,43.72-9.61,64.4.94-4.4,1.93-8.82,2.9-13.14,1.87-8.35,3.81-17,5.46-25.66.49-2.57,1-6.38,1.64-10.79,2.64-18.87,6.62-47.38,16.86-53.77a2,2,0,0,1,.6-.25A4.63,4.63,0,0,0,344,443.23Zm87,94.13a26.37,26.37,0,0,0,.1,3.8c.37,3.42,1,5.42,1.85,6.11s3.33.43,6.56,0c1.27-.19,2.67-.39,4.23-.56,1.85-27.43,7-55.46,11.8-79.35,2.63-13.05,8.1-24.39,13.39-35.35.77-1.6,1.53-3.17,2.28-4.74a82.24,82.24,0,0,0-8.46-11.9c-.71-.84-1.39-1.68-2-2.51l0,.9c.57,16.86.77,22.57-14.91,26.88a146.58,146.58,0,0,0-3.68,14.57c-2.06,10.93-3.17,22.39-4.24,33.46-.83,8.6-1.69,17.49-3,26-.35,2.26-.84,4.63-1.37,7.12C435,526.21,433.52,532.24,431,537.36Zm85.5-3.43.54,2.58a37.13,37.13,0,0,0,4.06,11.08,16,16,0,0,0,.12-5.82A29.25,29.25,0,0,1,516.47,533.93ZM387.09,544.29a2.57,2.57,0,0,0,1.94,1.14c4-.3,10.21-13.85,11.53-21.54a2,2,0,0,1,1.06-1.44c3.79-2,6.89-2.34,9.5-1.2,4.15,1.82,5.61,7,6.9,11.63a35.81,35.81,0,0,0,1.73,5.22c.84,1.79,1.68,3.3,2.46,4.66a21.34,21.34,0,0,0,4.81-6.43,98.73,98.73,0,0,1,2.35-14.17v0c-4.1-9-20-13.66-27.71-11.74-6.19,1.54-12.14,6.29-15.52,12.41a22.93,22.93,0,0,0-1.09,2.23c.33,5.35.77,11.38,1.55,16.47C386.77,542.53,386.93,543.45,387.09,544.29Zm113.62-110c.78,5.5,1.54,11,2.29,16.38,3.56,25.72,7.23,52.24,12.33,77.67,0-.27,0-.55,0-.82a16.73,16.73,0,0,1,.75-4.65c0-.11-.07-.21-.1-.31a82.44,82.44,0,0,1-2.67-8.75c-2.71-13.8-4-27-5.41-41.05l-.48-4.89c-1.07-10.64-3.23-21.43-5.33-31.86l-.39-2a2.31,2.31,0,0,1-.63.2Zm-8.95,92.59.87.24c-.05-.31-.11-.62-.16-.94C492.24,526.46,492,526.69,491.76,526.92ZM348.38,408.48c8.37,0,16.66.64,22.7,6.09,8.61,7.78,8.45,22.93,8.31,36.3a128.08,128.08,0,0,0,.29,13.08c.65,6.27,1.13,12.78,1.6,19.08.73,9.75,1.49,19.83,2.85,29.24.19,1.33.34,3.24.49,5.51a29.37,29.37,0,0,1,16.08-11.26c8.23-2,22.89,1.78,29.82,10.06.16-.86.31-1.69.43-2.5,1.28-8.45,2.14-17.29,3-25.83,1.08-11.17,2.19-22.71,4.29-33.82.84-4.47,2-8.94,3.3-13.35a2,2,0,0,1-.55-.5c-2.91-3.87-3.51-9-3-14.63-1.34,5-3.19,10.34-7.05,11.75a5.87,5.87,0,0,1-3.43,0c1.75,4.73,2.67,9.88-1.43,16.85a2,2,0,0,1-2.82.66,14.19,14.19,0,0,1-2.25-1.86,14.61,14.61,0,0,1-2.32,1.31c-.36.17-.71.34-1.05.54a2,2,0,0,1-3-2c2.15-13.44.61-19-1.07-21.29a2,2,0,0,1-.14-2.16,2,2,0,0,1,1.91-1c1.13.09,2.68.74,5.18,1.88-.18-.64-.35-1.3-.5-2-1.45-6.81,1-14.14,3.42-21.24,1-2.83,1.86-5.51,2.53-8.15a170,170,0,0,0,3.23-20c1.64-13.22,3.33-26.9,9.3-36.67a2,2,0,0,1,1.8-1c.53,0,1.12.08,1.75.17a18.67,18.67,0,0,1-1.88-7.27,1.42,1.42,0,0,1,.06-.42c-3.35.37-6.74.54-9.9-.46a2,2,0,0,1-1-3.16c11.39-14.13,2.2-42.41-3.29-59.31l-.72-2.24c-1.68-5.2-3.05-11.24-4.5-17.63-2.71-11.92-5.49-24.22-10.51-32.13-21.06,23.84-23,67.26-24.42,99.17-.17,3.81-.34,7.47-.53,11a2,2,0,0,1-2.34,1.86c-1.11-.19-2.26-.42-3.43-.66l-.93-.18c0,.16,0,.32-.07.49-1.34,7.41-11.43,7.37-17.45,7.36h-.68a14.1,14.1,0,0,0,1,2.42,13.32,13.32,0,0,0,8.54,6.77,10.09,10.09,0,0,0,5.54.07c2.83-.63,5-.76,9.09,3,3.38,3.13,4.16,7.56,4.85,11.47.21,1.17.4,2.28.66,3.3,2.16,8.65,11.58,47.94,8.86,63.69a12.59,12.59,0,0,1,2,2.93c4.13,8.22,3.62,24.6-2.3,28.41a2,2,0,0,1-2.63-.41c-2.33-2.83-2.85-6.75-3.16-10.39a13.13,13.13,0,0,0-1.54,1.7,2,2,0,0,1-3.67-.91c-.34-3.71.76-6.93,1.82-10a28.55,28.55,0,0,0,1.65-6.46,2,2,0,0,1,2-1.82h.07a.9.9,0,0,0,.77-.44,4.65,4.65,0,0,0,.53-.89,2.72,2.72,0,0,0-1.79.16,2,2,0,0,1-2.64-1.4c-2.71-11.12-6.47-22.6-10.12-33.72-2.38,5.7-6.07,9.78-10.17,11-5.77,1.67-13.33.79-21.33-.14-8.21-1-16.65-1.95-22.05.23,5,2.05,11.37,2,18.09,1.89Zm127.31,18.57c6,10.84,9,22.11,12.18,35.5,1.58,6.63,3.26,13.33,4.9,19.82q.6,2.42,1.22,4.86a213,213,0,0,1-1-21.88c.08-10.23.15-20.62.09-31.14a12.57,12.57,0,0,1-5.06-2.27c-4.9-3.72-6-10.42-6.91-17.63C479.52,418.65,477.64,422.89,475.69,427.05Zm-81.23,15.61a2,2,0,0,1,2,1.73c.16,1.13.26,2.34.35,3.52a28.36,28.36,0,0,0,1.16,7.14c2.31-4.5,2.61-15.22-.53-21.49l0,0-.28.38a5.19,5.19,0,0,1-2.18,1.64,37.36,37.36,0,0,1-1.65,5.88c-.3.89-.61,1.78-.87,2.65a4.22,4.22,0,0,0,.34-.47A2,2,0,0,1,394.46,442.66ZM291.33,431.45c1.54,3.39,1.69,7.21,1.83,10.69.25,6.46.68,10.46,5.8,12.4.18-1.52-.53-2.67-1.53-4.31-1.26-2.05-2.82-4.61-2.46-8.43a2,2,0,0,1,3.61-1,16.84,16.84,0,0,0,1.66,1.69l.41.38c.27-2.66-.75-5.62-1.81-8.7-.37-1.06-.74-2.15-1.07-3.24A17.64,17.64,0,0,1,291.33,431.45Zm235.39,11.8a1.83,1.83,0,0,1,.33,0,2,2,0,0,1,1.62,1.5l.2.82c.6,2.52,1.41,5.83,3,8,.73-.41,1.56-.91,2.15-1.31.63-5.11-.1-9.59-2-12.09a6.07,6.07,0,0,0-4.29-2.43,2,2,0,0,1-1-3.54c1-.84,3-4.34-1.07-18.49-2.74-9.49-7.27-20.64-10.58-28.78-2-5-3.61-8.9-4.36-11.3a101,101,0,0,1-2.65-12.2c-1.24-7-2.51-14.19-5.39-19.13-1.93-3.32-4.91-4.63-8.38-5.92,7.64,9.05,8.5,28.05,8.08,47.64,2.25,6.52,4.14,13.24,6,19.78q.72,2.56,1.43,5.06c.63,2.19,1.13,4.63,1.66,7.21,1.17,5.73,2.49,12.17,5.51,16.35a18.3,18.3,0,0,1,2.1-.05,9.4,9.4,0,0,0,2.19-.12,2,2,0,0,1,1.71.26,2,2,0,0,1,.87,1.48,44.56,44.56,0,0,1-.38,9.24c0,.17,0,.33-.05.49a6.05,6.05,0,0,0,1.62-1.61A2,2,0,0,1,526.72,443.25Zm-105.56,5.24h0a2,2,0,0,1,1.51.73c.34.43.69.81,1,1.16,2.47-5.54.87-9.4-1.1-14.14l-.18-.44c-.83-.36-1.71-.76-2.66-1.19l-.89-.42c1,3.81,1.06,8.94.27,15.47.16-.15.33-.31.5-.5A2,2,0,0,1,421.16,448.49Zm28.59-59c-.35,6-2.19,12.8-4,19.46-2.77,10.19-5.62,20.7-2.79,27.21l.9-2.93c3.35-10.91,6.81-22.2,6.94-33.57,0-2,0-4.07-.09-6.1C450.34,392.19,450,390.83,449.75,389.47Zm4.9,14c-.73,10.62-3.89,20.92-7,30.92-.17.56-.34,1.12-.52,1.69,10.2-3.13,10.08-6.8,9.55-22.22l0-1.23c-.07-2-.14-3.95-.22-5.93C455.81,405.62,455.21,404.55,454.65,403.47Zm-29.12,29.3c1.77.72,3.43,1.3,4.08,1.16,2.49-.91,4.15-7.52,5.14-11.47.33-1.28.63-2.5.93-3.46,1.79-5.66,2.14-12,2.48-18.07.47-8.3.95-16.87,4.93-24.36a2,2,0,0,1,1.57-1.05,2,2,0,0,1,1.74.73,13.84,13.84,0,0,1,2.24,3.91,105.38,105.38,0,0,1,.14-11.75,158.75,158.75,0,0,1-.58-21.19,38.89,38.89,0,0,0-6.91-1.57c-5,9-6.6,21.71-8.12,34a174.07,174.07,0,0,1-3.32,20.48c-.71,2.79-1.68,5.67-2.62,8.45-2.22,6.58-4.52,13.39-3.3,19.12A32,32,0,0,0,425.53,432.77Zm56.35-29.15H482a2,2,0,0,1,1.88,1.62c.48,2.45.81,5,1.12,7.43.87,6.78,1.69,13.18,5.51,16.09a8.21,8.21,0,0,0,2.61,1.31c-.08-8.4-.27-16.89-.62-25.45-.85-4.53-2.14-8.83-4.32-10.86a9.53,9.53,0,0,0-4-2.25,39.42,39.42,0,0,1-1.43,9.72,2,2,0,0,1-1.82,1.42c-3,.15-6.08.15-9.06.15h0c-3.6,0-7.32,0-10.87.28a3.42,3.42,0,0,1-.61.3l.06,1.61c0,.17,0,.34,0,.51a64.23,64.23,0,0,0,5.35,7.24,87.75,87.75,0,0,1,7.45,10.12A117.87,117.87,0,0,0,480,405.09,2,2,0,0,1,481.88,403.62Zm-87.95,22.82a6.28,6.28,0,0,1,1.5.18c1.28-12.12-4.31-41.1-9.15-60.5-.29-1.16-.51-2.39-.72-3.58-.61-3.44-1.23-7-3.63-9.22-2.87-2.66-3.69-2.48-5.5-2.08a14,14,0,0,1-7.43-.1,17.3,17.3,0,0,1-11.07-8.79,18.6,18.6,0,0,1-1.18-2.85,19.26,19.26,0,0,1-5,6c.68,4,1.65,8.17,2.64,12.42,3.65,15.71,7.42,31.94-2.67,44.8,6.35.71,12.63,1.22,17,0,3.84-1.11,7.54-6.63,9.17-13.58-2.34-7.19-4.64-14.48-6.55-21.54a2,2,0,0,1,.25-1.61,4.53,4.53,0,0,1,2.11-1.76,2,2,0,0,1,2,.31c7.08,5.84,7.9,16.39,6.29,24.39.55,1.7,1.11,3.39,1.66,5.06,3.5,10.69,7.12,21.71,9.85,32.5Zm-106.87-4.57a47,47,0,0,0,5.31,1.24,45.48,45.48,0,0,1,6.65,1.65,53.22,53.22,0,0,0,2.71-4.93,81.56,81.56,0,0,0,7.11-21.75,51.24,51.24,0,0,1,1.41-5.36c-.19-1.21-.35-2.48-.45-3.83-1.11-14,2.9-32.95,9.53-35.53a2,2,0,0,1,2.57,1.08c3.37,7.89-1.07,20.27-5,31.19-.92,2.56-1.82,5.05-2.56,7.35,1.06,5.57,3.21,9,6.11,9.65a2,2,0,0,1,1.29.91,2.12,2.12,0,0,1,.29.91c5.56-3.88,14.25-3.43,23.11-2.47-9.79-6.51-8.25-16.47-6.76-26.14.36-2.33.73-4.74,1-7.14.41-4.39.41-9.33.4-14.55,0-3.3,0-6.64.1-9.9a19.24,19.24,0,0,1-1.54-1.65c-3.31-4-2.87-9.2-2.47-13.83.09-1.06.18-2.1.22-3.11l-.28-.41c-3.19,2.26-6.19,4.21-9.11,6.11-12.21,7.93-21,13.67-25.64,31.29a195.7,195.7,0,0,0-3.51,19.54C295.47,396.11,293.15,411.76,287.06,421.87Zm209.39-17.73c.49,2.64.83,5.32,1.12,7.76,0-.26,0-.52,0-.78a127.82,127.82,0,0,1-1.07-30.07,2,2,0,0,1,1.71-1.79l.25,0c0-16.93-1.45-32.83-8.23-39.25,3.59,13.17,4.47,30.46,5.19,44.68.14,2.82.28,5.52.43,8C496.1,396.53,496.29,400.35,496.45,404.14ZM445,382c-2.14,5.84-2.5,12.34-2.89,19.15-.14,2.57-.28,5.17-.53,7.76.09-.34.18-.69.28-1C444.5,398.29,447.18,388.42,445,382ZM343.8,346.81c-.05,2.43,0,4.89,0,7.34,0,5.32,0,10.35-.42,14.93-.24,2.51-.62,5-1,7.37-1.55,10-2.78,18.06,6.67,23.18,8.3-11.31,4.81-26.29,1.44-40.79-.9-3.86-1.8-7.77-2.49-11.64A7.78,7.78,0,0,1,343.8,346.81Zm120,44.5a72.57,72.57,0,0,1-1,7.65c3-.16,6.07-.16,9-.16h0c2.44,0,5,0,7.41-.08a39.8,39.8,0,0,0,.91-7.67,50.52,50.52,0,0,0-5.28.42C471.22,391.87,467.46,392.29,463.77,391.31ZM454.71,393c.4,1.37.87,2.73,1.4,4.09-.12-3.87-.23-7.75-.27-11.65a18.8,18.8,0,0,1-1.93-4.5C454.25,384.92,454.55,389,454.71,393Zm29.49-5.57a13.53,13.53,0,0,1,6.67,3.4,10.24,10.24,0,0,1,.94,1c-.12-2.21-.24-4.55-.37-7-.71-14-1.57-31-5-43.72A161.35,161.35,0,0,1,485,360.66c-.29,2.45-.58,5-.83,7.51a103,103,0,0,0-.08,12.73C484.12,383.07,484.19,385.26,484.2,387.43ZM464,387.21c3.17,1.09,6.67.7,10.38.28a51.85,51.85,0,0,1,5.78-.43c0-2-.09-4-.15-6a106,106,0,0,1,.1-13.25c.25-2.57.55-5.12.84-7.59a161.43,161.43,0,0,0,1.44-18.81,41.44,41.44,0,0,0-1.82,4.19,25.35,25.35,0,0,1-3.69,7.15,2,2,0,0,1-3.35-.47,57.87,57.87,0,0,0-3.6-6.32c-2.56-4.11-5.51-8.83-5.8-13.62-1.93,1.61-4.58,2.19-8.05,1.75l.33,2.5a10.46,10.46,0,0,1,.41,2.7c.1.66.21,1.3.32,2l.14.29c.19.42.56,1.18.68,1.38a2.11,2.11,0,0,1,.36,1.15c0,2.65-.32,5.85-.65,9.25.05-.36.11-.72.16-1.07a2,2,0,0,1,3.77-.58C463.9,356.22,464.73,373.74,464,387.21Zm-4.21-3.09.32.4c.14-4.65.12-9.66-.06-14.3C459.87,374.85,459.8,379.49,459.83,384.12ZM319,358.9c-2.58,4-5.18,13.88-5.36,24.06C316.66,374.47,319.81,365.25,319,358.9Zm57.86,13.54q.74,2.51,1.52,5A19.89,19.89,0,0,0,376.84,372.44Zm92.59-45.06c-3,4.56-.45,9.41,3.94,16.45.73,1.17,1.47,2.36,2.16,3.56.47-1,.91-2.13,1.36-3.27,1.46-3.75,3-7.62,6.47-9.44a2.12,2.12,0,0,1,.69-.21,1.94,1.94,0,0,1,.71-.79,14.27,14.27,0,0,1-3.32-4.18,2,2,0,0,1,3.24-2.29c1.86,2,4.66,2.84,7.66,3.2-.67-2.86-1.65-5.76-2.68-8.79A87.07,87.07,0,0,1,486,308.49c-1.06-6.05-3-17.31-10.49-19.3-3.71-1-6.68-.67-9.1,1-6.62,4.52-8.17,18.09-9.4,29-.45,3.87-.84,7.36-1.43,10.12,0,.22.05.44.07.66,2.8.52,4.81.28,6-.7,2.56-2.14,2-8.27,1.45-14.19-.78-8.53-1.67-18.19,7.05-19.53,4.36-.68,8.14,2.35,10.35,8.29,3.21,8.63,2.77,21.75-2.6,25.13C476.08,330.06,473.26,330.57,469.43,327.38Zm-23.18,15.13a33.11,33.11,0,0,1,4.81,1.51,2,2,0,0,1,1.1,1.15,28.17,28.17,0,0,0,.7-5.6c-.05-.26-.09-.52-.13-.78A16.46,16.46,0,0,1,446.25,342.51Zm-102.31-.1a4.47,4.47,0,0,0,3.4.84,60.85,60.85,0,0,1-.56-6.91,12.11,12.11,0,0,1-2.36.3C344.19,338.49,344,340.42,343.94,342.41Zm6.83-8a47.48,47.48,0,0,0,.27,6.25,29.7,29.7,0,0,0,5-9.55,19.41,19.41,0,0,1,1-3.9,2,2,0,0,1,3.87.9,8.94,8.94,0,0,1,1.19-.94,14.19,14.19,0,0,1,8.39-2.07l-1.29-.75c-2.13-1.23-4-2.3-4.76-3.85a18.34,18.34,0,0,1-1.71-7c-2.5,6.77-6.68,12.33-11.26,15-.1.44-.2.9-.27,1.35.22.16.44.34.66.52a2,2,0,0,1,.7,1.41,2,2,0,0,1-.53,1.48A11.66,11.66,0,0,1,350.77,334.42Zm93.58,1.66a19.44,19.44,0,0,0,.73,2.6,12.45,12.45,0,0,0,5.08-3A15.78,15.78,0,0,0,444.35,336.08Zm-104.72-4.32a15.42,15.42,0,0,0,.61,6.3c.1-1,.21-2,.35-2.95a1.7,1.7,0,0,1-.06-.31A9.29,9.29,0,0,0,340,333C339.9,332.59,339.76,332.18,339.63,331.76Zm22.05,2.33c4.82,0,12.3-.1,13-4.08a2,2,0,0,0,0-.48c-4-.61-7.85-.74-10.37,1A7.31,7.31,0,0,0,361.68,334.09Zm-16.37-2.38c-.07.28-.14.57-.2.87a6.39,6.39,0,0,0,1.79-.47v0A12.33,12.33,0,0,0,345.31,331.71Zm89-1.44a39.7,39.7,0,0,0,7.75-.5,39.32,39.32,0,0,1,9.36-.46l.06-.26c-1.12-10.83-1.68-22.55-2.22-34-.24-4.93-.48-10-.76-14.94-.55-9.49-3.07-18.94-5.51-28.07-3.43-12.89-7-26.2-5.13-40a14,14,0,0,0-1.3-1.08c-3.35-2.51-6.78-2.6-10.75-2.71a42.76,42.76,0,0,1-6.54-.53c-12.05,1.11-27.26-1.83-36.33-4.79a2.58,2.58,0,0,1-.48,0c-7.41,16.11-8.38,36.19-9.32,55.63-.37,7.54-.71,14.66-1.41,21.59a122.52,122.52,0,0,1-2.21,12.09c-2.08,9.67-4.44,20.62-1.51,26.44a13.37,13.37,0,0,0,3.18,2.18c2.2,1.27,4.91,2.84,6.41,5.07.94.17,1.87.36,2.78.54l1.12.22q.21-4.16.4-8.63c1.49-33.37,3.53-79.08,27.2-103.56a2,2,0,0,1,3,.18c6.43,8.41,9.56,22.25,12.6,35.63,1.43,6.31,2.78,12.26,4.4,17.3l.73,2.23C435.32,286.59,444.22,314,434.34,330.27Zm-90.48-2.83a1.63,1.63,0,0,1,.31,0l.2,0a28.86,28.86,0,0,1,3.11.6c.1-.5.22-1,.35-1.49a2,2,0,0,1,1.06-1.29c4.32-2.1,8.39-7.72,10.62-14.65,2-6.22,2-12.08.08-15.65s-5.36-7.91-9.84-6.86c-5.28,1.23-10.16,9-10.45,16.66a2,2,0,0,1-2.73,1.78,14.9,14.9,0,0,0-1.45-.41c.1,2.6,1.13,5,2.28,7.63a32.68,32.68,0,0,1,2.39,6.84,19.21,19.21,0,0,1,.32,3.65c.23.25.47.5.75.78.47.47,1.06,1.06,1.78,1.88a2.09,2.09,0,0,1,.39.66A1.94,1.94,0,0,1,343.86,327.44Zm125.37-5a2,2,0,0,1,1.45.61c1,1.06,3.55,3.43,5.05,2.49,2.9-1.82,3.94-12.41,1-20.34-.87-2.35-2.82-6.23-6-5.74-4.66.72-4.49,6.22-3.66,15.21a72.7,72.7,0,0,1,.45,8.7c.09-.11.19-.21.29-.32A2,2,0,0,1,469.23,322.46ZM443.4,213.06a13.52,13.52,0,0,1,.54,6.13,15.11,15.11,0,0,0,.62,6.68c4-1.27,6.22-3.88,5.8-6.93C450,216.27,447.55,213.72,443.4,213.06Zm1.2-4.06a38.84,38.84,0,0,0,6.15,1.05c6.18-7.45,3-25.26.65-38.37-.78-4.36-1.46-8.13-1.75-11.18-.44-4.53-.72-8.63-1-12.6-.82-11.91-1.48-21.41-5.63-33.4l-.57.38a2,2,0,0,1-3-1.24c0-.11-.05-.21-.08-.32-7.3-1.66-13.2-3.48-15.8-11.17-1.12,10.84-4.26,20.84-15.75,28.79,1.53,9.74,0,19.13-1.59,29.52-.25,1.58-.5,3.2-.75,4.84-3.26,21.61.94,34.38,12.49,38,.52.16,1,.29,1.53.4a23.82,23.82,0,0,0,10-2.86c4.05-2.5,3.69-5.24,2.48-11.22a44.29,44.29,0,0,1-1.14-9.08c0-6,1.17-11.47,2.28-16.78.56-2.71,1.15-5.51,1.56-8.29a2,2,0,0,1,3.45-1.06c10.71,11.64,8.55,33.7,7,49.81C444.89,205.86,444.74,207.47,444.6,209ZM431,204.57a16.55,16.55,0,0,1,8,3.18,18.11,18.11,0,0,1,1.42,1.16h.19c.14-1.62.31-3.33.49-5.11,1.34-13.74,3.14-32-3.3-43.11-.25,1.3-.52,2.59-.79,3.85-1.06,5.12-2.17,10.41-2.19,16a40.3,40.3,0,0,0,1.07,8.28c1.12,5.58,2.28,11.35-4.31,15.42ZM387,200a110.3,110.3,0,0,0,23.22,3.86c-8.73-6.43-11.66-19.54-8.71-39.13.25-1.65.51-3.27.76-4.87,2.22-14.08,4.14-26.25-1.78-39.72l-.39-.89c-1.31-3-2.44-5.55-3-6a12.54,12.54,0,0,0-2.15.73,48.34,48.34,0,0,1-8.58,2.63c-8.62,1.79-15.64-.65-18.86-6.29-1.11,1.65-1.53,3.12-1.23,4.39,1,4.29,10,7.45,16.61,9.75,5.32,1.87,9.53,3.34,11.41,5.46a2.06,2.06,0,0,1,.5,1.29c.09,4.9,1.45,9.22,2.9,13.8,1.72,5.46,3.51,11.11,3.19,18.06C400.09,180.13,395.65,192,387,200Zm9.08-46c-1,7.73-3.76,16.27-6.35,24.23-2.25,6.88-4.4,13.46-5,18.45,7.58-7.23,11.47-18.11,12.18-33.8A34.31,34.31,0,0,0,396.06,153.94Zm-20.5-25.21a25.24,25.24,0,0,1,3.65.24c5,.74,8.89,2.42,11.73,5-.07-.63-.12-1.27-.15-1.91-1.62-1.24-5.49-2.59-9.25-3.91-8.28-2.9-17.67-6.19-19.18-12.61-.77-3.28.67-6.82,4.28-10.53a2,2,0,0,1,3.36.88c2.33,8.74,12.47,7.34,15.52,6.71a44.83,44.83,0,0,0,7.93-2.43c5.62-2.22,6.7-.71,9.66,6a37.16,37.16,0,0,1,.36-11.19,8.49,8.49,0,0,1-5,.12c-3.35-1.05-4.9-4.37-6.28-7.3-1.05-2.24-2-4.35-3.58-5.34-2.45-1.57-6.8-1.91-11.28-1.79l.17.12a2,2,0,0,1,.75,1.54,8.36,8.36,0,0,1-3.13,6.93c-2.82,2.23-7.23,2.88-11.81,1.75a2,2,0,0,1-1-.58c-6,4.41-9.88,10.78-11.82,19.24-1,4.25-.77,7.18.61,8.71,2.37,2.64,8.8,1.86,15,1.11A78.89,78.89,0,0,1,375.56,128.73Zm32.87-26.17c-2.23,5.13-1.62,10.79-1,16.78.22,2.11.46,4.26.56,6.42,9.5-7.82,11.24-17.58,11.91-28.68l-.73-.58A7.93,7.93,0,0,0,417,95.05a2,2,0,0,1-1.14-1.2,2,2,0,0,1,.16-1.65,12.58,12.58,0,0,0,.93-2.56,18.44,18.44,0,0,1,1.75-4.39c-1.37-1.36-2.92-1.18-5.4-.76-3.23.54-8,1.35-10.34-6a2,2,0,0,1-.72-.39,11.84,11.84,0,0,0-3.26-2c-.59.23-1.17.43-1.73.62-.74.26-1.44.51-2,.76a1.89,1.89,0,0,1-.69.17,2,2,0,0,1,.76.52,8.94,8.94,0,0,1,1.19,1.64c.19.34.22.38.72.68a2,2,0,0,1,.91,1.16,17.32,17.32,0,0,1,.11,7.24,2,2,0,0,1-1.66,1.66,33.84,33.84,0,0,1-3.78.39,23.25,23.25,0,0,1,3,5.2c1.12,2.4,2.18,4.66,3.85,5.18,1.31.41,3.26-.1,5.79-1.53,1.58-1.39,2.65-.7,3.15-.17S409.73,101.17,408.43,102.56Zm18.5-16.24c1.71,2.53,3.61,4.87,5.47,7.16,3.88,4.77,7.88,9.68,10.09,16.3a6.69,6.69,0,0,0,2-6.53C443,96.32,433.1,88.77,426.93,86.32Zm-2.88,8.6a6.48,6.48,0,0,0,.88.29,2,2,0,0,1,1.5,1.67c1.12,8.22,4.85,10.31,11.44,12-2.07-4.86-5.25-8.77-8.57-12.85-1.69-2.07-3.41-4.18-5-6.47,0,.64,0,1.28-.08,1.92Zm-56.88,2.64a8.52,8.52,0,0,0,5.51-1.42,4.06,4.06,0,0,0,.95-1A38,38,0,0,0,367.17,97.56Zm1.49-6.26a16.45,16.45,0,0,0-1.94,2A44.91,44.91,0,0,1,374,90.85C372.14,91,370.3,91.14,368.66,91.3ZM366,81.75a14.67,14.67,0,0,0-1.35,5.9c.72-.05,1.52-.13,2.38-.21,1-.82,2-1.59,2.88-2.3,1.11-.86,2.16-1.68,3-2.43a2,2,0,0,1,2.51-.15c4.58,3.3,12.27,5,19.16,4.22a13.2,13.2,0,0,0,0-3.36,4.73,4.73,0,0,1-1.41-1.64l-.06-.1c-4.31.68-9.12.42-14.19.15A89.49,89.49,0,0,0,366,81.75Zm50-1.57a7.47,7.47,0,0,1,5.6,2.27,1.58,1.58,0,0,1,.35-.16,2.05,2.05,0,0,1,.54-.1c-.67-7.92-2-13.2-9.68-14.7-4.41-.86-12.39,1.63-16.3,5.25.52-.19,1.06-.38,1.61-.61a2,2,0,0,1,1.05-.13,11.66,11.66,0,0,1,4.44,2,2.7,2.7,0,0,1,1.17,0,2,2,0,0,1,1.6,1.54c1.27,5.82,2.84,5.56,6.3,5A19.74,19.74,0,0,1,416,80.18Z" transform="translate(0 0)"/></g></svg>