<svg xmlns="http://www.w3.org/2000/svg" viewBox="0 0 1280 800"><defs><style>.cls-1{fill:#fff;}.cls-12,.cls-2{fill:none;}.cls-3{fill:#454545;}.cls-4{fill:#643b8b;}.cls-5{fill:#d2d0d0;}.cls-6{fill:#f1ae81;}.cls-7{fill:#8e6444;}.cls-8{fill:#5a5242;}.cls-9{fill:#a6cbe5;}.cls-10{fill:#4e6676;}.cls-11{fill:#d68758;}.cls-12{stroke:#d68758;stroke-linecap:round;stroke-linejoin:round;stroke-width:0;}.cls-13{fill:#858586;}.cls-14{fill:#523328;}.cls-15{fill:#85ccca;}.cls-16{fill:#c589ba;}.cls-17{fill:#231f20;}</style></defs><g id="background"><rect class="cls-1" width="1280" height="800"/><path class="cls-2" d="M406,150.64Z"/><path class="cls-2" d="M425,403.9a219.32,219.32,0,0,1,5.37,41.4q.48-19.92,2.22-39.79A9.44,9.44,0,0,1,425,403.9Z"/><path class="cls-2" d="M503.23,512.78l.16.37a28.72,28.72,0,0,1,8.09-11.22q-6.64-2.39-13.26-4.82l-.06.28C500,502.46,501.13,507.78,503.23,512.78Z"/><path class="cls-2" d="M431.79,496.38c-.69-9.05-1.18-18.12-1.42-27.2h0c-.31,9.11-1,18.19-1.77,27.14v.08A8.31,8.31,0,0,1,431.79,496.38Z"/><path class="cls-2" d="M406.16,150.81l-.13,0C406.89,151.46,408.47,151.44,406.16,150.81Z"/><path class="cls-2" d="M406.27,150.82c.71.16.5.07,0,0Z"/><path class="cls-2" d="M410.31,352.68c-2.68-.25-4.53-1.34-6.85-2.29a8.18,8.18,0,0,1-2.54-1.65A158.38,158.38,0,0,1,410.54,365,72.32,72.32,0,0,1,410.31,352.68Z"/><path class="cls-2" d="M656.49,249.58l.07-.05a.5.5,0,0,0,0-.12C655.33,247.64,656.18,249.57,656.49,249.58Z"/><path class="cls-2" d="M254.64,491.31c-.64-.6-.58-.23,0,0Z"/><path class="cls-2" d="M525.14,512.41c-1.06,2.4-2.3,5-3.27,7.68a77.17,77.17,0,0,0,10,1.3,79.5,79.5,0,0,0,21.55-1.56c1.83-.42,3.66-.9,5.48-1.41q-16.51-5.58-33-11.35A10.05,10.05,0,0,1,525.14,512.41Z"/><path class="cls-2" d="M254.64,491.38h0Z"/><path class="cls-3" d="M477.34,620.35c-12-10.4-20.79-23.51-27.33-37.76a9.18,9.18,0,0,1-11.51,8.52,79.75,79.75,0,0,0-13.23-1.73,9.11,9.11,0,0,1-7.66-4.66A75.39,75.39,0,0,1,408.88,608c-11.09,18.33-30.1,25.37-50.66,26.56A137.26,137.26,0,0,1,300,625.16a39.23,39.23,0,0,1-10.91-6.1,10,10,0,0,0-.5,1.78,462.41,462.41,0,0,0-6.19,71.84c-.17,23.79,2.77,47.89,6.89,71.28a9.13,9.13,0,0,0,2,4.35c1.76,7,8.21,13.46,15.84,12.77q81.14-7.41,162.63-9.8c7.14-.21,14.13-5,15.92-12.13a315.46,315.46,0,0,0,8.67-102.56c-.89-10.64-2.25-21.28-4.13-31.81A16.7,16.7,0,0,1,477.34,620.35Z"/><path class="cls-4" d="M365.38,492.91c-.93.65,2.26-.87,0,0Z"/><path class="cls-4" d="M315.38,459.46a3.33,3.33,0,0,0-.57.19C314.85,459.78,315.07,459.68,315.38,459.46Z"/><path class="cls-4" d="M312.41,434a5.81,5.81,0,0,0,.62-.22C313,433.52,312.73,433.67,312.41,434Z"/><path class="cls-4" d="M317.86,457.22c.77-.76.24-1.19,0,0Z"/><path class="cls-4" d="M266.45,423l-2.71-1.38-.64-.33,1.93,2.87A13.86,13.86,0,0,1,266.45,423Z"/><path class="cls-4" d="M480.4,498.77a8.27,8.27,0,0,1,3.31-7q-7.69-2.88-15.38-5.86c4.49,4.51,8.14,10.28,12.13,15.37C480.41,500.45,480.39,499.61,480.4,498.77Z"/><path class="cls-4" d="M498.22,497.11,498,497c0,.12.08.23.13.35Z"/><path class="cls-4" d="M490.4,541.34c-4.9-2.21-9.43-7.15-13.18-11a138.09,138.09,0,0,1-9.89-11.59c-6.49-8.3-14.82-18.2-15.93-29-.39-3.78,2.6-7,6.13-8.16q-5.75-2.34-11.41-4.81c-5.38-2.35-10.56-4.94-15.75-7.62.24,9.08.73,18.15,1.42,27.2a7.4,7.4,0,0,1,6.16,7c.78,11.15,2.25,22.21,3,33.36.36,5.58.67,11.12,1.23,16.69.11,1,.23,2.07.36,3.11l.3.51c1.92,3.63,3.86,7.12,4.88,11.15,1,3.79,1.4,7.76,2.16,11.6a10.76,10.76,0,0,1,.17,2.81c6.54,14.25,15.34,27.36,27.33,37.76a16.7,16.7,0,0,0,12.82,4.43,16,16,0,0,0,4.43-1.16c5.21-2.2,10.45-8.32,9.71-14.44C501.6,587,500,564.68,499,542.32A13,13,0,0,1,490.4,541.34Z"/><path class="cls-4" d="M484.14,457.55c-6.79-5.53-13.51-11.47-19.85-17.51-6.06-5.76.15-17.26,8.39-14.41,8.81,3,15.27,9.4,22.72,14.7a43.42,43.42,0,0,0,10.69,5.51,340.93,340.93,0,0,0-8.65-104.76,128.43,128.43,0,0,0-4.84-17.94c-2.72-7.74-10.7-13.75-19.15-11.53a15.2,15.2,0,0,0-2.45-.95,12.11,12.11,0,0,0-8.85-6.23c-5.8-.69-10.61,2.67-12.49,8.16-6.88,20.08-10.72,40.69-13.59,61.64,2.05,8.37,4.2,17.09,2.55,25.35a7.54,7.54,0,0,1-6.08,5.93q-1.74,19.85-2.22,39.79A219.32,219.32,0,0,0,425,403.9a6.88,6.88,0,0,1-.67-.54c-9.35-8.8-12-24.51-13.55-36.68-.07-.56-.13-1.14-.19-1.72a158.38,158.38,0,0,0-9.62-16.22,8.26,8.26,0,0,1-2-2.9C384.75,326.05,366,310.17,342.28,301a12.73,12.73,0,0,0-3.32-.83,9,9,0,0,0-10.63-3.46c-18.59,6.52-37,13.49-52.42,26-15.88,12.89-26.36,31.58-31.38,51.2-.34,1.34-.67,2.67-1,4,7.85,3,15.1,7.34,23,10.56,9.43,3.86,21.54,6,31.76,10,8.59,3.31,17.25,7.63,24.15,13.88,6.19,2.72,11.1,8.64,15,13.93,4.66,6.3,10.73,15.93,8.08,24.05-1.65,5-6.42,6.37-10.95,4.45a14.37,14.37,0,0,1-4.35-3,23.59,23.59,0,0,1-10.43,6.48l-2.26.63c-2,9.3-7.31,17.73-18.17,17.51-5.56-.11-11.27-3.11-16.39-5s-11-3.51-15.88-6.19c-9.57-5.22-14.18-16.12-19.81-24.94-3.78-5.95-7.65-11.85-11.56-17.73-.71,5-1.42,10-2.16,14.94L228.21,473c-1.85,12.27-5.87,25.7,0,37.44,6.38,12.84,20.88,15.41,33.8,15q12.15-.4,24.3-.85.48,7.13.56,14.27a248.89,248.89,0,0,1-1.41,29.27q-.32,3.07-.74,6.15c-.05.33-.12.77-.21,1.38-.2,1.25-.39,2.49-.6,3.74-.79,4.74-1.95,9.41-2.69,14.16-1.07,6.83-1,13.81,2.88,19.86a25.06,25.06,0,0,0,5,5.7,39.23,39.23,0,0,0,10.91,6.1,137.26,137.26,0,0,0,58.24,9.37c20.56-1.19,39.57-8.23,50.66-26.56a75.39,75.39,0,0,0,8.73-23.25,9.47,9.47,0,0,1,0-8.71c.38-.8.74-1.62,1.08-2.44a13.34,13.34,0,0,1-.32-3.48c.22-5.89,1.56-11.8,2.26-17.66.63-5.24.89-10.44,1.16-15.71.56-11.14,1.47-22.19,1.36-33.36a6.62,6.62,0,0,1,5.43-7v-.08c.82-8.95,1.46-18,1.77-27.14-1.14-.59-2.28-1.17-3.42-1.77-6.36-3.3-13.07-5.75-19.53-8.85-8.85-4.24-2.51-18.61,6.61-15.68,7.15,2.3,14.05,5.14,21.29,7.18,6.6,1.86,13.14,3.6,19.65,5.8,13.61,4.58,27.07,9.72,40.49,14.81l7.46,2.81c.22-1.37.42-2.75.62-4.12a60.68,60.68,0,0,1-7.49-3.17C491.63,464,487.94,460.65,484.14,457.55Zm-229.5,33.76c-.58-.23-.64-.6,0,0Zm0,.07h0Zm63.72-8.94c0-9.7,7.13-18.4,17.2-18.27a12.94,12.94,0,0,1,9.51,4.14,26.17,26.17,0,0,1,5.72-4,30.38,30.38,0,0,1,21.87-2.3c11.61,3,15.08,17.95,6.94,26.29-6,6.13-13.92,8.73-21.85,11.38-7.59,2.53-15.9,4.89-23.88,2.69A21,21,0,0,1,318.36,482.44Zm61.46,53.23a15.84,15.84,0,0,1-1.15-1.17,79.47,79.47,0,0,1-11.47-2.29c-3.47-1.11-6.75-2.73-10.27-3.71-7.33-2-14.68-3.92-22.15-5.37-9.31-1.81-7.16-17.64,2.24-16.58,9.86,1.12,19.7,1.06,29.52,1.35-1.13-8.57,10.48-15.61,16.79-8.33a93.79,93.79,0,0,1,6,7.51,16.29,16.29,0,0,1,5.72,9.1,24.8,24.8,0,0,1,3.59,8.56C400.32,535.61,388.61,543.65,379.82,535.67Z"/><path class="cls-5" d="M403.46,350.39c2.32.95,4.17,2,6.85,2.29a72.32,72.32,0,0,0,.23,12.28c.06.58.12,1.16.19,1.72,1.5,12.17,4.2,27.88,13.55,36.68a6.88,6.88,0,0,0,.67.54,9.44,9.44,0,0,0,7.59,1.61,7.54,7.54,0,0,0,6.08-5.93c1.65-8.26-.5-17-2.55-25.35-.66-2.69-1.3-5.35-1.81-7.94a124.16,124.16,0,0,1-1.64-14.14,57.51,57.51,0,0,1,.05-7.31l.71-.65c2.83-2.78,4.61-7.88,3.1-11.76-1.13-2.91-2.58-5.78-5.55-7.21s-6.91-2.3-10.2-1.07a15.55,15.55,0,0,1-2.82,1.68c-2.65,2-5.34,4.25-7.73,5.86-1.45,1-3,1.71-4.51,2.62s-2.55,2.28-3.92,3.06a6.41,6.41,0,0,0-2.85,8.47,8.55,8.55,0,0,0,4.56,4.55Z"/><path class="cls-5" d="M425.27,589.38a79.75,79.75,0,0,1,13.23,1.73A9.18,9.18,0,0,0,450,582.59a10.76,10.76,0,0,0-.17-2.81c-.76-3.84-1.2-7.81-2.16-11.6-1-4-3-7.52-4.88-11.15l-.3-.51c-.13-1-.25-2.08-.36-3.11-.56-5.57-.87-11.11-1.23-16.69-.71-11.15-2.18-22.21-3-33.36a7.4,7.4,0,0,0-6.16-7,8.31,8.31,0,0,0-3.22,0,6.62,6.62,0,0,0-5.43,7c.11,11.17-.8,22.22-1.36,33.36-.27,5.27-.53,10.47-1.16,15.71-.7,5.86-2,11.77-2.26,17.66a13.34,13.34,0,0,0,.32,3.48c-.34.82-.7,1.64-1.08,2.44a9.47,9.47,0,0,0,0,8.71A9.11,9.11,0,0,0,425.27,589.38Z"/><path class="cls-6" d="M381.8,159l-.78-.16v0C381.94,159.12,382,159.12,381.8,159Z"/><path class="cls-6" d="M397.28,167a.64.64,0,0,0-.06-.18l-.05-.05Z"/><path class="cls-6" d="M397.17,166.81v0l-.52-.49C396.77,166.43,396.94,166.6,397.17,166.81Z"/><path class="cls-7" d="M427.24,306.13c-1.42-3.65-2.74-7.32-4-11v-.34a98.48,98.48,0,0,0-1.7-16.82,11.67,11.67,0,0,0,3.31-4.17,55.42,55.42,0,0,0,4.33-14.45,13.85,13.85,0,0,0,9.81-9.62,19.28,19.28,0,0,0,.73-5.65c0-.63-.58-4.35-.55-4.32a33.48,33.48,0,0,0-2.09-7.2c6.32-5.64,10.46-14.35,7.72-22.84a20.12,20.12,0,0,0-14.75-13.79,64,64,0,0,0-6.78-15.51c-10.25,8.49-26.59,6.46-37.47-.88a48,48,0,0,1-1.57,11.92c-1.19,4.41-5.11,8.87-9.76,9.76l-.41.08a6.56,6.56,0,0,1-3.31.42c-4.17-.54-7.45-1.87-9.91-4.39-2.75.92-5.59,1.59-8.36,2.42a30.21,30.21,0,0,1-11,1.46,75.79,75.79,0,0,0,1.92,15.38c2.67,11.64,6.43,23.09,9.89,34.52,1.51,5,3,10,4.82,14.89.5,1.35,1,2.69,1.56,4,.13.3.45,1,.59,1.33,1.48,3.18,3.11,6.27,3.59,9.78.58,4.22.28,8-1.49,11.33,1.61,5.51,3.51,11,6.78,15.59a42.24,42.24,0,0,0,19.94,15.48,32.62,32.62,0,0,0,14.32,2,54.1,54.1,0,0,0,7.93,1.43,12.47,12.47,0,0,0,6.58-1.18,15.55,15.55,0,0,0,2.82-1.68C426.26,320.05,429.67,312.4,427.24,306.13Z"/><path class="cls-6" d="M397.5,167.1c-.1-.08-.19-.18-.28-.26v0Z"/><path class="cls-6" d="M397,166.44l.15.34.06.06A2.52,2.52,0,0,0,397,166.44Z"/><path class="cls-7" d="M357.75,499.72c7.93-2.65,15.86-5.25,21.85-11.38,8.14-8.34,4.67-23.28-6.94-26.29a30.38,30.38,0,0,0-21.87,2.3,26.17,26.17,0,0,0-5.72,4,12.94,12.94,0,0,0-9.51-4.14c-10.07-.13-17.24,8.57-17.2,18.27a21,21,0,0,0,15.51,20C341.85,504.61,350.16,502.25,357.75,499.72Zm7.63-6.81c2.26-.87-.93.65,0,0Z"/><path class="cls-8" d="M363.85,281.14c-.48-3.51-2.11-6.6-3.59-9.78-.14-.3-.46-1-.59-1.33-.54-1.34-1.06-2.68-1.56-4-1.81-4.89-3.31-9.9-4.82-14.89-3.46-11.43-7.22-22.88-9.89-34.52a75.79,75.79,0,0,1-1.92-15.38,30.21,30.21,0,0,0,11-1.46c2.77-.83,5.61-1.5,8.36-2.42,2.46,2.52,5.74,3.85,9.91,4.39a6.56,6.56,0,0,0,3.31-.42l.41-.08c4.65-.89,8.57-5.35,9.76-9.76a48,48,0,0,0,1.57-11.92c10.88,7.34,27.22,9.37,37.47.88a23,23,0,0,0,5-5.82c9.36-15.46-2.89-31.18-15.44-39.51-9.87-6.55-22.2-9.72-34-10-24.92-.51-46.7,13.43-61.28,32.79s-20.07,44.41-19.59,68.2c.28,14.29,2.55,29.94,11.15,41.77,5.15,7.08,12.69,13.64,21.2,16.25a38.43,38.43,0,0,0,11.19,14.17c4.72,3.56,12.64,2.18,16.87-1.19a15.07,15.07,0,0,0,3.95-4.64C364.13,289.17,364.43,285.36,363.85,281.14Zm42.42-130.32c.5.07.71.16,0,0Zm-.24,0,.13,0C408.47,151.44,406.89,151.46,406,150.79Zm-.06-.15Zm-9,15.8a2.52,2.52,0,0,1,.21.4c.09.08.18.18.28.26l-.28-.24a.64.64,0,0,1,.06.18l-.11-.23c-.23-.21-.4-.38-.53-.52l.52.49ZM381.8,159c.24.08.14.08-.77-.14v0Z"/><path class="cls-8" d="M397.22,166.86v0l-.06-.06v0Z"/><path class="cls-6" d="M439.17,239.76c.08.42.15.84.23,1.28C439.24,240.13,439.18,239.77,439.17,239.76Z"/><path class="cls-9" d="M795.59,577.93c6.62-14.66,8.7-31.16,11.79-46.83,12.53-63.36,22.5-131.63,1.85-194.45-8.69-26.44-21.89-52.14-40.7-72.85a176.07,176.07,0,0,0-31.15-27c-8.64-5.92-17.63-9.32-27.84-5-7.93,3.35-13.84,11-18.81,17.77-8.5,11.53-13.62,25.52-17.77,39.12-4.71,15.44-8.59,31.14-12.77,46.74q-9.83,36.63-19,73.4a16.5,16.5,0,0,0-2,4.47c-3.77,13.77-6.9,27.74-9.39,41.82-.5,2-1,4.07-1.49,6.1a12.87,12.87,0,0,0-.36,3.67c13.28,2.61,26.47,5.58,39.56,9,4.68,1.22,9.17,5.35,10.2,10.19a101.07,101.07,0,0,0,3.45,12.33c.38.47.77.94,1.12,1.44a11.49,11.49,0,0,1,2.08,5.85c.25.48.51,1,.81,1.52,2.32,4.31,5.43,8.92,5.43,14,0,5.36-3.18,10.64-8.37,12.32-10.92,3.54-18.44-6.41-23.39-14.66-.82-.36-1.65-.74-2.53-1.17l-1-.52-1-.37c-1.47-.56-2.94-1.09-4.43-1.59a155.14,155.14,0,0,0-16.85-4.42c-3.13-.66-6.28-1.26-9.42-1.83-.18,2.82-.35,5.63-.48,8.45-.73,16.12-1.23,32.71.92,48.74,2.32,17.28,11.22,32,28,38a12,12,0,0,1,6-3.16c32.46-6.59,65.64-10.74,98.63-13.53,8.6-.73,16.9,1,23.13,7.39.56.57,1.1,1.18,1.63,1.8A38.79,38.79,0,0,0,795.59,577.93Z"/><path class="cls-10" d="M756.74,585.39c-33,2.79-66.17,6.94-98.63,13.53a12,12,0,0,0-6,3.16c-3.86,3.71-5.29,9.79-4.32,15,2,10.76,0,22.8-1.15,33.8-1.28,12.07-2.78,24.12-4.2,36.18q-4.26,36.17-8.37,72.35a9.17,9.17,0,0,0,2.22,7.32,15.56,15.56,0,0,0,3.39,9.27A16.46,16.46,0,0,0,653,782.7l86.71-1.6c14.94-.28,31.41,1.09,42.07-11.51,4.45-5.26,7.21-11.34,10-17.57,3.27-7.24,6.38-14.59,9-22.07,9.68-27.14,16.94-56.61,7.65-84.89-4.29-13-10.83-25.18-18-36.81-2.77-4.47-5.47-9.55-8.92-13.67-.53-.62-1.07-1.23-1.63-1.8C773.64,586.42,765.34,584.66,756.74,585.39Z"/><path class="cls-11" d="M680.78,123.21c-.07-.12-.06-.1,0,0Z"/><path class="cls-11" d="M678.34,123.09h-.06l.28,0Z"/><path class="cls-12" d="M656.49,249.58l.07-.05"/><path class="cls-11" d="M667.16,137.53h0Z"/><path class="cls-11" d="M681.43,124.47c-.12-.24-.23-.44-.31-.61l0,0c.15.28.29.55.38.7Z"/><path class="cls-11" d="M686.42,170a6.4,6.4,0,0,0-.08,1C686.45,170.92,686.45,170.5,686.42,170Z"/><path class="cls-11" d="M709.61,199.64a9.8,9.8,0,0,1-4.88-1.56l-.8-.62c-.25-.13-.49-.27-.74-.42a17,17,0,0,1-3.66-3.22,17.53,17.53,0,0,1-13-6.6c-4.42-5.72-3.93-11.84-1.27-18.08-.86,2,.31-1.31.42-1.68s.3-1,.44-1.55c0-.51-.07-1-.12-1.54,0-.15-.12-1.1-.19-1.71-.15-.81-.46-2.63-.45-2.56-.2-1-.43-2.06-.68-3.07-.55-2.29-1.27-4.5-2-6.72a2.48,2.48,0,0,1-.14-.47l-.34-.63c-.48-.9-.94-1.82-1.46-2.7-.1-.19-.95-1.48-1.36-2.14-.37-.44-1-1.26-1.16-1.38-.65-.7-1.34-1.34-2-2l-.4-.23c-1-.54-1.91-1.12-2.92-1.61-.17-.08-.95-.38-1.42-.57l-1.62-.49c-.53-.14-1.07-.23-1.61-.34.62.18.78.3-.93-.23l-.49-.06c-.78,0-1.54,0-2.31,0,.75,0-.61.18-.79,0l-1.05.3c-.64.35-1.26.72-1.87,1.12-.23.14-1.14.95-1.34,1.11a18,18,0,0,0-4.4,8.26c-.37,2-.27,4.2-.52,6.26a15.32,15.32,0,0,1-.41,2.06,16.68,16.68,0,0,1-.34,6,17.51,17.51,0,0,1-1.76,4.84,9.53,9.53,0,0,1-4.15,3.83c-10.65,4.7-14-6.19-18.33-13.46-.2-.16-.42-.32-.62-.49q-1.87-1.62-.4-.48c-2-1.69-4.2-3.08-6.09-4.91a13.47,13.47,0,0,1-4-8.47l-.26-.18a25.8,25.8,0,0,1-7.81-9.26c-.19-.38-.93-1.47-1.43-2.41a12.07,12.07,0,0,1-6-4.66c-4.78,3.21-9.27,6.94-14.06,10.09-1.57,13.12,6,25.22,12,37.24,2.39,4.82,2.7,11.55,1.61,16.24-1.15,4.95-2,9.67-.6,14.7a20.29,20.29,0,0,0,10.49,12c1,.53,6.33,3.2,3.5,1.52,1,.58,2,1.09,3,1.73-.51-.26.62,1,1.18,1.55.11.22.26.49.37.68a3.56,3.56,0,0,0,.21.7s.17.67.28,1.05.08.62.08.68c0,1.91-.19,3.82-.22,5.74-.06,5,.78,10.2,3.43,14.57,6.15,10.19,18.32,12.53,28.33,6.81,1.35-.77,2.59-1.71,3.9-2.54l.3-.2c-.31,0-1.16-1.94.1-.17a.5.5,0,0,1,0,.12l.08-.05.05.07c.31.44.82.25,1.89.9,2,1.18,3.89,2.42,5.77,3.74,7.12,5,16.07.7,20.53-5.38-.89,1.22,1.84-2.21,1.8-2.16,1.1-1.24,2.25-2.45,3.42-3.62,2.17-2.15,4.47-4.18,6.83-6.12,2-1.59,2.88-2.25,5.62-4.14s5.55-3.75,8.35-5.59c5.62-3.71,9.43-10.92,7.22-17.74q-1.64-5-3.32-10.05a9.55,9.55,0,0,1-1.7.25A6.66,6.66,0,0,1,709.61,199.64Z"/><path class="cls-11" d="M667.2,137.55c.3.09.61.16.92.22A6.91,6.91,0,0,0,667.2,137.55Z"/><path class="cls-11" d="M682.67,126.79c-.07-.13-.14-.27-.22-.4.06.12.14.25.22.4Z"/><path class="cls-11" d="M676.22,141.09c.46.36.54.34,0,0Z"/><path class="cls-11" d="M649.93,513.17c1.49.5,3,1,4.43,1.59l1,.37,1,.52c.88.43,1.71.81,2.53,1.17,5,8.25,12.47,18.2,23.39,14.66,5.19-1.68,8.37-7,8.37-12.32,0-5.06-3.11-9.67-5.43-14-.3-.54-.56-1-.81-1.52a11.49,11.49,0,0,0-2.08-5.85c-.35-.5-.74-1-1.12-1.44A101.07,101.07,0,0,1,677.8,484c-1-4.84-5.52-9-10.2-10.19-13.09-3.42-26.28-6.39-39.56-9l-3.2-.65c-7-1.35-14.06-2.66-21.12-3.76-7.64-1.19-14.9-2-22.1.55q-1.56-1.71-3.24-3.35c-.06-.79-.13-1.56-.2-2.3-.83-8.25-4.21-13.55-11.29-17.69-11.16-6.53-20.83-15.62-28.83-25.7-5.18-6.52-16.6,2.18-11.63,9a144.76,144.76,0,0,0,11,13.31,7.34,7.34,0,0,0,1.71,5.26q2.57,3.13,5.12,6.36a10.68,10.68,0,0,0-2.31,4.64,23.28,23.28,0,0,0-.46,2.69c-7.44-1.41-14.9-2.69-22.36-4.05a81.07,81.07,0,0,1-13-3.29,43.42,43.42,0,0,1-10.69-5.51c-7.45-5.3-13.91-11.66-22.72-14.7-8.24-2.85-14.45,8.65-8.39,14.41,6.34,6,13.06,12,19.85,17.51,3.8,3.1,7.49,6.4,11.89,8.63a60.68,60.68,0,0,0,7.49,3.17c2.49.87,5,1.61,7.58,2.28,10.47,2.76,20.95,5.53,31.53,7.88,5.06,1.13,10.78,2.9,16.54,4,1.05.79,2.11,1.54,3.15,2.25A113.39,113.39,0,0,0,597,501.61c8.81,2.26,17.78,3.69,26.71,5.31,3.14.57,6.29,1.17,9.42,1.83A155.14,155.14,0,0,1,649.93,513.17Z"/><path class="cls-11" d="M570.47,522.31c-3.85-1.28-7.68-2.59-11.52-3.89-1.82.51-3.65,1-5.48,1.41a79.5,79.5,0,0,1-21.55,1.56,77.17,77.17,0,0,1-10-1.3c1-2.64,2.21-5.28,3.27-7.68a10.05,10.05,0,0,0,.84-5.34q-7.26-2.55-14.5-5.14a28.72,28.72,0,0,0-8.09,11.22l-.16-.37c-2.1-5-3.22-10.32-5.07-15.39-.05-.12-.09-.23-.13-.35-3.29-1.2-6.59-2.38-9.88-3.6l-4.44-1.65a8.27,8.27,0,0,0-3.31,7c0,.84,0,1.68.06,2.53-4-5.09-7.64-10.86-12.13-15.37-3.61-1.41-7.22-2.85-10.8-4.32-3.53,1.15-6.52,4.38-6.13,8.16,1.11,10.8,9.44,20.7,15.93,29a138.09,138.09,0,0,0,9.89,11.59c3.75,3.83,8.28,8.77,13.18,11a13,13,0,0,0,8.62,1,10.09,10.09,0,0,0,4.38-2.5c7.23,4.78,16.53,5.89,25,6.91a99.22,99.22,0,0,0,25-.24c8.25-1.09,16.44-2.45,24.62-3.94a61.54,61.54,0,0,1,9.69-1.24c1.8-.07,3.6-.06,5.4,0l3.6.2,1.85.15c9.18,1.18,17.88-3.3,19.23-13.35s-6.11-17.14-15.68-18.08a59.9,59.9,0,0,0-17.42,1.08,11,11,0,0,1-.4,3.16C582.71,520.1,576.21,524.22,570.47,522.31Z"/><path class="cls-13" d="M455,455.85c-6.51-2.2-13.05-3.94-19.65-5.8-7.24-2-14.14-4.88-21.29-7.18-9.12-2.93-15.46,11.44-6.61,15.68,6.46,3.1,13.17,5.55,19.53,8.85,1.14.6,2.28,1.18,3.42,1.77h0c5.19,2.68,10.37,5.27,15.75,7.62q5.67,2.47,11.41,4.81c3.58,1.47,7.19,2.91,10.8,4.32q7.68,3,15.38,5.86l4.44,1.65c3.29,1.22,6.59,2.4,9.88,3.6l.19.07q6.63,2.43,13.26,4.82,7.24,2.6,14.5,5.14,16.44,5.79,33,11.35c3.84,1.3,7.67,2.61,11.52,3.89,5.74,1.91,12.24-2.21,13.78-7.83a11,11,0,0,0,.4-3.16c-.08-4.87-3.51-8.9-8.22-10.62q-36.85-13.41-73.53-27.23l-7.46-2.81C482,465.57,468.56,460.43,455,455.85Z"/><path class="cls-13" d="M267.08,465.21c4.91,2.68,10.64,4.29,15.88,6.19s10.83,4.86,16.39,5c10.86.22,16.13-8.21,18.17-17.51l2.26-.63a23.59,23.59,0,0,0,10.43-6.48,14.37,14.37,0,0,0,4.35,3c4.53,1.92,9.3.56,10.95-4.45,2.65-8.12-3.42-17.75-8.08-24.05-3.91-5.29-8.82-11.21-15-13.93-6.9-6.25-15.56-10.57-24.15-13.88-10.22-3.93-22.33-6.1-31.76-10-7.87-3.22-15.12-7.54-23-10.56a56.44,56.44,0,0,0-9.49-2.79,16.56,16.56,0,0,0-9.37.82c-7.24-5.62-18.75,1.88-13.41,10.78,5.55,9.26,12.42,17.9,18.47,26.88q3,4.45,6,8.93c3.91,5.88,7.78,11.78,11.56,17.73C252.9,449.09,257.51,460,267.08,465.21Zm50.78-8c.24-1.19.77-.76,0,0Zm-2.48,2.24c-.31.22-.53.32-.57.19A3.33,3.33,0,0,1,315.38,459.46ZM313,433.76a5.81,5.81,0,0,1-.62.22C312.73,433.67,313,433.52,313,433.76Zm-49.29-12.18,2.71,1.38a13.86,13.86,0,0,0-1.42,1.16l-1.93-2.87Z"/><path class="cls-13" d="M395,516.18a16.29,16.29,0,0,0-5.72-9.1,93.79,93.79,0,0,0-6-7.51c-6.31-7.28-17.92-.24-16.79,8.33-9.82-.29-19.66-.23-29.52-1.35-9.4-1.06-11.55,14.77-2.24,16.58,7.47,1.45,14.82,3.35,22.15,5.37,3.52,1,6.8,2.6,10.27,3.71a79.47,79.47,0,0,0,11.47,2.29,15.84,15.84,0,0,0,1.15,1.17c8.79,8,20.5-.06,18.78-10.93A24.8,24.8,0,0,0,395,516.18Z"/><path class="cls-14" d="M584.55,139.6c1.42-.77,2.8-1.63,4.15-2.52,4.79-3.15,9.28-6.88,14.06-10.09a12.07,12.07,0,0,0,6,4.66c.5.94,1.24,2,1.43,2.41a25.8,25.8,0,0,0,7.81,9.26l.26.18a13.47,13.47,0,0,0,4,8.47c1.89,1.83,4.1,3.22,6.09,4.91q-1.47-1.14.4.48c.2.17.42.33.62.49,4.37,7.27,7.68,18.16,18.33,13.46a9.53,9.53,0,0,0,4.15-3.83,17.51,17.51,0,0,0,1.76-4.84,16.68,16.68,0,0,0,.34-6,15.32,15.32,0,0,0,.41-2.06c.25-2.06.15-4.21.52-6.26a18,18,0,0,1,4.4-8.26c.2-.16,1.11-1,1.34-1.11.61-.4,1.23-.77,1.87-1.12l1.05-.3c.18.14,1.54,0,.79,0,.77,0,1.53,0,2.31,0l.49.06h0l0,0a6.91,6.91,0,0,1,.92.22c.54.11,1.08.2,1.61.34l1.62.49c.47.19,1.25.49,1.42.57,1,.49,1.94,1.07,2.92,1.61l.4.23c.7.64,1.39,1.28,2,2,.12.12.79.94,1.16,1.38.41.66,1.26,1.95,1.36,2.14.52.88,1,1.8,1.46,2.7l.34.63a2.48,2.48,0,0,0,.14.47c.77,2.22,1.49,4.43,2,6.72.25,1,.48,2,.68,3.07,0-.07.3,1.75.45,2.56.07.61.18,1.56.19,1.71,0,.51.08,1,.12,1.54-.14.52-.28,1-.44,1.55s-1.28,3.7-.42,1.68c-2.66,6.24-3.15,12.36,1.27,18.08a17.53,17.53,0,0,0,13,6.6,17,17,0,0,0,3.66,3.22c.25.15.49.29.74.42l.8.62a9.8,9.8,0,0,0,4.88,1.56,6.66,6.66,0,0,0,3.49,0,9.55,9.55,0,0,0,1.7-.25,9.78,9.78,0,0,0,3.18-1.31,15.67,15.67,0,0,0,4.71-4.71,9.77,9.77,0,0,0,1.56-4.88,9.9,9.9,0,0,0-.24-5.23c-.08-.25-.15-.5-.23-.74a6.94,6.94,0,0,0-.91-2.81,10.27,10.27,0,0,0-2.86-4.46L719,173.93a4.11,4.11,0,0,0-.3-.29,31.09,31.09,0,0,0,.16-4.57c0-.48,0-1-.07-1.46a81.82,81.82,0,0,0,.7-23.69c-1.4-12.46-3.21-26.52-9.91-37.43a35.75,35.75,0,0,0-9.42-10.32C698.66,85.23,686.2,78,676.36,75.55c-20.46-5.08-39.09,4.09-56.43,13.93a256.33,256.33,0,0,0-24.61,16c-8.41,6.15-17.76,12.49-23.91,21C565.46,134.72,576.75,143.83,584.55,139.6ZM686.42,170c0,.49,0,.91-.08,1A6.4,6.4,0,0,1,686.42,170Zm-3.75-43.22h0c-.08-.15-.16-.28-.22-.4C682.53,126.52,682.6,126.66,682.67,126.79Zm-1.55-2.93c.08.17.19.37.31.61l0,0c-.09-.15-.23-.42-.38-.7Zm-.34-.65h0C680.72,123.11,680.71,123.09,680.78,123.21Zm-2.44-.12h.22l-.28,0Zm-2.12,18c.54.34.46.36,0,0Z"/><path class="cls-14" d="M668.12,137.77c-.31-.06-.62-.13-.92-.22h0C668.9,138.07,668.74,138,668.12,137.77Z"/><path class="cls-15" d="M1238.51,98.8c-1.47-7.42-5.07-14.77-8.45-21.41-7-13.84-19-24-31.45-32.71-5.93-4.14-13.37-6.63-20-9.12a58.87,58.87,0,0,0-12.1-3.08c-1-.15-1.92-.27-2.87-.4a224.45,224.45,0,0,0-28.88-7.19c-42.39-8-86.16-11-129.26-10q-30.07.71-60,4.23c-21.37,2.5-41.76,5.4-61.94,13-13.63,5.13-26.91,13.51-36.42,24.74s-17.53,23.68-19.9,38.43c-2.48,15.37-2.92,31.1,2.75,46a132.19,132.19,0,0,0,6.86,15.15A130.43,130.43,0,0,1,816.18,176a82.78,82.78,0,0,1-12.65,5.52,250.17,250.17,0,0,1-37.75,9.43c-7.93,1.31-6.13,14.64,1.91,14.09,13.69-.95,27.55-2.32,41.09-4.47,14.16-2.24,27.79-2.1,40.91-5.5a93.45,93.45,0,0,0,13.19-4.47c11.31,10.81,24.74,19.81,38,27.66a324.5,324.5,0,0,0,55.52,25.59,247.64,247.64,0,0,0,47.68,11.93c20.73,3.06,41.31,5.46,62.28,4.23a319.32,319.32,0,0,0,62.23-9.49A228.63,228.63,0,0,0,1152,243c12-4.55,24.38-9.19,35.51-15.66,30.59-17.8,52.12-49.11,52.84-85.08a61.82,61.82,0,0,0-.67-9.65c.46-3.32.79-6.66,1.11-10C1241.58,114.76,1240,106.48,1238.51,98.8Z"/><path class="cls-16" d="M212.73,244.54c8.76,6.39,18.56,11.11,28.64,15.06a95.75,95.75,0,0,0,19,5.11c2.51,1.19,5,2.35,7.51,3.48a7.61,7.61,0,0,0,10.52-5.26c1.82-3.72.61-9.33-4.19-10.63-8.6-2.34-16.71-6.71-24.06-11.72a67.71,67.71,0,0,1-9.11-7.73l-.6-.59c-1.2-1.27-2.38-2.59-3.49-4a53.82,53.82,0,0,1-5.92-8.88,19.14,19.14,0,0,1-1.63-4.31c-.06-.21-.2-.89-.37-1.68,15.5-5.73,29.58-14.58,40.37-28.2a107.68,107.68,0,0,0,17.34-29.64c3.49-8.6,4.94-18,5.29-27.22a69.4,69.4,0,0,0-.29-9.11,70.12,70.12,0,0,0,.44-21,61.62,61.62,0,0,0-28.89-45.06c-8.84-5.56-19.47-9.09-29.78-10.82a301.83,301.83,0,0,0-38.66-4.09c-3-.11-6.07-.08-9.11,0a303.86,303.86,0,0,0-35.32-2.15c-27.53,0-55.9,2.28-81.13,14.09-13.69,6.41-25.53,17.41-32.23,31a96,96,0,0,0-9.23,53.87c2,18,3.93,36.12,12.24,52.49,9,17.66,27.07,30.38,46.27,34.45,16,3.4,31.79,2.86,48,2.42,14.34-.4,28.68-.78,43-1.58,4.53-.25,9.11-.62,13.68-1.12C196.55,231.11,203.86,238.06,212.73,244.54Z"/></g><g id="line_art" data-name="line art"><path class="cls-17" d="M1239.22,766.76H779.72a2,2,0,0,1-2-2.39c1.39-7,5.77-15.73,10.85-25.79,8.32-16.47,18.67-37,22.64-62.33,6.21-39.63-25.69-59.16-27-60a2,2,0,0,1-1-1.58q-.12-1.77-.45-3.75c-25,1.32-105,5.8-134.61,10.52a34,34,0,0,1-3.71,9.1c-5.8,10-11.68,33.24-15.75,62.1-3.89,27.57-5.42,55.13-4,71.93a2,2,0,0,1-.52,1.52,2,2,0,0,1-1.48.65h-135a2,2,0,0,1-1.94-2.46c.21-.92,21.3-92.56,5.49-136.91-48.65-7.25-51-131-51-136.31a2,2,0,0,1,.67-1.51A54.81,54.81,0,0,0,448,481c-.08-.44-.15-.79-.2-1.06a2,2,0,0,1,2.38-2.3l1-1.62c-2.13-2.58-4-4.33-5.07-4.43a1.28,1.28,0,0,0-.7,0c-.3.34-.15,2.18.44,3.76a2,2,0,0,1-2.7,2.52l-6.42-2.93c-.08,9.58-.42,15.61-.43,15.73a1.07,1.07,0,0,1,0,.25A150.72,150.72,0,0,1,421.69,534a528.79,528.79,0,0,1-8,59.47c-8,40.65-40.18,38.06-59.39,36.52-2-.16-3.94-.31-5.68-.41-16.64-.9-57.81-11.14-67.41-13.57-16.32,67-5,147.68-4.89,148.49a2,2,0,0,1-.47,1.6,2,2,0,0,1-1.51.69H32.18a2,2,0,1,1,0-4H272.06c-1.74-13.86-9.86-87.88,5.76-149.71a2.05,2.05,0,0,1,.91-1.23,2,2,0,0,1,1.52-.21c.51.13,50.49,13,68.58,13.95,1.79.09,3.73.25,5.79.42,19,1.52,47.8,3.84,55.14-33.31,1.39-7,4.84-25.87,7.16-50.37a124.46,124.46,0,0,1-17.2,21.79c-15,15.15-34.16,26.71-56.92,34.36-38.63,13-74.88,10.13-75.24,10.1a2,2,0,0,1-1.58-1,2,2,0,0,1,0-1.88c16.28-32.26,15.13-58.9,11.71-74.84-16.93,0-33.5-.22-38.16-.77-9.78-1.15-21.69-18.92-24.62-26.24-2.63-6.56.62-16.62,3.48-25.49.73-2.26,1.42-4.4,2-6.29,1.42-5.13,1.3-13,1.18-20.54a140,140,0,0,1,.25-14.61c.54-5.6,2.42-14.24,4.11-21.25l-25.23-34.38a2.39,2.39,0,0,1-.13-.21c-.66-1.19-3.82-7.3-1-10.86,1.86-2.31,5.39-2.65,10.78-1l16.95,5a2,2,0,0,1,1.43,1.92v7a2,2,0,0,1-2.5,1.93l-9.85-2.55,16,20.9a2,2,0,0,1,.34,1.74c0,.1-1.14,4.21-2.48,9.68l30.17,41.11a2,2,0,0,1,0,2.32c-.48.7-1,1.47-1.62,2.3a15.72,15.72,0,0,1,6.44,3c1.62,1.15,2.46,1.7,3.85,1.56,3.09-.28,5.9,1.06,8.87,2.47,3.25,1.54,6.92,3.28,11.91,3.53,10,.5,21.55,2,21.66,2a2,2,0,0,1,1.66,2.57c-3.89,12.62,2.33,34.37,13,45.64,10,10.5,21.22.35,21.69-.09a2,2,0,0,1,2-.43l40.91,13.36c2.3.52,6.24,1.08,7.5-.74,2.32-3.34-2.52-13.84-6.71-20.23l-10.94-16.41c-4.49,5.06-9.86,9.65-13,10.28-3.72.74-35.86,3.94-44-1.28-5.73-3.69-8.52-16.47-9-24.17s1.23-9.08,1.79-9.55c1-.84,1.3-4.55,1.49-7,.26-3.33.46-5.95,1.88-7.37,2-2,8.27-5.23,10.1-6.16l4.21-5.63a2.1,2.1,0,0,1,1.12-.74c3.19-.79,7.56.95,9.36,5.74,1.41,3.76-2.35,8.8-7,14.51-.7.86-1.38,1.69-1.8,2.26,1,.21,3.2.31,7.05-.52,4.56-1,10.29-7.24,13-10.63l-21.23-32.32-.06-.1c-11-19.32-25.69-25.6-26.89-26.09l-72.89-19.47a2,2,0,0,1-.63-3.57c.42-.59,3.12-5.2,5.15-30,2.56-31.16,17.82-40.66,18.47-41.05C264,300,311.08,281.24,317,278.91q-2.25-2-4.4-4.21c-13.93-14.68-20.1-35.64-18.33-62.28,1.8-27.15,9.53-63.73,36.15-83.88,14.37-10.88,32.91-15.26,49.6-11.72,27.84,5.9,45.75,16.33,53.25,31a33.68,33.68,0,0,1,1.57,27.42,2,2,0,0,1-1,1,57.74,57.74,0,0,1-5.86,2.15l-.15.7c1.52,7.33,14.66,21.09,19.68,25.85a2,2,0,0,1,.58,1c1,4.68-1.72,7.05-4.15,9.14-.63.54-1.28,1.1-1.89,1.7-1.81,1.82-1.55,6.59-1.3,8.31,2.86,9.7,2.59,17.68-.83,23.73a18.4,18.4,0,0,1-10.26,8.49c-19,7.83-35,2.35-49.65-3.95-9.34-4-14.92-10.33-19-21.65-3.33.37-10-.28-14.69-10-4.11-8.51-5.93-20.44-1.46-26.74,1.54-2.17,4.52-4.61,10-4,4.1.47,5.87,2.81,7.3,4.7s2.87,3.78,7.25,4.08a4.15,4.15,0,0,0,3.36-1.06c3.23-3.06,3.1-12.05,3-17.42-.09-6,1.51-18.63,3.3-26.08a2,2,0,0,1,3.92.17l3.44,23.31c5,.42,23.1.55,37.92-3.47.67-5.43,1.05-16.59-4.86-26.11-4.81-7.74-12.85-12.94-23.89-15.45-31.17-7.07-52.94-3.1-64.7,11.8C317,163.14,313,208.59,347.52,278.67q3.39,6.88,7,12.84c2.75.47,5.11.73,6.91.87-4.56-8.7-4.23-20.81-4.21-21.39a2,2,0,0,1,3.85-.69A338.24,338.24,0,0,0,392,325.83,31.61,31.61,0,0,0,405.81,327c9.8-1.44,17.59-8.13,18.94-16.26,3.19-19.14-7-24.67-7.43-24.89a2.07,2.07,0,0,1-.86-.85c-.29-.54-6.9-13.33.32-20.82a2,2,0,0,1,3.38,1.87c-.11.49-2.79,12.31,11.22,17.12,6.27,2.16,12.9,18.34,1.13,128.06q1.68,11,2.71,23.42c.39,4.74.68,9.37.9,13.81l1.29.11a2.42,2.42,0,0,1,.45.1L459.65,456c.53-1.82,1-3.72,1.48-5.69-11.91-6-18-9.61-16.84-13.73,1.24-4.54,7.64-5.39,12.6-5.36-1.6-2-3-4.33-3.22-6.35a4.23,4.23,0,0,1,1.14-3.68c2.05-2,5.63-1.23,8.75.14a10.25,10.25,0,0,1-.18-4.18,137.73,137.73,0,0,0-3.11-20.1,2.09,2.09,0,0,1,0-.66l8.86-81.22-14.9-8.85a2,2,0,0,1,.39-3.61l8.54-2.85c-2.44-1.92-6.25-4.8-10.54-7.61-.31,15.4,3.17,52.8,7.62,87.6a2,2,0,0,1-.57,1.67A2,2,0,0,1,458,382c-3.7-.46-6.64-10.65-8.74-30.27-3-27.55-12.86-68.33-13-68.74a2,2,0,0,1,2.55-2.38,56.91,56.91,0,0,1,10.4,4.78c.62-2.94,1.57-3.29,2.41-3.61,1-.39,2.6-.33,4.25,2.12,1.71,1.93,19.93,10.65,26,11.12,7.15.55,23.77,8.45,24.34,19.39.64,12,9,114.58,12.21,120.56,1,1.51,6,5.92,13.72,11.19h.16c5.37,0,10.2-.44,11.66-1.23.22-2.12-4.59-9.92-8.45-12.82-3-2.27-11.86-10.3-12.5-17a6.92,6.92,0,0,1,1.72-5.42A5.52,5.52,0,0,1,529.4,408c7.5.56,19,13.73,20.49,16,1.62,2.42,10,8.22,17.12,11.27,4.41,1.89,6.79,6.88,9.09,11.71,1.79,3.77,3.65,7.67,6.26,9.48,3.14,2.17,15,4.65,33.06,7,2.8-14.53,8.41-42.92,11.39-53,1.49-5,7.08-19.13,13.56-35.45,10.57-26.64,25-63.12,25.36-70.07.19-4.4-1.84-10.9-3.8-17.19-3.14-10-6.1-19.53.16-21.62,7.35-2.44,20.17,12.62,25.42,19.32,6.42-10.63,31.63-49.94,57.42-56.84-4.86-3.16-9.08-5.69-12.14-7.32a22.85,22.85,0,0,1-4.78-3.49c-16,7.18-42.53,21.58-58.16,43.39a2,2,0,0,1-1.8.83,2,2,0,0,1-1.63-1.13c-1.52-3.16-6.78-11.36-12.7-11.36-2.69,0-5.25,2.11-8.21,4.55-4.8,4-10.78,8.89-19.92,5.84-11.27-3.75-10.42-10.2-9.86-14.47a10.09,10.09,0,0,0,.08-3.85c-1-3.3-5.73-2.6-5.78-2.6a2,2,0,0,1-2-.87c-.3-.45-2.45-3.82-2-7.19a28.08,28.08,0,0,1-4.77-1.63,2,2,0,0,1-.94-2.57c.74-1.75,1-3.76.7-4.19,0,0-.12,0-.37,0a23.48,23.48,0,0,0-3.45.33c-2.81.43-5.72.86-8.85-1.82a2,2,0,0,1-.65-1.95c2.78-12.5,4.32-27.61,2-30.23-1.26-1.4-2.57-2.6-3.83-3.76-3.18-2.91-6.19-5.67-6.19-10.07a63.84,63.84,0,0,0-1-7.49c-1.12-6.65-2.58-15.32-2.08-22.45-4.72,0-9.54-1.12-12.92-3.65a10.75,10.75,0,0,1-4.48-8.91c0-6.56,15.82-24.31,31.11-37.68,13.18-11.54,46.82-38,74.16-34.31,18.09,2.43,32.37,11.72,42.42,27.6,8.12,12.82,11.26,26.41,12.76,32.94,3,13.1,1.14,67.22,1.05,69.52a2,2,0,0,1-.87,1.58,23.89,23.89,0,0,1-2.58,1.52c3,6.66,6.94,14.17,11.58,19.3,6.39-2.75,10.67-4.18,11.25-4.37a2,2,0,0,1,1.84.31c6.65,5.08,7.8,13.51,7.89,18.1,18,12,43.4,31.3,53.08,46.41,13.44,21,40.82,102.11,39.31,128.69C840.7,429,816.94,529.1,812,538.49c-1.41,2.69-2.44,7.8-3.53,13.21-2.66,13.26-6,29.78-18.26,32.8a2,2,0,0,1-1.53-.25,76.46,76.46,0,0,0-12.75-5.85c1,2.18,1.89,4.38,2.79,6.58a23,23,0,0,1,7.43,1.8,2,2,0,0,1,1,1.29l5,20a2,2,0,0,1-1.85,2.48l-3.53.18c.15.93.26,1.82.35,2.68,5.48,3.68,34.1,24.93,28.06,63.45-4.07,26-14.58,46.8-23,63.52-4.36,8.64-8.19,16.24-9.92,22.38h457a2,2,0,0,1,0,4Zm-749-4H620.57c-2.47-36.57,7.54-111.91,20.42-134.21a31,31,0,0,0,2.82-6.32,34.18,34.18,0,0,0-5.25,1.37,2,2,0,0,1-1.75-.14,2,2,0,0,1-1-1.47l-2.51-20-3.81.57a2,2,0,0,1-1.95-.85c-9.48-14-12-37.15-13-54.6-3,1.36-6.7,1.52-10.86.41-18.62-5-48.2-3.25-67.77-2.08-7.3.44-13.07.78-16.29.64-10.64-.46-44.9-11.69-47.65-16.5-.34-.6-1-1.73-1.78-3.22-3.46-6.29-12.65-23-15.29-25.26s-4.57-9.25-5.85-14.74a56.56,56.56,0,0,1-4.83,5.56c.27,10.52,3.87,112.72,40.75,129.5-5.05-6-11.27-17.36-12.76-37.69-2.47-33.64-3-46.94-3-47.07a2,2,0,0,1,2.66-2l25.5,9a2,2,0,0,1,1.29,1.48l9.5,46a.5.5,0,0,1,0,.12c.14,1,3.32,23.79-5.29,32.73a11.51,11.51,0,0,1-7.35,3.57C509.58,669.81,493.56,747.64,490.23,762.76Zm3.11-139.16a7.89,7.89,0,0,0,6.68-2.37c6-6.23,5.1-23.22,4.23-29.33L495,547.07l-21.63-7.64c.28,5.54,1,19.24,2.86,44C478.41,613.15,491.25,622.3,493.34,623.6Zm144-22.22,2.23,17.75c1.41-.37,3.16-.74,5.2-1.11a22.76,22.76,0,0,0-5-17Zm6.8-1a26.37,26.37,0,0,1,4.73,17C680,612.6,756.56,608.31,782,607a136.76,136.76,0,0,0-6.11-18.36C750.5,586.59,683.09,594.88,644.09,600.4Zm136.3-11.23a129.9,129.9,0,0,1,5.62,17.6l1.68-.09L783.52,590A18.42,18.42,0,0,0,780.39,589.17ZM270.86,604.72c9.31.37,39.24.53,70.79-10.1,22.13-7.46,40.73-18.69,55.28-33.4a121.17,121.17,0,0,0,20.79-28.31c.79-10.31,1.34-21.4,1.44-32.87q.16-18.06-1.18-33.63l-17.59-8c-3.29-1.7-7.49-4.33-7-8,.54-4,6.69-5.55,7.92-5.81l.25,0L415,443.49c-2.93-15.91-7.38-29.17-13.33-39.67-5.33-4.9-73.64-67.71-82.46-78.5a2,2,0,0,1-.24-2.16l5.51-11-10.94-4.21a2,2,0,0,1-1.28-1.68c-.05-.58-1.1-12.39,2.18-22-19.11,7.62-50,20.19-54.64,23-.15.09-14.18,9-16.55,38-1.25,15.24-2.9,25.3-4.92,30.09l70.44,18.81.19.06c.68.26,16.79,6.49,29,27.83l22,33.45a2,2,0,0,1-.06,2.27c-.34.48-8.54,11.64-16.2,13.28-4.27.92-9.77,1.46-11.64-1.17a3.3,3.3,0,0,1,0-3.81,33,33,0,0,1,2.46-3.21c1.75-2.14,7.1-8.65,6.38-10.56a4.57,4.57,0,0,0-4-3.32l-4,5.32a1.88,1.88,0,0,1-.7.58c-3,1.5-8.19,4.34-9.48,5.63-.39.54-.59,3.13-.72,4.85-.3,3.82-.6,7.76-2.84,9.71-.61,1-.94,6.28.54,13.57,1.4,6.94,3.77,12.22,6.19,13.77,6,3.84,34.86,2,41,.72,1.84-.36,7-4.58,11.49-9.79l-18.76-28.14a2,2,0,0,1,.44-2.68c3.49-2.72,2.75-9.1,2.74-9.16a2,2,0,0,1,.38-1.47c2-2.65,4.19-3.83,6.52-3.49,3.76.54,6.18,5.06,7.08,7.09,5,2,8.29,8.11,9.13,9.85,3.56,3.26,3.47,12.24,3.38,14.61.43,2.61-.76,6.07-3.53,10.3-.71,1.07-1.52,2.2-2.41,3.33L394.89,511c1.94,2.95,11.33,18,6.65,24.71-2,2.88-6,3.67-11.76,2.35l-.18,0-39.92-13.05c-5.44,4.48-16.8,9.23-26.41-.88-11.13-11.71-17.57-33.11-14.55-47.27-3.83-.45-11.9-1.35-19.1-1.71-5.78-.29-10-2.29-13.42-3.91-2.68-1.27-4.81-2.28-6.79-2.09-2.92.26-4.83-1.09-6.52-2.28A11.26,11.26,0,0,0,256,464.2c-6.78,8.91-16.9,20.19-22.4,16.52a5.38,5.38,0,0,1-2.4-5.82c1.24-5.87,10.85-12.7,20.16-14.32.92-.15,1.77-.26,2.58-.32.76-1,1.53-2.08,2.3-3.18L229,419.86a152.44,152.44,0,0,0-3.23,17.38,136.81,136.81,0,0,0-.24,14.18c.13,7.86.25,16-1.33,21.67-.55,2-1.25,4.15-2,6.45-2.53,7.82-5.67,17.55-3.58,22.77,3,7.63,14.18,22.91,21.38,23.76,4.37.51,20.28.75,36.74.73a60.44,60.44,0,0,0-4.39-12.11,2,2,0,0,1,3.4-2.1c3.34,4.89,23.49,8.75,33.17,10.6s11.21,2.15,11.07,4.42-2.55,2.29-5.1,2.44c-7,.43-19.78.67-33,.74C285.27,547,286.13,572.94,270.86,604.72ZM618.4,544.33c.92,16.83,3,40.06,11.8,54.06.66-.1,1.55-.24,2.63-.39l-.59-4.7a2,2,0,0,1,.92-1.94,2,2,0,0,1,2.16,0,34.07,34.07,0,0,1,6,5.39c29.33-4.19,102.27-13.95,132.92-12.18-1.11-2.63-2.26-5.26-3.44-7.86a63.79,63.79,0,0,0-26.1-2.26,20.56,20.56,0,0,1-3.12,4c-8.28,8.29-20.66,6.12-21.18,6a2,2,0,0,1-.87-3.54,50.34,50.34,0,0,1,22.58-10.15c2.61-5.53,3.12-13.25,1.51-23.06-6,.65-24.54,1.84-37.4-6a2,2,0,0,1-.76-.85c-1-2.13-24.79-52.6-14.5-74.21a2,2,0,0,1,1.37-1.1c.9-.19,19-4.13,31.16-2.35a24.47,24.47,0,0,1,4.64-4.63,33.31,33.31,0,0,1-6.34-14.24,211.77,211.77,0,0,0-5.9-25.46c-2.47-8.66-4.42-15.5-4.12-26.42.15-5.84-1.52-13.82-3.29-22.26-3.87-18.44-8.25-39.34,1.63-53.81,15.46-22.64,45.94-38.73,66.67-26.6,20.25,11.85,45.25,54.67,40,97.47-1.28,10.32-2.17,23.85-3.12,38.18-2.9,43.95-6.19,93.77-22.24,104.73-15.25,10.41-27,13.27-32.39,14,2.78,5,8.89,16.46,14.74,29.2A85.37,85.37,0,0,1,790,580.4c9.22-3,12.16-17.65,14.54-29.49,1.2-5.95,2.23-11.08,3.92-14.29,4.86-9.23,28.27-108.14,29.77-134.68,1.44-25.38-25.81-106.22-38.69-126.31-8.79-13.71-32.53-32.19-50.37-44.19a2,2,0,0,1-1.08.58c-28.26,5.27-58.33,57.5-58.63,58a2,2,0,0,1-3.34.2c-8-10.74-19-21.56-22.76-20.3-2.55.85.42,10.35,2.38,16.64,2.07,6.62,4.2,13.46,4,18.55-.3,7.07-11.3,35.26-25.63,71.38-6.44,16.23-12,30.24-13.45,35.1-2.87,9.7-8.43,37.79-11.24,52.34,7.18.89,15.23,1.77,24,2.6a335.88,335.88,0,0,0,37.25,1.5,1.94,1.94,0,0,1,1.63.75,2,2,0,0,1,.37,1.75c-7.17,27.26,16.93,60.48,17.18,60.81a2,2,0,0,1-2.09,3.13c-1.26-.31-30.94-7.67-48-16.68-6.62-3.5-18.31-6.73-29.95-9.34,3.66,8.92,4.88,21,2.45,28.87A17.16,17.16,0,0,1,618.4,544.33Zm120.3,31.35a46.44,46.44,0,0,0-11.84,5.05A18.79,18.79,0,0,0,738.7,575.68ZM752,570A70.79,70.79,0,0,1,768.6,572c-7.24-15.41-14.48-28.25-14.62-28.5a2,2,0,0,1,1.74-3c.13,0,13.73-.24,33.38-13.66,14.44-9.86,17.8-60.77,20.5-101.68.95-14.39,1.85-28,3.14-38.41,3.34-27.1-9.8-77-38-93.53-8.75-5.12-20.32-4.8-32.58.9a74.39,74.39,0,0,0-28.75,24.5c-8.92,13.07-4.73,33.08-1,50.74,1.81,8.68,3.53,16.88,3.36,23.19-.27,10.3,1.51,16.56,4,25.21a217.11,217.11,0,0,1,6,25.91,29.26,29.26,0,0,0,5.8,12.69l.41-.19c3.58-1.59,14.05,2.5,18.39,4.33,5,2.11,21.45,9.58,24.3,17.3a3.64,3.64,0,0,1-.61,4c-1.75,1.84-5.68,1.85-11.69,0-9.31-2.84-22.79-10-31.7-20.12a23.17,23.17,0,0,0-2.78,2.54c.42.14.81.29,1.19.46a2,2,0,0,1,1.21,1.84c0,3.92.12,9.46.44,15.72,3.33,6.41,7,16.11,9.79,24.87,3.79,11.94,7.62,26.91,4.36,30.48-.68.75-2.61,2.18-5.87-.54-8.54-7.12-11.35-35.15-12.27-53.82a19.71,19.71,0,0,0-2.86-4.3,10.45,10.45,0,0,1-3.24-9.57,12.8,12.8,0,0,1,.71-2.41c-9.71-1-23.39,1.56-27.14,2.32-7.92,19.31,12.13,63.9,14.64,69.34,14,8.14,35.92,5,36.15,4.93a2,2,0,0,1,2.26,1.61c1.91,10.24,1.72,18.61-.55,25Q749.37,570,752,570ZM569.21,540.13c12.79,0,25.59.82,35.53,3.49,4,1.07,7.16.73,9.57-1-.08-1.62-.16-3.17-.23-4.64-.12-2.52-.23-4.81-.35-6.81-.37-5.84-9.73-15-21.3-24-9.59,3.18-20.17,6.35-24.21,6.35-2.59,0-19.62-5.73-41.57-13.5a36.86,36.86,0,0,1-1.29,5.86l28.57,10.76a2,2,0,0,1,1.29,1.79,2,2,0,0,1-1.14,1.89c-.42.2-10.35,4.82-19.52,1.58-3.41-1.2-7.77-1.17-11.28-1.14-4.24,0-6.81.05-7.74-2-.82-1.82.7-3.51,1.2-4.06a21.85,21.85,0,0,0,3.58-6.42l-5.13-1.94c-3.25,4.56-8.92,11.95-12.33,13.09a4.59,4.59,0,0,1-4.49-.67c-1.79-1.44-2.54-4.26-2.13-7.95a85,85,0,0,0,.48-11.43l-7.05-2.66c-.27,2.79-.45,6.33-.45,10.82,0,3.84-2.23,7.18-5,7.42-1.75.16-3.84-1-4.49-4.57s-4.43-12.71-8.58-20.63l-8.46-3.19a2,2,0,0,1-3.73,1c-.58-1-1.2-2-1.84-3.06l-4.78-1.8c1.34,6.38,3.45,13.88,5.16,15.35,2.8,2.4,9.43,14.09,16.18,26.36.81,1.47,1.42,2.58,1.75,3.16,2.13,2.58,32.61,14,44.35,14.5,3,.13,8.7-.21,15.88-.64C545.28,540.85,557.24,540.13,569.21,540.13ZM597,505.67c11.33,9.06,20.27,18.45,20.7,25.26.12,1.9.22,4.06.34,6.43.14-.38.28-.77.4-1.18,2.34-7.6.61-20.75-3.4-28.74-5.26-1.11-10.36-2.08-14.82-2.88Zm134.4-11.94c1.43,17.18,4.39,35.54,10.08,40.29.21.17.38.29.52.39.48-2.48-.56-11-5.58-26.65C734.83,502.74,733.11,497.94,731.42,493.73ZM617.55,503.86c12.89,2.78,26.48,6.39,34.11,10.43,12.46,6.6,32.58,12.45,41.94,15-6.31-9.93-19.89-34.6-15.4-57.18-5.47,0-19.08,0-35.16-1.55-7-.67-15.67-1.57-24.39-2.66-.59,3.06-.94,4.94-1,5a2,2,0,0,1-1.59,1.6c-23.83,4.6-49-4.62-66-13.18A183.92,183.92,0,0,1,531,450.18c-7.67-.1-16-1.15-19-3.56-2.65-2.12-5.9-7.15-9.33-12.46-2.16-3.34-5.28-8.18-6.92-9.74-.68,2.62,0,10.79,3.91,14.69a2,2,0,0,1,.11,2.7,2,2,0,0,1-2.69.34c-3-2.13-18-12.91-20.07-16.6s-6.43-8.68-9.33-8a.59.59,0,0,0-.23.09c.08,1.16.15,2.31.2,3.45a21.32,21.32,0,0,0,1.38,3.61,2,2,0,0,1-.45,2.38,2,2,0,0,1-.81.44,112.41,112.41,0,0,1-2,20.6l1.25.62c7.92,3.91,16.1,8,21,11.78,8.59,6.75,37.32,11.77,52.76,14.47,4,.7,7.1,1.24,8.94,1.65,4.62,1,21.71,10.43,37.61,21.74,2.39.36,7,1.08,12.66,2.09,3.64-1.27,6.85-2.42,9.1-3.25a2,2,0,0,1,1.35,0C613.13,498.12,615.56,500.56,617.55,503.86ZM278.7,519.43c.74,2,1.53,4.49,2.26,7.35,8.52,0,16.92-.14,23.71-.33C294.36,524.43,284.88,522.28,278.7,519.43ZM422.12,468.3a406.36,406.36,0,0,1,.3,54.85,152.31,152.31,0,0,0,9.81-32.83c.06-1,.38-7.45.41-17.21ZM525,516.79a33.41,33.41,0,0,1,10.93,1.38,20.81,20.81,0,0,0,11.31.25L524,509.7a29.11,29.11,0,0,1-3.81,7.08c.92,0,2.07,0,3,0Zm-24.18-15.86a94.57,94.57,0,0,1-.57,10.35c-.29,2.59.25,4,.67,4.39.05,0,.2.16.71,0,1.55-.52,5.57-5,9.72-10.76Zm-24.1-9.08c3.83,8.07,6.66,15.91,7,17.85a4,4,0,0,0,.37,1.18,4.63,4.63,0,0,0,1.16-3.32,108.81,108.81,0,0,1,.58-12.27Zm49.76,3.9c22.81,8.11,39.42,13.73,41.79,13.81,3.07,0,11.57-2.46,20.3-5.29-1-.72-1.94-1.43-2.92-2.14l-.67-.1a1.37,1.37,0,0,1-.35-.08L462.32,461.06c-.9,2.68-1.86,5.13-2.82,7.35q-.58,1.33-1.17,2.58l1.55.57a8.16,8.16,0,0,1,1,0,6.87,6.87,0,0,1,3.65,1.71c8.89,3.27,17.79,6.53,26.45,9.69a4.68,4.68,0,0,1,3.2-.35,6,6,0,0,1,3.7,2.86c8.21,3,16.11,5.83,23.48,8.46a4.88,4.88,0,0,1,3.77.34A2.76,2.76,0,0,1,526.44,495.75ZM517.52,503l4.09,1.53a32.11,32.11,0,0,0,1.19-5.81l-1.22-.43A20,20,0,0,0,517.52,503Zm90.29-1.09,3.91.77a8.11,8.11,0,0,0-2-1.45ZM500.63,496.6l13,4.92.38-.57a32,32,0,0,1,3.25-4.22c-5.68-2-11.57-4.15-17.54-6.31A38.51,38.51,0,0,1,500.63,496.6Zm-10.41-3.92,6.23,2.34a24.91,24.91,0,0,0-1.3-6.28l-3.31-1.2A15.58,15.58,0,0,0,490.22,492.68Zm21.27-19.4,62.39,20.87c-11.34-7.33-21.59-12.86-25.09-13.64-1.75-.39-4.84-.93-8.76-1.62C532,477.49,521.41,475.63,511.49,473.28ZM474,486.58l12.4,4.67a21,21,0,0,1,1.63-5.09l-18.23-6.68A82.17,82.17,0,0,1,474,486.58ZM363.82,464.34,380.94,490c.5-.67,1-1.34,1.41-2,3.09-4.69,3.07-6.83,2.92-7.54a1.67,1.67,0,0,1,0-.5c.18-4.16-.47-10.57-2.17-11.79a2.06,2.06,0,0,1-.67-.82c-.87-2-4-7.36-7.69-8.38a2,2,0,0,1-1.35-1.22c-.78-2.06-2.68-5.22-4.28-5.44-.79-.12-1.66.65-2.28,1.36C366.91,455.73,366.85,460.83,363.82,464.34Zm96.91,17.23,7.44,2.8a39.54,39.54,0,0,0-5.37-7.47l-3.06-1.13C459.32,476.66,459.82,479,460.73,481.57Zm310.18-2.11ZM734.32,459.8c6.24,6.79,14.78,12.24,22.29,15.61s12.69,4.1,14.2,3.73c-3.13-7.95-30.17-19.34-36.48-19.34Zm-484,5.1c-7.41,1.88-14.46,7.32-15.2,10.83a1.39,1.39,0,0,0,.7,1.66C237.38,478.41,243.36,473.4,250.33,464.9Zm475,2.79a8.88,8.88,0,0,0-.87,2.45,6.33,6.33,0,0,0,1.88,5.73c-.1-3.45-.14-6.21-.15-7.92Zm-288.71,2.86,4.53,2.07a5.55,5.55,0,0,1,.9-3.37l-5.44-2C436.66,468.37,436.66,469.48,436.66,470.55ZM538,450c19,11.88,48.85,25.48,76,20.84.16-.83.38-2,.66-3.45-15.52-2.06-30.29-4.71-34.58-7.68-3.49-2.42-5.58-6.81-7.6-11.05s-4-8.46-7-9.76c-6.73-2.88-16.44-9.07-18.88-12.73-1.87-2.81-12.21-13.82-17.45-14.21a1.54,1.54,0,0,0-1.41.45,2.88,2.88,0,0,0-.69,2.36c.43,4.57,7.32,11.5,10.91,14.2,4,3,11.86,13.45,9.59,18-.56,1.12-1.85,1.85-4.18,2.36A38.27,38.27,0,0,1,538,450ZM436.59,462.94c5.85,2.18,11.84,4.4,17.88,6.63a91.69,91.69,0,0,0,4-9.81l-21.63-7.23-.51,0C436.44,456.14,436.54,459.65,436.59,462.94Zm-14.87.78,10.91,5c0-1,0-2,0-3l-11.1-4.13Zm41.8-6.48,25.05,8.38a22.81,22.81,0,0,1-3.08-2c-4.55-3.57-12.55-7.52-20.28-11.34l-.34-.17Q464.24,454.79,463.52,457.24Zm-61.5-8.7c-2.43.55-4.58,1.77-4.67,2.4,0,0,0,1.38,4.8,3.84l15.4,7-.18-1.77L413,458.43a2,2,0,0,1-1.24-2.36c.13-.49.9-2.9,4.45-4.91-.18-1.25-.37-2.49-.57-3.71Zm19,8.6,11.52,4.3c-.06-2.92-.15-6-.29-9.19a33.55,33.55,0,0,0-11.68,1.36C420.72,454.78,420.87,456,421,457.14Zm-1.41-10,.39,2.46a38.65,38.65,0,0,1,12.07-1.34c-.32-6.28-.79-12.95-1.47-19.77q-.51,4.5-1.07,9.18c-.43,3.69-.75,6.36-.8,7a2,2,0,0,1-1.84,1.84Zm28.59-9.65c.57,1.8,7.39,5.5,13.78,8.73a106.11,106.11,0,0,0,1.44-11,2,2,0,0,1-1.46.38C456.68,434.81,449.05,435.1,448.19,437.48ZM495.38,420a3.48,3.48,0,0,1,.89.13c2.43.7,5.15,4.75,9.74,11.86,3,4.59,6.32,9.79,8.46,11.5,1.58,1.27,5.77,2.05,10.52,2.43-5.42-4-9-7.29-10-8.79-4.11-6.46-12.55-117.51-12.81-122.47-.43-8.13-14.72-15.15-20.66-15.61-6.4-.49-24.94-9-28.55-12.37,0,.28-.1.59-.15.94A149.45,149.45,0,0,1,468.52,299a2,2,0,0,1,.67,1.9,2,2,0,0,1-1.33,1.52L460,305.07l12.24,7.27a2,2,0,0,1,1,1.93l-9,82.17a146.4,146.4,0,0,1,2.83,17.11c6.75-1.2,12.72,8.85,13.38,10,.87,1.52,6.39,6,12.06,10.29-1.33-4.8-1.29-9.87,0-12.09A3.31,3.31,0,0,1,495.38,420ZM323.11,323.76c11.78,13.3,80.75,76.67,81.47,77.32a2,2,0,0,1,.38.48c6.6,11.56,11.09,25.86,14,41.61l6-.48q.21-1.87.64-5.49c.7-5.93,1.75-14.89,2.91-25.56-3.58-23.14-10.1-45.94-21.77-59.8-6.31-7.5-12.05-15.15-17.2-22.61-10.66-3.55-24.08-12.64-37.4-34-9-1.68-21.12-5.43-32.06-13.79l-.07.15c-4.28,7.38-4,19.27-3.83,23.09l11.81,4.54A2,2,0,0,1,329,312Zm135,100.11a1,1,0,0,0-.51.11c-.51,1.18,3.21,6.41,5.62,7.86a2.42,2.42,0,0,1,.36.27q.15-3.06.13-6.27A15.56,15.56,0,0,0,458.14,423.87ZM203.91,379l23.18,31.58c.63-2.49,1.15-4.46,1.45-5.57l-18.9-24.72a2,2,0,0,1,2.09-3.15l13,3.35v-2.92L209.16,373c-5.18-1.55-6.34-.51-6.52-.29C201.81,373.71,202.85,377,203.91,379Zm191.52-48.24c4.38,6.15,9.16,12.39,14.32,18.53,8.92,10.59,15.68,26.66,20.22,48,1.44-14.36,2.88-30.4,3.85-45.82,3.62-57.4-1.95-63.87-3.75-64.48-6.71-2.31-10.31-6-12.19-9.76a28.17,28.17,0,0,0,1.87,5.44c2.64,1.66,12.22,9.12,8.95,28.75-1.64,9.83-10.81,17.88-22.3,19.57A34.71,34.71,0,0,1,395.43,330.74Zm45.61-45c2.07,8.86,7.34,32.15,10.5,52.91q-.29-2.87-.55-5.74c-2.25-23.95-2.68-36.49-2.28-43.16A67.21,67.21,0,0,0,441,285.76ZM357.39,296c6.55,9.9,13.61,17.58,21.08,22.94a53.46,53.46,0,0,0,6.93,4.22,362.27,362.27,0,0,1-23.11-40.62c.79,3.83,2.15,7.86,4.49,10.73a2,2,0,0,1-1.53,3.27A63.48,63.48,0,0,1,357.39,296Zm10.94-176.41a59.51,59.51,0,0,0-35.54,12.12c-25.41,19.23-32.83,54.64-34.57,81-1.69,25.48,4.11,45.42,17.24,59.26,10.4,11,23.6,16.09,33.79,18.49-1.78-3.1-3.56-6.42-5.32-10-22.1-44.85-39.6-107.74-16.2-137.4,12.8-16.22,35.92-20.67,68.72-13.22,12.15,2.76,21,8.57,26.43,17.27,6,9.67,6.2,20.53,5.63,26.91,1-.34,1.95-.7,2.89-1.09a30.32,30.32,0,0,0-1.77-23.35c-6.94-13.5-23.93-23.2-50.48-28.83A52.22,52.22,0,0,0,368.33,119.61Zm-6,107.84a2,2,0,0,1,1.91,1.36c3.74,11.31,8.59,17.17,17.31,20.91,14.51,6.21,29,11.19,46.66,3.88a2,2,0,0,1,.26-.09,14.19,14.19,0,0,0,8-6.7c2.83-5.08,3-12.05.4-20.68a1.22,1.22,0,0,1-.06-.26c-.13-.83-1.21-8.27,2.4-11.88.72-.72,1.42-1.32,2.11-1.91,2.19-1.89,3.18-2.82,2.95-4.69-3-2.94-18.8-18.55-20.43-27.85-17.24,4.25-38,3.56-39.86,2.83a2,2,0,0,1-1.26-1.57l-1.85-12.57a100.8,100.8,0,0,0-1.07,13.06c.09,6.8.23,16.12-4.28,20.38a8.05,8.05,0,0,1-6.39,2.15c-6.19-.43-8.39-3.33-10.16-5.66-1.3-1.72-2.17-2.86-4.56-3.14-2.87-.32-4.91.44-6.26,2.33-3,4.31-2.26,14.28,1.8,22.69,4.77,9.88,11.44,7.63,11.72,7.53A2,2,0,0,1,362.29,227.45ZM611.05,235c3,0,7.27,1.13,8.59,5.52a13.05,13.05,0,0,1,.06,5.53c-.55,4.15-1,7.44,7.16,10.15,7,2.34,11.44-1.29,16.1-5.14,3.26-2.68,6.64-5.46,10.76-5.46,7,0,12.25,6.83,14.74,10.83,16-20.81,40.76-34.5,56.58-41.68-4.67-5.51-8.58-12.91-11.49-19.44-10.75,3.55-24.06.82-30.54-5.15-3.9-3.6-4.82-8-2.53-12.05,3.86-6.82.92-22.93-5.82-31.93-2.38-3.18-6.22-6.75-11-5.64-13.12,3.06-11,24.13-11,24.34a2,2,0,0,1-1.17,2l-13.5,6a2,2,0,0,1-2.81-1.73c-.48-9.8-3.22-16.59-8.15-20.18-6-4.37-13.27-2.5-13.34-2.48a2,2,0,0,1-1.8-.4,2,2,0,0,1-.71-1.69c.78-9.73-6.16-19.07-8.34-21.74a21.16,21.16,0,0,0-8.31,3.45,87.17,87.17,0,0,0-8,14.66,2,2,0,0,1-1.3,1.2,28,28,0,0,1-4.64.93c-.57,6.78.94,15.75,2,22a61.27,61.27,0,0,1,1.08,8.15c0,2.52,1.77,4.26,4.89,7.13a56.7,56.7,0,0,1,4.1,4c4.58,5.09.67,25.79-.75,32.48,1.27.71,2.52.57,4.71.24a26.21,26.21,0,0,1,4.05-.38,4.22,4.22,0,0,1,3.71,1.82c1.15,1.75.79,4.26.31,6,1.59.53,3.57,1,4.42,1.2a2,2,0,0,1,1.42,1.21,2,2,0,0,1-.19,1.85c-.77,1.16-.13,3.08.46,4.3Zm121-18.9a17,17,0,0,0,2.6,1.73c2.7,1.43,6.5,3.69,11,6.54-.44-3.64-1.74-8.32-5.29-11.52C738.86,213.34,736,214.42,732.06,216.06ZM665.44,136.3c4.44,0,8.77,2.57,12.42,7.45,7.8,10.41,10.77,28,6.11,36.29-1.36,2.41-.77,4.81,1.76,7.14,4.82,4.45,16.48,7.56,26.26,4.42-2.55-6.18-4-11-4.18-11.46a2,2,0,0,1-.07-.81c4-34.76-1.68-57.69-16.87-68.17-24.66-17-66.8,4.45-67.23,4.67a2,2,0,0,1-2.58-2.88c9.54-14.31,23.76-22,35.93-26.14-19,2.89-35.63,11.45-49.66,25.59a102.18,102.18,0,0,0-7.88,9,19.37,19.37,0,0,1,4.12-.8,2,2,0,0,1,1.63.65c.42.46,9.75,10.82,10.08,23a20.51,20.51,0,0,1,14.16,3.55c5.42,3.95,8.63,10.78,9.57,20.33l9.61-4.27c-.3-5.42-.22-23.84,14.15-27.19A11.58,11.58,0,0,1,665.44,136.3Zm46.32,43.06c.4,1.26,1.78,5.46,3.93,10.69.36-.19.72-.4,1.07-.61.25-7.72,1.7-55.8-1-67.44-3-12.89-12-52.13-51.82-57.46-25.74-3.46-58.22,22.17-71,33.35-18.15,15.88-29.74,31.14-29.74,34.67a6.73,6.73,0,0,0,2.88,5.71c2.69,2,7,2.87,11.06,2.84l.12-.52a2.07,2.07,0,0,1,.27-.63c.34-.52,6-9.08,14.08-14.66a108.51,108.51,0,0,1,12.86-15.72c14-14.15,38.69-30.42,76.39-27.52a2,2,0,0,1-.08,4c-.35,0-32.21,1.54-51.52,22.84,13.8-5.65,43.57-15,63.86-1C709.58,119.2,715.84,143.26,711.76,179.36Zm-127-42.21c-1.18,1.39-2.12,2.61-2.78,3.51.44-.08.87-.18,1.29-.28C583.56,139.66,584.05,138.56,584.74,137.15Z"/></g></svg>