<svg xmlns="http://www.w3.org/2000/svg" viewBox="0 0 4000 2828.57"><defs><style>.cls-1{fill:#fff;}.cls-2,.cls-7{fill:none;}.cls-3{fill:#50b248;}.cls-4{fill:#c2c0bf;}.cls-5{fill:#3493bb;}.cls-6{fill:#f2b991;}.cls-7{stroke:#f2b991;stroke-linecap:round;stroke-linejoin:round;stroke-width:0;}.cls-8{fill:#ff2c30;}.cls-9{fill:#6d6453;}.cls-10{fill:#ce9bc3;}.cls-11{fill:#92d1d1;}.cls-12{fill:#f3da72;}.cls-13{fill:#b1d2e7;}.cls-14{fill:#8ec23f;}.cls-15{fill:#ec6e7a;}.cls-16{fill:#3fbcc2;}.cls-17{fill:#78519a;}.cls-18{fill:#8bb68b;}.cls-19{fill:#949495;}.cls-20{fill:#4b82c0;}.cls-21{fill:#231f20;}</style></defs><g id="background"><rect class="cls-1" width="4000" height="2828.57"/><path class="cls-2" d="M1391.79,2058.6c0-1.47,0-2.94,0-4.41q-.75-3.29-1.82-6.49a83.64,83.64,0,0,0-5.2-8.8,53.52,53.52,0,0,0-21-16.13,114.63,114.63,0,0,0-17.61-4.53,186.68,186.68,0,0,0-37.14.69c-15.31,2.38-30.39,5.84-45.41,9.62-18,4.53-35.79-3.24-45.68-18.59s-5.66-36.5,6.32-49q3.88-4.07,7.46-8.37a163.88,163.88,0,0,0,15.21-26.22,210.09,210.09,0,0,0,10.61-41.93,266,266,0,0,0-.34-58.62c-4.43-28.17-13-55.28-23.75-81.66-12-27.62-25.81-54.34-39.72-81-14.5-27.8-29.07-55.85-41.53-84.73q-10.7,54.57-21.39,109.11a33.68,33.68,0,0,1,14.72,32.42,34.05,34.05,0,0,1-9.12,19c-5.25,5.72-15.65,10.23-23.45,9.71l-1.28-.08c-2.48,40.61-4.23,81.27-3.91,122q.26,32,1.75,64c.52,11.19,1.44,22.5,2,33.81a89.69,89.69,0,0,1,12.09,1.93c14.32,3.38,23.29,17.42,23.92,31.42.47,10.49-6.13,21.92-15.34,27.83q28.1.06,56.19.6c39.79.76,79.57,2.42,119.3,4.74,8.82.51,17.85.9,26.62,2.36l12.11.12c8.56.09,16.75,1.6,24.3,5.95a62.79,62.79,0,0,1,12,9.56,32.75,32.75,0,0,1,7.54,11.28c.08-.28.16-.57.25-.85C1391,2061.78,1391.41,2060.2,1391.79,2058.6Z" transform="translate(0 0)"/><path class="cls-2" d="M1401.24,2157.56a30,30,0,0,1-.41-6.38,47,47,0,0,1,5.4-20c4-7.49,11.31-13,18.91-16.18q-8.28-2.92-16.34-6.58c-7.51-3.41-13.25-11.78-16.33-19.09-.22-.52-.44-1.06-.64-1.6a34.72,34.72,0,0,1-1.76,5.18c.28,1.56.53,3.13.75,4.7q2.12,14.79,4.21,29.6,7.46,52.39,14.9,104.81-3.27-31.3-5.79-62.67A27.51,27.51,0,0,1,1401.24,2157.56Z" transform="translate(0 0)"/><path class="cls-2" d="M1551.78,2123.88c11.47-1.84,23-4.39,34.6-5.74q23.71-34.53,44.73-70.81l1-5.85a223.31,223.31,0,0,1-13.37,18.22c-14.5,18.09-33.93,33.26-54.58,43.73a193.59,193.59,0,0,1-69.83,20.43A261.86,261.86,0,0,0,1551.78,2123.88Z" transform="translate(0 0)"/><path class="cls-2" d="M1441.26,2450.06c-.51-2.76-1-5.52-1.5-8.29q1.27,8.91,2.54,17.8l2.77,0A29.43,29.43,0,0,1,1441.26,2450.06Z" transform="translate(0 0)"/><path class="cls-2" d="M1730,481.47l.11.16.49.52Z" transform="translate(0 0)"/><path class="cls-2" d="M432.64,1310a14.77,14.77,0,0,1,1.32,1.55A4.68,4.68,0,0,0,432.64,1310Z" transform="translate(0 0)"/><path class="cls-2" d="M2036.13,1199.47c0,.07-.07.14-.1.22C2035.9,1201.11,2036,1200.46,2036.13,1199.47Z" transform="translate(0 0)"/><path class="cls-2" d="M1729.81,481.19a12.18,12.18,0,0,0-1-1.15c.38.48.76,1,1.16,1.43Z" transform="translate(0 0)"/><path class="cls-2" d="M248,344.74Z" transform="translate(0 0)"/><path class="cls-2" d="M2036.14,1199.36v.11C2036.64,1198.34,2036.65,1198.31,2036.14,1199.36Z" transform="translate(0 0)"/><path class="cls-2" d="M518.57,1269.85c0-.45,0-.89,0-1.34l-.44,0Z" transform="translate(0 0)"/><path class="cls-2" d="M240.93,399.88c0-.12.11-.24.17-.36C242.52,396.45,241.19,399.15,240.93,399.88Z" transform="translate(0 0)"/><path class="cls-2" d="M518.5,1268.07l-.57.08h0l.57-.08Z" transform="translate(0 0)"/><path class="cls-2" d="M789.52,2033.54q-53.57.84-107.13,2.37c2,.47,4,.93,6,1.36h.43l38.92-.21q39.42-.21,78.84-1.2,31.58-.83,63.16-1.14C843,2034.18,816.26,2033.11,789.52,2033.54Z" transform="translate(0 0)"/><path class="cls-2" d="M820.8,859.86l.32.56,0,.05Z" transform="translate(0 0)"/><path class="cls-2" d="M822,861.48l-.85-1c.38.67.79,1.33,1.21,2C823.19,863.6,822.9,862.51,822,861.48Z" transform="translate(0 0)"/><path class="cls-2" d="M2045.73,1132.34l-.07.08v0A.24.24,0,0,1,2045.73,1132.34Z" transform="translate(0 0)"/><path class="cls-2" d="M2453.63,728.12l-.05.14v0A.84.84,0,0,1,2453.63,728.12Z" transform="translate(0 0)"/><path class="cls-2" d="M2453.45,729.45c0-.39.08-.77.13-1.16a16.46,16.46,0,0,0-.63,2.6C2453,731,2453.36,730.39,2453.45,729.45Z" transform="translate(0 0)"/><path class="cls-2" d="M2433.09,651.88l.08.11.23.22C2433.29,652.11,2433.2,652,2433.09,651.88Z" transform="translate(0 0)"/><path class="cls-2" d="M2045.9,1162.82c-.17.74-.29,1.52-.4,2.31a6,6,0,0,0,.32-1.46C2045.84,1163.39,2045.87,1163.1,2045.9,1162.82Z" transform="translate(0 0)"/><path class="cls-2" d="M1081.25,1289.7c-1.7.64-1.07.42,0,0Z" transform="translate(0 0)"/><path class="cls-2" d="M2432.54,651.18l-.1,0c.21.24.43.46.65.68l-.12-.17Z" transform="translate(0 0)"/><path class="cls-2" d="M2045.82,1133.3c0-.28-.11-.57-.15-.85a4.42,4.42,0,0,0-.09,1.78C2045.81,1135.53,2046.34,1136.46,2045.82,1133.3Z" transform="translate(0 0)"/><path class="cls-2" d="M1321,1360.53c-.16-1.24-.33-2.48-.5-3.72-.28-2.15-.57-4.29-.86-6.44.29,2.15.58,4.29.86,6.44,0,0,0,.07,0,.11a817,817,0,0,1-7.62-111.07c.09-31.86,1.37-63.92-2.19-95.64a213,213,0,0,0-11.23-43c-12.29-26.67-30.18-50-46.85-74-20-28.86-36.59-59.18-47.39-92.78-2.67-8.3-5-16.8-6.9-25.4a259.71,259.71,0,0,0,.82,46.32,261.14,261.14,0,0,0,15.91,55.72c10.1,23.28,21.27,46.15,29.8,70.06,7.54,21.17,11.63,43,11.07,65.53-.59,23.89-5.77,47.9-18.45,68.37-1,1.68-2.13,3.3-3.25,4.9a39,39,0,0,1,8.7-.56c3-10.28,8.12-19.86,18.23-25.13,8.83-4.6,21.58-6.4,30.25,0,5.49,4,9.4,7.24,12.88,13.24a37,37,0,0,1,4.42,12.43c0-.35-.08-.71-.13-1.06l.15,1.13c.45,2.52.75,5.13,1.06,7.93-.35-2.65-.71-5.29-1.06-7.93,0,0,0,0,0-.07,3.39,24.64,2.9,49.54,4.65,74.34,1.52,21.42,3,42.76,5.66,64.07.82,5.78,1.69,11.59,2.64,17.38,1.55,2.32,3.08,4.64,4.55,7-2.21-10.53-4.17-21.12-5.7-31.76Z" transform="translate(0 0)"/><path class="cls-2" d="M2046,1162.22c0,.16-.08.29-.12.43v.17C2045.94,1162.62,2046,1162.41,2046,1162.22Z" transform="translate(0 0)"/><path class="cls-2" d="M1585.48,1224.93c.23-1.18.48-2.35.79-3.5l-.79-.22C1585.49,1222.45,1585.48,1223.69,1585.48,1224.93Z" transform="translate(0 0)"/><path class="cls-2" d="M1679.44,1109.06c0,.09.08.18.11.28Z" transform="translate(0 0)"/><path class="cls-3" d="M1467.25,2585.73l0,0c-2.52-.58-5-1.2-7.53-1.88.2,1.47.41,2.94.61,4.41C1462.68,2587.36,1465,2586.57,1467.25,2585.73Z" transform="translate(0 0)"/><path class="cls-3" d="M3969.31,2694.61l-2.94-76.37a97.4,97.4,0,0,0-10.52-40c0-.9,0-1.81-.06-2.72-2.23-49.84-39.43-88.26-89.77-89.77q-378.58-11.36-757.3-18.2-376.83-6.8-753.72-9.09-242.46-1.47-484.91-1.07a78.84,78.84,0,0,1,5.76,19.7c1.83,12.37,1.94,20.76,0,33.1-1.22,7.71-4.45,14.67-7.76,21.74-3.7,7.91-12.31,13.9-20.07,17.18-9.2,3.88-17.72,3.81-27.33,2.11-27.06-4.77-54.13-9.48-81.35-13.27l-3.83-.48a32.9,32.9,0,0,1,10.89,15.72c3.95,12.19-2.59,27.65-13.71,33.7s-23.08,8.91-35.25,12.18c-10.14,2.73-20.29,5.45-30.46,8.06-19.71,5-39.54,9.7-59.35,14.3-40.55,9.43-81.58,18.52-122.86,24.19l3-.4-8.38,1.13,5.4-.73a89.69,89.69,0,0,1-14.11.94,33.75,33.75,0,0,1-16.05-4.08l-.21-.13a25.65,25.65,0,0,1-4.11-1.72,48.94,48.94,0,0,1-17.8,10c-10.11,3.27-23.4,1-32.41-4.24a37.64,37.64,0,0,1-3.61-2.44c-6-.72-12.06-1.63-18-2.34q-18.27-2.14-36.56-4.25c-25-2.9-50.08-5.92-75.12-8.87q-133.5-15.73-267.12-30.54-66.81-7.42-133.69-14.43-33.18-3.47-66.38-6.83c-13.78-1.4-27.49-3.12-41.22-5-6.46-.88-13-1.64-19.42-2.61a29.2,29.2,0,0,1-4.61,1,30.79,30.79,0,0,1-19-3.55c-7.23-3.81-10.83-10.69-13.74-17.85-.84-2.09-1.69-4.17-2.53-6.26-5.13-9.47-7.15-21.25-9.66-31.66q-3-12.57-6.07-25.15-1.82-7.54-3.64-15.1c-70.19,1.56-140.38,3.55-210.52,6.65-62.8,2.76-125.57,6.44-188.22,11.56q-46.06,3.77-92,8.63-22.05,2.34-44.08,5-15.17,1.82-30.29,3.86c-28.15,3.78-49.87,19.47-65.58,42.85-46.78,69.65-10.78,162.88,54.37,205.7,56,36.82,127.94,31.5,191.85,31.46l378.29-.2,756.58-.39,752.84-.39,756.59-.4,756.58-.39,183.53-.1C3926.69,2784.35,3971.18,2743.26,3969.31,2694.61Z" transform="translate(0 0)"/><path class="cls-3" d="M1614.31,2533a138.5,138.5,0,0,1-21.16-.8c-12.09-1.17-22.72-4.44-33.76-9.37-8.55-3.81-13.55-13.83-14.72-22.51a31.49,31.49,0,0,1,1.62-15.29,36.07,36.07,0,0,1-.73-13.82c.14-1,.32-2.05.55-3.1q-16.52,3.45-33,6.82c-.17.33-.32.68-.48,1-2.3,4.67-4.48,9.35-6.66,14.08-3.72,8.11-9.75,13-17,17.89-12.5,8.46-33.27.34-36.15-14.71-.81-4.2-2.28-9.38-2.09-13.44a46.71,46.71,0,0,1,2-10.68,46.66,46.66,0,0,1-7.57-9.57l-2.77,0q4.79,33.66,9.52,67.33l1.19-.12c9.5-.62,19.31.54,28.79,1.36q13.5,1.17,27,2.4c18.68,1.69,37.44,2.9,56.18,3.65s37.56.88,56.33.38q13.59-.36,27.17-1.16c4.52-.26,9-.72,13.57-.9,7.22-.31,14.23,1,21.34,2a16.61,16.61,0,0,1,4.63,1.52c3.42-.81,6.83-1.62,10.24-2.33-13.46-1-27-1.71-40.47-1.84C1643.29,2531.73,1628.78,2532.25,1614.31,2533Z" transform="translate(0 0)"/><path class="cls-4" d="M689.33,2510.81c2.51,10.41,4.53,22.19,9.66,31.66.84,2.09,1.69,4.17,2.53,6.26,2.91,7.16,6.51,14,13.74,17.85a30.79,30.79,0,0,0,19,3.55,29.2,29.2,0,0,0,4.61-1c6.46,1,13,1.73,19.42,2.61,13.73,1.88,27.44,3.6,41.22,5q33.2,3.36,66.38,6.83,66.87,7,133.69,14.43,133.61,14.86,267.12,30.54c25,2.95,50.07,6,75.12,8.87q18.29,2.1,36.56,4.25c6,.71,12,1.62,18,2.34a37.64,37.64,0,0,0,3.61,2.44c9,5.27,22.3,7.51,32.41,4.24a48.94,48.94,0,0,0,17.8-10,25.65,25.65,0,0,0,4.11,1.72l.21.13a33.75,33.75,0,0,0,16.05,4.08,89.69,89.69,0,0,0,14.11-.94c41.28-5.67,82.31-14.76,122.86-24.19,19.81-4.6,39.64-9.25,59.35-14.3,10.17-2.61,20.32-5.33,30.46-8.06,12.17-3.27,24.07-6.11,35.25-12.18s17.66-21.51,13.71-33.7a32.9,32.9,0,0,0-10.89-15.72c-12.39-1.53-24.81-2.83-37.25-3.79-3.41.71-6.82,1.52-10.24,2.33a16.61,16.61,0,0,0-4.63-1.52c-7.11-1.05-14.12-2.33-21.34-2-4.52.18-9,.64-13.57.9q-13.58.81-27.17,1.16-28.15.75-56.33-.38c-18.74-.75-37.5-2-56.18-3.65q-13.5-1.22-27-2.4c-9.48-.82-19.29-2-28.79-1.36l-1.19.12q-4.74-33.66-9.52-67.33-1.27-8.9-2.54-17.8-4.74-26.43-9-53-12.49-78.07-20.83-156.77-7.46-52.41-14.9-104.81-2.1-14.8-4.21-29.6c-.22-1.57-.47-3.14-.75-4.7a34.72,34.72,0,0,0,1.76-5.18c-2.77-7.33-3.83-15.87-1.62-23.54a32.75,32.75,0,0,0-7.54-11.28,62.79,62.79,0,0,0-12-9.56c-7.55-4.35-15.74-5.86-24.3-5.95l-12.11-.12c-8.77-1.46-17.8-1.85-26.62-2.36-39.73-2.32-79.51-4-119.3-4.74q-28.1-.54-56.19-.6a25.64,25.64,0,0,1-8.58,3.58c-12.15,2.52-24.21,2.21-36.53,2.3q-14.92.12-29.86,0-29.36-.18-58.72-.14c-34.84,0-69.67-.31-104.5-.37-8.1,0-16.2-.13-24.3-.29q-31.58.35-63.16,1.14-39.42,1-78.84,1.2l-38.92.21h-.43c-2-.43-4-.89-6-1.36q-46.65,1.29-93.3,3a41.56,41.56,0,0,0-4,30.13c7.21,30.68,14.69,61.3,21.76,92s14.15,61.45,21.22,92.17q21,91.2,43.06,182.12l8.49,35.21q1.83,7.55,3.64,15.1Q686.31,2498.23,689.33,2510.81Zm778,74.9,0,0c-2.21.84-4.57,1.63-6.87,2.51-.2-1.47-.41-2.94-.61-4.41C1462.27,2584.51,1464.78,2585.13,1467.3,2585.71Z" transform="translate(0 0)"/><path class="cls-4" d="M1487.74,2645.26l-3,.4-5.4.73Z" transform="translate(0 0)"/><path class="cls-5" d="M789.52,2033.54c26.74-.43,53.46.64,80.19,1.18,8.1.16,16.2.28,24.3.29,34.83.06,69.66.42,104.5.37q29.37,0,58.72.14,14.94.07,29.86,0c12.32-.09,24.38.22,36.53-2.3a25.64,25.64,0,0,0,8.58-3.58c9.21-5.91,15.81-17.34,15.34-27.83-.63-14-9.6-28-23.92-31.42a89.69,89.69,0,0,0-12.09-1.93,270.15,270.15,0,0,1,0,31c-1.06,16.26-11.55,29.55-28,31.77a33.81,33.81,0,0,1-27.09-8.79,33.25,33.25,0,0,1-22.69,9.24c-11.65,0-21.33-6.24-27.52-15.79-4.07-6.26-6.31-15-7.52-22.38-1.32-8-2.43-16.09-3-24.2q-.84-12.54-1.5-25.08c-10.06-4.9-20.91-7.73-32.14-9.77-16.74-3-34-4.22-50.91-6.17l-4.29-.48-3.62-1c-39.77-11-79.49-22.55-120-30.47-41.38-8.09-84.25-13.91-126.51-11.56-19,1-38.52,3.53-56.33,10.53-18.43,7.24-36.75,17.35-49.32,33.09-13.82,17.3-22.9,38.07-22.08,60.61a83.58,83.58,0,0,0,7.75,32.44,55.6,55.6,0,0,0,9,13.72,33,33,0,0,0,8,7.08,39.7,39.7,0,0,0,4.59,1.79c1.81.76,3.59,1.6,5.43,2.26,8.42,3,17.43-.78,23.05-7.32l2.26-.08q46.65-1.68,93.3-3Q736,2034.41,789.52,2033.54Z" transform="translate(0 0)"/><path class="cls-5" d="M1671.8,2180.24c-16.79,16.3-33,33.16-47.66,51.46-23,30.92-40.14,65.18-55.33,100.49q-6.86,16.56-12.88,33.44c-4.87,13.68-8.52,27.9-14,41.34l1.69-4c-4.51,10.83-7.6,22-12.18,32.82l3.18-7.52a88.7,88.7,0,0,0-4.75,15.53c-1.5,6.84-5.29,13.37-8.08,19.83-1.24,2.87-4,5.75-7.18,8-.51,1.11-1,2.21-1.56,3.31q16.52-3.37,33-6.82c1.26-5.93,4-12.22,8.64-16.07a251.7,251.7,0,0,1,22-16.2,113.91,113.91,0,0,1,17.32-9,455.13,455.13,0,0,1,43.19-16.91,371,371,0,0,1,77.67-16.14c25.37-2.59,50.87-2.6,76,2.36q3.18.63,6.3,1.43c53.43-21.14,105.11-47.31,151.29-81.06,17.63-12.89,34.81-26.53,50.64-41.6s29.81-31.65,43-49.1a249.25,249.25,0,0,0,31.19-53.8c9.27-22,15.56-46.16,13.81-70.21-1.61-22.11-7.5-44.71-20.18-63.2-14.72-21.46-34.71-38-60.11-45.09-26.09-7.31-52.74-3.49-78.95.56a459.42,459.42,0,0,0-61.4,13.34,598.59,598.59,0,0,0-65.88,24.15c-18.86,36.74-45.36,68.89-75,98.21C1708.15,2147.16,1689.44,2163.11,1671.8,2180.24Z" transform="translate(0 0)"/><path class="cls-5" d="M1445.07,2459.55a46.66,46.66,0,0,0,7.57,9.57c.21-.75.42-1.5.64-2.25a146.08,146.08,0,0,0,3.43-15.43c.67-3.78,1.4-7.55,2.13-11.31a34.86,34.86,0,0,1-7.55-14.25c-5.88-22.74-11.09-45.89-12.27-69.43s3.54-46,13.21-67.38c8.27-18.29,22.18-33.86,35.64-48.53,23.13-25.19,45.37-51.16,66.42-78.12q16.59-21.75,32.09-44.28c-11.59,1.35-23.13,3.9-34.6,5.74a261.86,261.86,0,0,1-57.49,0c-2.29.22-4.59.41-6.91.55-21.45,1.29-42.3-2.36-62.24-9.39-7.6,3.21-15,8.69-18.91,16.18a47,47,0,0,0-5.4,20,30,30,0,0,0,.41,6.38,27.51,27.51,0,0,0,2.9,11.81q2.52,31.37,5.79,62.67,8.22,78.64,20.83,156.77,4.23,26.52,9,53c.5,2.77,1,5.53,1.5,8.29A29.43,29.43,0,0,0,1445.07,2459.55Z" transform="translate(0 0)"/><path class="cls-6" d="M1038.53,1668.42l1.31.15c-.13-.51-.27-1-.39-1.54Z" transform="translate(0 0)"/><path class="cls-6" d="M998.72,1993.51c1.21,7.41,3.45,16.12,7.52,22.38,6.19,9.55,15.87,15.79,27.52,15.79a33.25,33.25,0,0,0,22.69-9.24,33.81,33.81,0,0,0,27.09,8.79c16.49-2.22,27-15.51,28-31.77a270.15,270.15,0,0,0,0-31c-.56-11.31-1.48-22.62-2-33.81q-1.5-32-1.75-64c-.32-40.69,1.43-81.35,3.91-122-11.18-.75-22.41-1.55-33.6-1.78s-22.75-2.15-34-3.18q-22.47-2.07-45-3.35-.59,7.28-1.1,14.56-2.13,29.92-3.34,59.92c-1.66,39.91-2.61,80.16-.83,120.08.14,3.12.29,6.25.46,9.37q.64,12.55,1.5,25.08C996.29,1977.42,997.4,1985.49,998.72,1993.51Z" transform="translate(0 0)"/><path class="cls-6" d="M1806.31,1922.83a201.6,201.6,0,0,0-27.91-15.56,204.74,204.74,0,0,0-40.76-11.11,190.91,190.91,0,0,0-37.26-.31,106.77,106.77,0,0,0-15.55,4q-3.13,1.62-6.12,3.52c-1.57,1.45-3.08,3-4.51,4.53a85,85,0,0,0-5.23,9.19c-8.23,22.57-10.08,47-15.22,70.31a194.55,194.55,0,0,1-13.45,39.31,115.8,115.8,0,0,1-8.23,14.8l-1,5.85q-21,36.26-44.73,70.81-15.5,22.53-32.09,44.28c-21,27-43.29,52.93-66.42,78.12-13.46,14.67-27.37,30.24-35.64,48.53-9.67,21.36-14.4,43.84-13.21,67.38s6.39,46.69,12.27,69.43a34.86,34.86,0,0,0,7.55,14.25c-.73,3.76-1.46,7.53-2.13,11.31a146.08,146.08,0,0,1-3.43,15.43c-.22.75-.43,1.5-.64,2.25a46.71,46.71,0,0,0-2,10.68c-.19,4.06,1.28,9.24,2.09,13.44,2.88,15.05,23.65,23.17,36.15,14.71,7.27-4.93,13.3-9.78,17-17.89,2.18-4.73,4.36-9.41,6.66-14.08.16-.33.31-.68.48-1,.53-1.1,1-2.2,1.56-3.31,3.17-2.3,5.94-5.18,7.18-8,2.79-6.46,6.58-13,8.08-19.83a88.7,88.7,0,0,1,4.75-15.53l-3.18,7.52c4.58-10.83,7.67-22,12.18-32.82l-1.69,4c5.46-13.44,9.11-27.66,14-41.34q6-16.87,12.88-33.44c15.19-35.31,32.33-69.57,55.33-100.49,14.61-18.3,30.87-35.16,47.66-51.46,17.64-17.13,36.35-33.08,53.83-50.37,29.63-29.32,56.13-61.47,75-98.21a269.76,269.76,0,0,0,15.73-37.1c5.33-15.83,8.1-32.16,9.83-48.76a140.4,140.4,0,0,0,.67-17.11A35.3,35.3,0,0,1,1806.31,1922.83Z" transform="translate(0 0)"/><path class="cls-6" d="M1714.91,2393.88a371,371,0,0,0-77.67,16.14,455.13,455.13,0,0,0-43.19,16.91,113.91,113.91,0,0,0-17.32,9,251.7,251.7,0,0,0-22,16.2c-4.66,3.85-7.38,10.14-8.64,16.07-.23,1-.41,2.09-.55,3.1a36.07,36.07,0,0,0,.73,13.82,31.49,31.49,0,0,0-1.62,15.29c1.17,8.68,6.17,18.7,14.72,22.51,11,4.93,21.67,8.2,33.76,9.37a138.5,138.5,0,0,0,21.16.8c14.47-.79,29-1.31,43.47-1.16,13.52.13,27,.79,40.47,1.84,12.44,1,24.86,2.26,37.25,3.79l3.83.48c27.22,3.79,54.29,8.5,81.35,13.27,9.61,1.7,18.13,1.77,27.33-2.11,7.76-3.28,16.37-9.27,20.07-17.18,3.31-7.07,6.54-14,7.76-21.74,2-12.34,1.84-20.73,0-33.1a78.84,78.84,0,0,0-5.76-19.7,87.71,87.71,0,0,0-7.37-13.54,111.47,111.47,0,0,0-65.52-46.22q-3.12-.8-6.3-1.43C1765.78,2391.28,1740.28,2391.29,1714.91,2393.88Z" transform="translate(0 0)"/><path class="cls-6" d="M1580.46,1219.58c-16.85-6.16-31.7-14.72-44.5-27.47a148.61,148.61,0,0,1-26.08-36c-13.67-26.12-23-54.82-31.2-83.07-14.68-50.76-25.23-102.73-45.13-151.83A300.89,300.89,0,0,0,1401,863.83a213.63,213.63,0,0,0-30.66-31.39c-17.68-12.59-37.4-20.57-57.12-29.55a163.3,163.3,0,0,1-34.5-20.82,69.65,69.65,0,0,1-11.08-10.9l-1.29-1.59a261.57,261.57,0,0,0-20.23,22.36,282.11,282.11,0,0,0-30.21,52,283.36,283.36,0,0,0-16.53,60.26q-.6,5.4-1,10.83c1.93,8.6,4.23,17.1,6.9,25.4,10.8,33.6,27.36,63.92,47.39,92.78,16.67,24,34.56,47.35,46.85,74a213,213,0,0,1,11.23,43c3.56,31.72,2.28,63.78,2.19,95.64a817,817,0,0,0,7.62,111.07c1.53,10.64,3.49,21.23,5.7,31.76,1.09,1.73,2.15,3.48,3.16,5.26q10,17.77,21.4,34.79c24.57,36.89,52.23,71.48,77.57,107.81,1.3,1.87,2.6,3.74,3.88,5.62,3.66-9,7.47-17.93,11.32-26.76,16.06-36.8,35.33-72.12,55.78-106.65,20-33.73,40.44-67.5,62.5-99.93,6.39-9.39,13.05-18.74,20.18-27.69q1.31-24.59,2.6-49.17a52.53,52.53,0,0,1,.85-7c0-1.24,0-2.48,0-3.72C1583.8,1220.72,1582.12,1220.19,1580.46,1219.58Z" transform="translate(0 0)"/><path class="cls-6" d="M1321,1360.53l-.48-3.61s0-.08,0-.11C1320.69,1358.05,1320.86,1359.29,1321,1360.53Z" transform="translate(0 0)"/><path class="cls-7" d="M1319.66,1350.37c.29,2.15.58,4.29.86,6.44" transform="translate(0 0)"/><path class="cls-8" d="M1078.09,1746.83c11.19.23,22.42,1,33.6,1.78l1.28.08c7.8.52,18.2-4,23.45-9.71a34.05,34.05,0,0,0,9.12-19,33.68,33.68,0,0,0-14.72-32.42q10.8-54.52,21.39-109.11c12.46,28.88,27,56.93,41.53,84.73,13.91,26.66,27.77,53.38,39.72,81,10.73,26.38,19.32,53.49,23.75,81.66a266,266,0,0,1,.34,58.62,210.09,210.09,0,0,1-10.61,41.93,163.88,163.88,0,0,1-15.21,26.22q-3.59,4.31-7.46,8.37c-12,12.52-16.13,33.81-6.32,49s27.68,23.12,45.68,18.59c15-3.78,30.1-7.24,45.41-9.62a186.68,186.68,0,0,1,37.14-.69,114.63,114.63,0,0,1,17.61,4.53,53.52,53.52,0,0,1,21,16.13,83.64,83.64,0,0,1,5.2,8.8q1.07,3.21,1.82,6.49c.06,1.47.07,2.94,0,4.41-.38,1.6-.82,3.18-1.33,4.76-.09.28-.17.57-.25.85-2.21,7.67-1.15,16.21,1.62,23.54.2.54.42,1.08.64,1.6,3.08,7.31,8.82,15.68,16.33,19.09q8.06,3.66,16.34,6.58c19.94,7,40.79,10.68,62.24,9.39,2.32-.14,4.62-.33,6.91-.55a193.59,193.59,0,0,0,69.83-20.43c20.65-10.47,40.08-25.64,54.58-43.73a223.31,223.31,0,0,0,13.37-18.22,115.8,115.8,0,0,0,8.23-14.8,194.55,194.55,0,0,0,13.45-39.31c5.14-23.36,7-47.74,15.22-70.31a85,85,0,0,1,5.23-9.19c1.43-1.58,2.94-3.08,4.51-4.53q3-1.9,6.12-3.52a106.77,106.77,0,0,1,15.55-4,190.91,190.91,0,0,1,37.26.31,204.74,204.74,0,0,1,40.76,11.11,201.6,201.6,0,0,1,27.91,15.56,35.3,35.3,0,0,0,20.54,5.86c21.41-.46,42.61-18.65,41.4-41.41-4.79-90.31-9.91-180.62-14.25-271l-6.51-135.48c-2.11-43.77-3.42-87.69-6.67-131.4-1.53-20.44-3.61-41.93-11-61.22-4.22-11-8.76-21.66-15.76-31.14-9.12-12.34-18.28-21.62-31.08-30.33-16-10.91-35.91-16.5-55.3-18.17-.27.31-.55.61-.85.9-10.28,9.92-25.75,6.66-39.35,2.54l-.57.44c-8.84,4.07-17.61,7.77-27.13,9.79a193.66,193.66,0,0,1-30,4.27c-10,.5-20.13-.93-30-2.35a107.66,107.66,0,0,1-13.48-2.74c-.31,1.15-.56,2.32-.79,3.5a52.53,52.53,0,0,0-.85,7q-1.31,24.58-2.6,49.17c-7.13,8.95-13.79,18.3-20.18,27.69-22.06,32.43-42.52,66.2-62.5,99.93-20.45,34.53-39.72,69.85-55.78,106.65-3.85,8.83-7.66,17.75-11.32,26.76-1.28-1.88-2.58-3.75-3.88-5.62-25.34-36.33-53-70.92-77.57-107.81q-11.33-17-21.4-34.79c-1-1.78-2.07-3.53-3.16-5.26-1.47-2.35-3-4.67-4.55-7-1-5.79-1.82-11.6-2.64-17.38-2.7-21.31-4.14-42.65-5.66-64.07-1.75-24.8-1.26-49.7-4.65-74.34a37,37,0,0,0-4.42-12.43c-3.48-6-7.39-9.19-12.88-13.24-8.67-6.4-21.42-4.6-30.25,0-10.11,5.27-15.18,14.85-18.23,25.13a39,39,0,0,0-8.7.56c-11.32,16.21-26.49,28.29-44.18,37.3-17.45,8.9-37.19,15.74-56.89,16.44-4.1.69-8.2,1.36-12.32,1.94a24.12,24.12,0,0,1-7.9,1c-1.72.19-3.44.37-5.17.52-2.12.18-4.25.32-6.38.5l-1.3.13c-.71.25-3.62.88-4.53,1.14q-2.77.8-5.54,1.68c-2,.65-4,1.33-6,2.06l-1.57.6c-21,16.45-38,38.16-49.87,62.57a298.4,298.4,0,0,0-22.3,62.07c-5.25,22.25-7.91,45.06-10,67.8-2.17,23.85-3.37,47.78-6.28,71.56-3,19.71-7.37,39.21-14.54,57.82a183.54,183.54,0,0,1-20.77,34c-12.6,16.55-22,34.2-22.44,55.6s18,37.64,38.45,38.45q12.15.48,24.31,1.18,22.51,1.29,45,3.35C1055.34,1744.68,1066.81,1746.6,1078.09,1746.83Zm-39.56-78.41.92-1.39c.12.51.26,1,.39,1.54Z" transform="translate(0 0)"/><path class="cls-8" d="M1308.76,1226c.35,2.64.71,5.28,1.06,7.93C1309.51,1231.1,1309.21,1228.49,1308.76,1226Z" transform="translate(0 0)"/><path class="cls-8" d="M1308.61,1224.84c.05.35.09.71.13,1.06,0,0,0,0,0,.07Z" transform="translate(0 0)"/><path class="cls-9" d="M1090.05,1286.58q2.76-.88,5.54-1.68c.91-.26,3.82-.89,4.53-1.14l1.3-.13c2.13-.18,4.26-.32,6.38-.5,1.73-.15,3.45-.33,5.17-.52a24.12,24.12,0,0,0,7.9-1c4.12-.58,8.22-1.25,12.32-1.94,19.7-.7,39.44-7.54,56.89-16.44,17.69-9,32.86-21.09,44.18-37.3,1.12-1.6,2.21-3.22,3.25-4.9,12.68-20.47,17.86-44.48,18.45-68.37.56-22.53-3.53-44.36-11.07-65.53-8.53-23.91-19.7-46.78-29.8-70.06a261.14,261.14,0,0,1-15.91-55.72,259.71,259.71,0,0,1-.82-46.32q.38-5.43,1-10.83a283.36,283.36,0,0,1,16.53-60.26,282.11,282.11,0,0,1,30.21-52,261.57,261.57,0,0,1,20.23-22.36l1.29,1.59a69.65,69.65,0,0,0,11.08,10.9,163.3,163.3,0,0,0,34.5,20.82c19.72,9,39.44,17,57.12,29.55A213.63,213.63,0,0,1,1401,863.83a300.89,300.89,0,0,1,32.59,57.34c19.9,49.1,30.45,101.07,45.13,151.83,8.18,28.25,17.53,57,31.2,83.07a148.61,148.61,0,0,0,26.08,36c12.8,12.75,27.65,21.31,44.5,27.47,1.66.61,3.34,1.14,5,1.63l.79.22a107.66,107.66,0,0,0,13.48,2.74c9.87,1.42,20,2.85,30,2.35a193.66,193.66,0,0,0,30-4.27c9.52-2,18.29-5.72,27.13-9.79l.57-.44c13.6,4.12,29.07,7.38,39.35-2.54.3-.29.58-.59.85-.9a14.71,14.71,0,0,0,.91-1.21c1.55.2,3.09.38,4.63.56l.53.06h0c1.06.19,2.11.41,3.17.59,3.18.55,6.47,1.29,9.67.88,3-.38,5.74-1.75,8.46-3.13,4.91-2.5,7.57-10.72,4-15.33-3.72-4.82-6.4-7.32-12.1-9.77,1.33.57-1.92-.86-2.34-1.08a49.76,49.76,0,0,1-5.32-3.44c-6.17-4.26-12.82-7.75-18.93-12.12-.63-.45-1.25-.91-1.87-1.37-1.36-1.27-2.65-2.51-3.94-3.85-2.78-2.89-5.71-5.61-8.37-8.62q-3.49-3.93-6.78-8a17.35,17.35,0,0,0-1.89-2.43c-.91-1.25-1.82-2.5-2.69-3.78a183.26,183.26,0,0,1-11.38-19.18c-1.54-3-3-6-4.34-9l-.5-1.17c-.79-2-1.55-4-2.28-6a304.1,304.1,0,0,1-12.31-44.66c-1.5-7.51-2.77-15.07-3.9-22.64-.52-3.46-1-6.92-1.48-10.38-.12-1-.27-2-.41-3.06-.32-2.44-.63-4.89-1-7.34-2.43-18.76-4.83-37.55-8.47-56.12a293.64,293.64,0,0,0-12.56-45.79c-.19-.89-.37-1.77-.56-2.66-11-50.88-37.11-97.41-71.39-136.29-18-20.46-38.51-38.09-59.93-54.83A651.07,651.07,0,0,0,1441.58,674c-24.29-14.51-49.62-28.55-76.47-37.7-29.74-10.14-62.9-10.42-92.18,1.4-16.87,6.81-31.37,15.07-45.26,27-11.48,9.83-20.94,21.5-29.89,33.62-4.12,5.57-7.88,11.37-11.44,17.29-4.64,6.4-9.17,12.89-13.53,19.51a680.19,680.19,0,0,0-45.43,80.38c-14.77,30.86-28.68,63.13-36.71,96.49a252.26,252.26,0,0,0-7.39,56c-.2,18.93,2.47,38,5.93,56.53,6.18,33.06,16.9,65.2,22.16,98.44a196.8,196.8,0,0,1,.3,40.82,143.55,143.55,0,0,1-6.66,25.39,109.35,109.35,0,0,1-8.2,14.5q-1.49,1.68-3,3.33a111.22,111.22,0,0,0-8.54,11.08c-5.19,6.45-9.78,13.24-10.86,21.48-1.81.84-3.57,1.67-5.25,2.4a104.76,104.76,0,0,0-45.05,36.83c-6.15,8.8-2.33,21.72,5.55,27.81,8.27,6.39,20.84,6.13,28.32-1.68,1.46-1.53,3-3,4.54-4.42.41-.37.83-.72,1.24-1.07,3-1.77,6-3.74,9-5.44s6.48-3.11,9.67-4.73h0l1.57-.6C1086,1287.91,1088,1287.23,1090.05,1286.58Zm589.5-177.24c0-.1-.08-.19-.11-.28Zm-598.3,180.36c-1.07.42-1.7.64,0,0Z" transform="translate(0 0)"/><path class="cls-9" d="M1499.43,713.46l5,3.86c1.13.86,2.26,1.72,3.38,2.59Z" transform="translate(0 0)"/><path class="cls-10" d="M2023.47,497.87a142.78,142.78,0,0,0-1.48,18.88c-.11,24.89,6.29,45.53,16.82,67.61,4.73,9.92,13.18,19.74,19.81,27.53,7.91,9.31,18.52,16.74,28.33,23.58a80.65,80.65,0,0,0,14,7.56c11,4.79,22,9.93,33.65,12.89,17.78,4.51,36.36,6.41,54.63,7.71,29.26,2.08,58.72,2.45,88,1.86s58.66-2.47,87.86-5.56c21.33-2.26,42.61-5.11,63.82-8.22l3.45-.5.82.78-.08-.11c-.22-.22-.44-.44-.65-.68l.1,0,.43.53.12.17c.11.11.2.23.31.33l-.23-.22c.49.68,1,1.36,1.46,2a131.37,131.37,0,0,1,7.51,12.12c1.14,2.07,2.21,4.19,3.23,6.32.41.86.79,1.72,1.2,2.58v0c1.62,4.3,3.14,8.6,4.34,13,1.11,4.09,1.91,8.23,2.62,12.41.09,1,.19,1.92.28,2.88.25,2.9.42,5.8.47,8.71a125.75,125.75,0,0,1-.41,13c-.08,1-.19,2.08-.3,3.12l.05-.14a.84.84,0,0,0-.05.17c0,.39-.09.77-.13,1.16-.09.94-.41,1.59-.5,1.44-.3,1.72-.46,3.5-.81,5.1-1,4.49-2.13,9-3.46,13.37-.7,2.31-1.46,4.61-2.28,6.88-.32.9-.66,1.81-1,2.71-.42,1.08-.76,2.13-.81,2.32-3.47,9.25-9.62,18.15-15.23,26.1-.83,1.16-1.68,2.31-2.51,3.47l-.43.62-.6.7c-1.7,2-3.41,4.09-5.23,6-3.78,4-8.34,7.25-12.13,11.26a13.77,13.77,0,0,0-3.7,10.65c-.18.14-.34.29-.51.44-12.09,10.13,3.93,31.16,17,22a315.8,315.8,0,0,0,29.5-22.92c8.78-7.85,17-16.31,25.35-24.55s15.47-17.5,22.57-26.61a244.8,244.8,0,0,0,21-31.67c23.11-41.76,31-90.52,21.14-137.2a146.69,146.69,0,0,0,9.71-14c4.66-7.55,7.6-16.32,10.89-24.48a73.4,73.4,0,0,0,3.5-10.82c4-17.26,5.69-35.53,6.25-53.3a210,210,0,0,0-1.26-31.21c-2-16.6-3.69-33.86-9.46-49.73a237.68,237.68,0,0,0-13.1-30.48c-5.25-9.88-12.84-18.94-19.78-27.43a69.73,69.73,0,0,0-9.43-9.39c-8.16-6.8-17.61-14.78-27.54-19.63-10.83-5.28-22.49-10.57-34.43-13.23a244.88,244.88,0,0,0-39-5.17c-23.58-1.35-47.46-.09-71.15.84-7.85-1.11-15.71-2-23.53-3q-18.28-2.3-36.71-3.17a441.88,441.88,0,0,0-77,3.31c-26.83,3.44-54.49,6.37-79.82,16.53-14.68,5.88-29.81,11.64-42.69,21-8.18,6-17.33,12.5-24.67,19.9a169.06,169.06,0,0,0-20.53,26c-5.88,8.91-9.72,19.61-13.56,29.29a70.1,70.1,0,0,0-4,14.58c-1.69,10.43-3.75,21.76-3.43,32.59A189.36,189.36,0,0,0,2023.47,497.87Z" transform="translate(0 0)"/><path class="cls-11" d="M2769.3,414.36a199.55,199.55,0,0,0,18.95,44.57c5.7,9.66,13.08,18.44,20.08,27.11a77.15,77.15,0,0,0,9.78,10.18c8.67,7.39,17.87,15,27.83,20.76s21.3,10,32.1,14.1a134.07,134.07,0,0,0,28.51,6.85c20.84,3,41.79,5.16,62.8,6.78,0,.14,0,.26,0,.37-.31,2-.9,4.14-1.21,5.87-.57,3.17-1.2,6.33-1.91,9.46-2.49,11-6.06,21.43-9.73,32l0,.12.43-.73a28.78,28.78,0,0,0-1.22,2.7c-1,2.23-2.12,4.45-3.25,6.64-2.37,4.6-4.71,9.24-7.47,13.61-2.5,4-5.19,7.76-7.9,11.55-.71,1-1.46,2-2.17,3l0,.07c-1.71,2.09-3.48,4.1-5.32,6.07q-4.77,5.1-9.87,9.9c-1.77,1.68-3.59,3.32-5.43,4.91-.93.8-1.86,1.58-2.79,2.36-.48.39-2.68,2.09-2.8,2.21a166.51,166.51,0,0,1-25.83,16c-2.59,1.26-5.17,2.52-7.76,3.8-.4.2-2.68,1.09-.35.15-1.36.55-2.73,1.06-4.1,1.59A156.27,156.27,0,0,1,2854,682a11.18,11.18,0,0,0-6.27,4c-8.2,2-16.37,3.54-23.63,8.13-8.32,5.25-8.16,20.74,3,22.76,15.81,2.86,32.92-2.72,48.42-6.07,14.84-3.21,29.61-6.47,44.22-10.63,29.8-8.5,59.75-19.56,86.64-35.12,47.28-27.34,86.53-66.48,110.33-115.27q43.55,0,87.06-1.94c51.86-2.26,104.5-5.11,155.77-13.62,16.56-2.75,30.71-8.76,46.24-15.55a82,82,0,0,0,11.07-5.69c4.79-3,9.23-6.79,13.68-10.23,4.69-3.62,9.61-7.07,13.83-11.27,10.87-10.79,20.94-23.93,27.51-37.94,6.84-14.6,13.28-29.67,16.9-45.45,4-17.2,6.07-35,7.87-52.53a271,271,0,0,0,1.35-33c-.36-18-2.91-35.69-5.42-53.48a249.09,249.09,0,0,0-6.38-32.13c-4.22-15.11-10.88-30-17.33-44.13a124.24,124.24,0,0,0-13.15-22.58c-6.32-8.51-12.69-17.46-20-25.27-5.46-5.81-11.72-10.41-18-15.29-5.89-4.55-11.57-9.28-18.11-12.86a193.19,193.19,0,0,0-31.73-13.54,96.73,96.73,0,0,0-15.3-3.64c-11.82-1.88-23.77-3.64-35.73-4.39-11-.7-22.12-.53-33.17-.51q-34.77,0-69.53.74-70.56,1.44-141,5.62c-49.29,2.92-98.78,4.82-147.67,12-23.32,3.45-45,10.84-66.21,21.35-12.4,6.15-23.69,15.11-34,24.13a122.12,122.12,0,0,0-26.86,34,207.42,207.42,0,0,0-12,28.07,89,89,0,0,0-3.42,12.64,291.83,291.83,0,0,0-4.2,30.74c-.1,1.11-.16,2.19-.21,3.26a224.77,224.77,0,0,0-8.86,24.5c-4.45,15.27-6.22,31.51-7.89,47.22a137.61,137.61,0,0,0-.25,27.15C2762.85,382.18,2764.69,398.81,2769.3,414.36Z" transform="translate(0 0)"/><path class="cls-12" d="M2545.18,879.68c-16.58,13.77-24.81,32.28-32.82,51.48-3,7.23-4.71,15.21-5.83,23.26A143.47,143.47,0,0,0,2493.81,975a274.67,274.67,0,0,0-16.88,40.67c-5.21,16.52-7,34.13-9,51.21a309.92,309.92,0,0,0-2,31.06c-.47,25.56-.66,52.32,6.18,77.12,6.16,22.36,17.38,41.2,32.92,58.19,7.36,8,17.07,14.67,25.82,20.83a88.51,88.51,0,0,0,11.6,6.88c23.58,11.74,48.83,21.21,74.74,26.23a491,491,0,0,0,79.93,8.88c27.22.73,54.48-.6,81.7-2.27-2.13,8.75-4.89,17.29-7.78,25.81q-2.05,6-4.43,12c-.21.52-1.81,4.93-.49,1.2s-.32.68-.55,1.21q-1.46,3.27-3,6.48a225.79,225.79,0,0,1-12.87,23.75c-2.28,3.57-4.63,7.11-7.07,10.57-1.09,1.53-2.22,3-3.32,4.56l-.45.63-.6.78-.61.79c-.17.2-.47.58-1,1.2a190.11,190.11,0,0,1-20.4,21.68c-7.63,7-17.48,13.41-23,22.23-.13.21-.24.42-.36.63a41.61,41.61,0,0,0-10.64,9.9c-4.94,6.86.07,18.1,8,19.78,13.55,2.87,28.44-4.74,40.56-10.26a335,335,0,0,0,29.9-15.43,317.93,317.93,0,0,0,29-19.56c10.09-7.48,20.23-15,29.4-23.62a329.28,329.28,0,0,0,72.66-101q95.51-5.53,191-10.88c15.83-.88,31.28-2.85,47-5.15a111.27,111.27,0,0,0,23.13-5.49c10.1-3.77,20.33-7.64,29.78-12.87s18-12.56,26.23-19.5c14.71-12.39,24.08-29.06,31.39-46.37,5.08-12.06,8.9-22.92,10.78-35.82,2.5-17.13,4.69-34.34,6.44-51.57,2.14-21,3.09-42.22,1-63.25-1.68-17-3.62-34.55-8-51.19-3.93-15-10.47-29.5-16.79-43.55a129.81,129.81,0,0,0-11.78-20.91c-8.62-12.38-17.92-25.18-29.09-35.54-7.91-7.35-16.81-13.82-25.48-20.19A97.5,97.5,0,0,0,3157,858c-9.46-5.2-19.74-9-29.71-13a109.69,109.69,0,0,0-15.43-4.88c-26.82-6.39-54.89-7.61-82.35-9.13a2448.77,2448.77,0,0,0-261.85-.41C2719,833.1,2670.26,836.94,2622,844a125.34,125.34,0,0,0-24.26,5.65,207.92,207.92,0,0,0-27.94,12C2560.88,866.38,2552.88,873.28,2545.18,879.68Z" transform="translate(0 0)"/><path class="cls-13" d="M1148.33,321c3.11,14.08,9.31,27.54,15.15,40.58a103.13,103.13,0,0,0,11,19.05c8.36,11.31,16.77,23.38,27.7,32.51,11.67,9.76,23.77,19.6,37.7,26,15.22,7,30.66,13.67,47.09,17.16,26.68,5.66,54,7.48,81.21,8.51l70.8,2.68,142.61,5.4c23.13.87,46.26,2,69.4,2.43a442.11,442.11,0,0,0,69.78-4.07q3.79,3.74,7.27,7.77c.28.33.55.67.82,1a12.18,12.18,0,0,1,1,1.15l.2.28.6.68-.49-.52c1.46,2.05,2.85,4.14,4.16,6.29s2.71,4.66,3.91,7.07c.36.72.71,1.46,1,2.2a104.94,104.94,0,0,1,4.5,15.69,28.17,28.17,0,0,0,.68,4.37h0q.33,4,.31,8c0,3.19-.28,6.34-.49,9.52v.06c-.26,1.54-.51,3.07-.83,4.6a143.16,143.16,0,0,1-4.85,17c-.51,1.53-1,3.07-1.54,4.58l-.3.84a29,29,0,0,0-1.18,2.79q-1.38,3-2.89,5.85a142.18,142.18,0,0,1-9.23,15.23c-.92,1.31-1.87,2.6-2.82,3.89l-.37.52-.64.75c-2.19,2.57-4.4,5.1-6.71,7.56-5,5.26-10.09,10.5-15.36,15.45-2.25,2.11-4.62,4.11-7,6.09.6-.53-2.61,2-2.58,2q-2.73,2-5.5,4c-9,6.42-18.57,12.1-27.85,18.16-7.87,3-15.44,6.26-23.1,9.87-11.3,5.34-5.6,23.62,6.29,23.21a113.51,113.51,0,0,0,24.76-3.26c7.73-2,15.34-4.29,22.84-7,15.6-5.67,30.93-11.92,45.35-20.22,28.18-16.21,53.94-37.21,73.85-63,21.27-27.53,35.29-59.81,39.62-94.38a163.46,163.46,0,0,0-5.9-67.1q4.7-3.76,9.26-7.63c11.73-9.88,20.73-22.1,29.9-34.34,9.29-12.41,14.76-26.22,20.56-40.63,6.35-15.76,8-32.58,9.89-49.39,3.06-27.25-1.86-55.56-5.71-82.43a154.85,154.85,0,0,0-6.63-29.23c-5.15-14.79-11.15-30-20.67-42.6-6-7.87-12-16.65-19.31-23.66s-15.66-13-23.74-18.89c-11.52-8.37-24.84-13.36-37.94-18.71-21.15-8.64-44.23-11.32-66.76-13.64-16.91-1.74-33.87-2-50.85-1.68l-142.48,2.33c-47.5.78-95,1.84-142.49,2.89-11.38.26-22.77.45-34.15.8-16,.48-31.47,2.52-47.36,4.74a179.09,179.09,0,0,0-29.67,6.5c-9.71,3.08-19.16,7.4-28.37,11.73a97.08,97.08,0,0,0-12.93,7.27c-11.13,7.51-22.39,16-30.91,26.6-5.62,6.95-11.88,14.47-16.54,22.35-.88,1.5-1.7,3-2.5,4.59a266.05,266.05,0,0,0-17.21,22.88c-8.15,11.92-13.41,26.08-18.62,39.31a106.32,106.32,0,0,0-6,22.17c-2.29,14.33-4.85,29.42-4.36,44.11A240,240,0,0,0,1148.33,321Z" transform="translate(0 0)"/><path class="cls-14" d="M480,344.72c-18.13,3.87-34.54,10.46-51.59,17.78C398,375.55,371,398.34,354.46,427c-7.6,13.14-14,27.81-17.26,42.69-3.69,16.93-5.78,35.14-2.84,52.35-1.36,4.74-2.54,9.54-3.5,14.39-6.63,33.59-8.57,67.22-4.49,101.16,2.45,20.35,5.28,40.65,9.26,60.76,1.13,5.65,2.25,11.32,3.65,16.91,3.15,12.58,8.53,24.42,13.89,36.21,9.73,21.46,30.1,41.34,50.59,52.55A168.86,168.86,0,0,0,454,821.94c33.71,6.25,67.88,10.7,102,14.13a1045.08,1045.08,0,0,0,164.44,3.45c22.62-1.31,45.1-3.55,67.55-6.25,2.72,1.56,5.4,3.17,8,4.88q3,1.92,5.88,4c.68.48,1.36,1,2,1.48,3.66,3.07,7.25,6.16,10.62,9.56,1.64,1.65,3.24,3.36,4.78,5.1.62.71,1.23,1.43,1.83,2.14l-.32-.56.36.61.85,1c.89,1,1.18,2.12.36,1,2.27,3.53,5,6.89,7.19,10.42a56.47,56.47,0,0,1,3.19,5.45c.09.37.21.79.31,1.08.53,1.59,1.14,3.16,1.66,4.76a154.74,154.74,0,0,1,4.18,17.92c.05.27.34,1.57.53,2.44.05.56.12,1.11.17,1.66.25,2.8.4,5.62.45,8.43a154.78,154.78,0,0,1-.68,16.82c0,.55-.45,3.59-.39,3.39-.07.46-.13.91-.21,1.37-.48,2.78-1.09,5.53-1.79,8.27a140.07,140.07,0,0,1-5.22,16.11c-.23.55-.62,1.5-.78,1.87q-1.17,2.59-2.43,5.15-2.16,4.38-4.58,8.61c-2.94,5.15-6.11,10.2-9.49,15.08a192.26,192.26,0,0,1-23.91,28.06,12,12,0,0,0-2.12,2.87,108.22,108.22,0,0,0-12.26,10.52,12.51,12.51,0,0,0-1.91,14.81c3,5,8.36,6.43,13.79,5.61,14.55-2.17,27.74-12.15,39-21.08a237.88,237.88,0,0,0,29.21-28.27,426.49,426.49,0,0,0,27.16-34.66c2.15-3,4.27-6,6.36-9,1-1.4,1.86-2.9,2.88-4.26,1.47-1.88,4.58-5.83,4.17-5.15A216.37,216.37,0,0,0,909,931.09c20.64-37.19,27.29-82.47,19.94-124.71,24.51-9.16,47.84-22.67,65.4-41.64a187.14,187.14,0,0,0,21.53-28c6.48-10.4,10.92-22.46,15.28-33.74,6.63-17.18,8.33-35.92,10.49-54,3-24.83,1.83-50.37.46-75.28a787.3,787.3,0,0,0-12.72-101.85,159.19,159.19,0,0,0-4.18-17.51c-.92-3-2-5.9-3.18-8.79-3.7-9.17-7.16-18.76-12.08-27.39-12.17-21.35-28.72-36.4-48.65-50.19a82.68,82.68,0,0,0-12.51-7.06c-10.74-4.95-21.91-9.93-33.3-13.45a213.68,213.68,0,0,0-32.26-6.82,1223.84,1223.84,0,0,0-183.33-12.86C644.52,328,589,331.37,534,337.09,515.92,339,497.75,340.94,480,344.72Z" transform="translate(0 0)"/><path class="cls-15" d="M101.27,247.59c12.45,25.44,37.36,43.19,63.67,51.8,17.11,5.61,35.6,5.44,53.39,5l16.45-.45q1.93,3.54,3.65,7.18c.36.77.69,1.74,1.11,2.49.52,1.31,1,2.62,1.52,3.95q2.25,6.15,3.89,12.5,1.37,5.21,2.31,10.5c.12.7.23,1.4.35,2.1.09,2.11.51,4.28.66,6.38a139.49,139.49,0,0,1-.49,24.52c0,.38-.07.69-.09,1v.06c-.33,1.94-.65,3.87-1.06,5.8a116.45,116.45,0,0,1-3.08,11.3c-.59,1.85-1.15,3.72-1.74,5.57-.28.9-.6,1.79-.88,2.69-1.6,3.43-3.29,6.81-5.16,10.1s-4,6.72-6.23,9.94c-.95,1.38-2,2.71-2.93,4.08h0c-.79.93-1.54,1.91-2.34,2.84a185,185,0,0,1-18.72,18.53c-1.45,1.28-2.83,2.61-4.3,3.86-.73.63-1.47,1.24-2.22,1.84l-.54.45a5.07,5.07,0,0,0-.56.37c-3.82,2.65-7.59,5.38-11.44,8a13.39,13.39,0,0,0-3.92,4,35.58,35.58,0,0,0-8.39,8.35c-5.24,7.69,1.76,18,10.35,18,10.77,0,21.74-7.94,30.86-13.19q13.24-7.62,25.87-16.25c17.21-11.81,33.92-24.12,48.94-38.7,30.6-29.7,57.46-66.87,68-108.76q.74-2.9,1.38-5.84a681.31,681.31,0,0,0,74.11-2.06q9.82-.73,19.63-1.74c12.25-1.23,24.78-2,36.73-4.9a98,98,0,0,0,45.18-25.49,90.79,90.79,0,0,0,15.5-20.57c8.74-16.14,11.17-28,12.52-46.28,1.57-21.24-5.61-47-17.9-64.42a182,182,0,0,0-17.81-21.81c-7.62-11.4-16.52-18.68-27.8-27.08-7.76-5.78-17.18-9.08-26.1-12.53a78,78,0,0,0-13.25-3.8c-16.16-3.18-32.83-4.6-49.25-5.93-44.46-3.61-89.1-5-133.63-2.51C263.26,67.32,249,66.4,234.75,66.6c-12.06.17-24,2.08-35.89,3.81a93.68,93.68,0,0,0-17.26,4A197.42,197.42,0,0,0,159,83.48a86,86,0,0,0-20.84,9.61c-13.7,8.79-20.56,16.43-30,29.31-5.06,6.93-7.92,15.07-11.1,23a72.82,72.82,0,0,0-3.53,11.78c-.81,2.45-1.54,4.92-2.15,7.39-2.54,10.2-4.53,21.34-3.8,32C89,216.42,92.53,229.72,101.27,247.59ZM248,344.74Zm-6.86,54.78c-.06.12-.12.24-.17.36C241.19,399.15,242.52,396.45,241.1,399.52Z" transform="translate(0 0)"/><path class="cls-16" d="M1838.62,801.48c-15.91,14.72-24.78,32.78-32.54,52.46-5.67,14.41-7.09,30.71-8.17,46a103.08,103.08,0,0,0,0,15.32c.18,2.34.48,4.68.65,7,.32,4.41.3,7.94.82,12.06-1.44,10.14-2.33,20.42-2.82,30.81-1.93,41.4.6,88.14,33.71,117.83,14.29,12.82,30.42,22.15,49.16,26.88,6.6,1.66,13.4,2.69,20.09,3.85,20.54,3.56,41.22,6.31,61.9,8.86a806.84,806.84,0,0,0,83.47,5.91l.12.55c.23,1.14.43,2.29.63,3.43l.07-.08a.24.24,0,0,0-.06.11c0,.28.1.57.15.85.52,3.16,0,2.23-.24.93.16,2.16.77,5.47.81,6.37.24,5,.33,9.91.09,14.86-.12,2.41-.35,4.8-.57,7.19,0-.14.08-.27.12-.43,0,.19-.09.4-.13.6s-.06.57-.08.85a6,6,0,0,1-.32,1.46c-.08.69-.17,1.38-.29,2-1.93,10.43-5.28,20.28-8.74,30.27-.08.24-.22,1.17-.33,1.95.51-1,.5-1,0,.11-.14,1-.23,1.64-.1.22-.07.13-.13.27-.21.44-.34.76-.7,1.52-1.06,2.27-1.33,2.76-2.72,5.49-4.21,8.17a158.21,158.21,0,0,1-9.14,14.58c-.77,1.09-1.57,2.16-2.34,3.24-.22.31-.37.52-.48.69l-.53.63c-1.71,2.08-3.4,4.18-5.18,6.19a148.94,148.94,0,0,1-12.6,12.4q-3,2.67-6.11,5.22c-1,.85-2.07,1.68-3.11,2.51l-1.76,1.31q-6.83,5.06-14,9.59c-10.46,6.59-21.57,12.27-31.28,20a9.65,9.65,0,0,0-3.43,5.57l-.53.43c-8.46,6.81-1.36,21.5,8.75,21.13a64.72,64.72,0,0,0,21.91-4.16c7.22-2.78,14.38-5.76,21.47-8.87,12.21-5.35,24.33-10.83,36.11-17.08s23.36-12.56,34.23-20.21c5.18-3.64,10.26-7.42,15.28-11.28,2.33-1.8,4.66-3.72,7.05-5.47-4.14,3,.51-.38,1.13-.85,3.77-2.89,7.54-5.77,11.22-8.78,22-18,42.08-38.91,55.66-64.1a223.23,223.23,0,0,0,19.93-52.32c20.38-2.61,40.71-5.8,60.87-9.63,12.39-2.35,25.36-4.29,37.21-8.78,20.78-7.87,31.11-13.17,47.9-27.4a94.32,94.32,0,0,0,22.2-28c5.32-10.24,10.6-22.09,13-33.72a318.23,318.23,0,0,0,5-37.44,262.51,262.51,0,0,0,.23-41.78,407,407,0,0,0-8.79-60.65,149.5,149.5,0,0,0-5-17.52c-4.1-11.3-8.47-23.26-15-33.5-12.39-19.56-29.93-38.22-51.16-48.27-10-4.75-20.91-9.74-31.87-12.64-12-3.19-24.89-4.34-37.13-5.76-26.12-3-53.08-1.69-79.32-1.44q-87.33.84-174.47,7.74c-19.34,1.53-39.12,2.63-58,7C1875.94,774.32,1855.56,785.83,1838.62,801.48Z" transform="translate(0 0)"/><path class="cls-17" d="M626.91,1233.66a89.1,89.1,0,0,0,19-25c6.61-12.89,11.75-26.34,14.25-40.57,3-17.32,5.64-34.81,7.47-52.29a162.27,162.27,0,0,0,.42-33.27c-1.57-15.33-3.14-31.48-8.82-46-3.61-9.25-7.22-18.74-12-27.48-5-9-11.79-17.16-18.21-25.12a111.56,111.56,0,0,0-34.85-28.23c-13.67-7.09-28.42-12.9-43.64-15.62-27.4-4.89-55.58-7.42-83.36-9.14A935.86,935.86,0,0,0,330.55,932Q302.7,934.4,275,938.49c-10.49,1.55-20.8,3.43-30.72,7.3-19.29,7.52-37.85,16.93-51.52,33.1-7.62,9-11.88,15.06-15.62,22.61-2,2.73-4,5.47-6.05,8.18a86.18,86.18,0,0,0-6.31,9.74c-1.65,3-3.08,6-4.43,9.13-4,9.27-8.37,18.58-11.44,28.25-4.32,13.62-5.66,28.12-7.37,42.2a181.16,181.16,0,0,0-1.16,26.14c.22,8.78.94,17.53,1.82,26.27.46,4.53.94,9,1.49,13.57,1.22,10,1.58,20.89,4.75,30.63a205.7,205.7,0,0,0,8.43,20,28.25,28.25,0,0,0,1.45,2.65,163.92,163.92,0,0,0,13,17c.53.56,1,1.11,1.59,1.65,3.2,3.15,13,10.62,16.89,13.11.88.56,1.69,1,2.58,1.55,4.47,2.54,15.21,6.68,20,8.42a28.89,28.89,0,0,0,3.67,1.14c14.26,3.29,29.62,4.08,44.27,5.45q65.73,6.15,131.8,6.86c1,.71,2.1,1.41,3.13,2.14q3.21,2.25,6.36,4.58c.88.66,2,1.34,2.78,2.1h0c.45.4.87.77,1.12,1a201,201,0,0,1,23.16,22.32c1.62,1.83,3.18,3.7,4.72,5.59l.82,1c.29.5.57,1,.79,1.31a145.36,145.36,0,0,1,8.53,13.82q1.74,3.18,3.29,6.45c.17.37,1.76,4.58,1,2.28.19.57.37,1.07.4,1.17a139.21,139.21,0,0,1,4.33,14.57c.13.54.49,1.46.71,2.32a6.13,6.13,0,0,0,0,.73c.17,2.62.39,5.2.42,7.83,0,2,0,4,0,6,0,1.68.63,7.64-.36,8.87.15-.19,1-4.46.06-.6-.24,1-.46,1.93-.71,2.89-.62,2.39-1.37,4.75-2.14,7.1-.69,2.12-1.4,4.23-2.19,6.31-.21.55-.82,2-.86,2.11-.39.88-.78,1.75-1.21,2.61a121,121,0,0,1-6.78,11.86c-1.24,1.94-2.54,3.83-3.83,5.74-.72,1.06-1.43,2.12-2.16,3.17-.25.35-1.79,2.49-1.74,2.48-6.54,8.44-14.36,16.11-22.2,23.32q-6.4,5.88-13.15,11.37a65.47,65.47,0,0,0-6,5c-3,3.06-3.08,4.15-5.91,7.1a11.85,11.85,0,0,0-.93,15.53c3.92,4.92,9.72,5.52,15.26,3,.8-.36,1.64-.71,2.5-1.07a10.54,10.54,0,0,0,4-.65c13.18-4.78,24.8-11.8,36.44-19.54a412.1,412.1,0,0,0,34.22-25,316.5,316.5,0,0,0,55.18-58.52c15.26-21.14,27.56-45.82,32.88-71.47a201.18,201.18,0,0,0,4.22-47.49,92.46,92.46,0,0,0,16.44-4.13C601.81,1252.4,613.35,1246,626.91,1233.66Zm-109,34.49.57-.08h0l-.57.08Zm.64,1.7-.48-1.29.44,0C518.55,1269,518.56,1269.4,518.57,1269.85ZM432.64,1310a4.68,4.68,0,0,1,1.32,1.55A14.77,14.77,0,0,0,432.64,1310Z" transform="translate(0 0)"/><path class="cls-18" d="M3203.82,1943.3q9.3-4.14,18.42-8.65c22.86-11.33,44.32-25,65.05-39.86a455,455,0,0,0,61.64-52.54q12.2-12.59,23.47-26c53.88,2.49,107.83,3.57,161.72,4.23q39.51.48,79,.75c18.56.13,37.19-.37,55.64-2.58,25.07-3,50.45-5.94,74-15.53,13.93-5.67,28.56-11.12,41.1-19.7,11.94-8.19,24.83-17.43,34.42-28.67a242,242,0,0,0,19.86-26.08c6.35-9.94,10.67-21.68,15-32.38,6.95-17.39,8.89-36.59,10.62-55a254.42,254.42,0,0,0,.64-35.89c-.93-19.51-3.13-39.42-8-58.37-8.45-33.13-26.61-63.9-50.59-88.16a134.73,134.73,0,0,0-11-9.93c-9.39-7.57-18.9-15.26-29-21.84-14.14-9.18-29.67-15.34-45.21-21.77a197.94,197.94,0,0,0-30.34-9.78,360.29,360.29,0,0,0-59.11-8.66c-25.13-1.59-50.28-.59-75.41.53q-81.89,3.66-163.78,6.33c-52.74,1.69-105.56,2.71-158.25,5.57-14.84.81-29.51,2.38-44.24,4.36-14.51,1.95-29.06,3.93-43.14,8.12a241.81,241.81,0,0,0-46.82,19.55,114.64,114.64,0,0,0-12.73,8.1c-8.43,6.19-17.13,12.49-24.57,19.9a183,183,0,0,0-27.22,34.92,109.84,109.84,0,0,0-6.49,12.69c-5.95,13.58-13,27.81-12.66,43.09a111.83,111.83,0,0,0-1,15.6,147.28,147.28,0,0,0,.93,14.74c-.18,1-.35,2-.5,2.94-2.4,15-5.11,30.89-4.09,46.28,1,14.93,2.62,30.44,7.15,44.81,3.25,10.33,7.86,20.37,12.35,30.17a80,80,0,0,0,6,10.87c8.4,12.68,18,25.59,30,35.29,9.16,7.46,18.55,15.25,28.85,21.21s22.07,10.4,32.91,14.8c26.87,10.92,56.59,13.75,85.11,17.09l.64.07a.69.69,0,0,0,0,.13c-.76,2-1.68,3.91-2.41,5.9-.54,1.22-1.08,2.44-1.64,3.66-4.13,9-8.62,17.83-13.6,26.4a286,286,0,0,1-16.67,25.39c-.86,1.17-6.18,7.43-1.73,2.36-1.59,1.81-3,3.8-4.56,5.66q-5.08,6.15-10.51,12a288.27,288.27,0,0,1-20.63,20.29c-3.6,3.19-7.32,6.23-11.05,9.27l-.27.22-.15.12-2.32,1.74q-3.5,2.58-7.07,5.06a318.14,318.14,0,0,1-28.4,17.25c-5,2.76-10,5.67-14.85,8.75-2.41,1.53-5,2.86-7.45,4.23-.83.46-1.68.9-2.5,1.37a13.53,13.53,0,0,0-4.28,3c-.84,1.09-1.46,1.88-1.86,2.41-.13.16-.26.32-.38.49l0,0c-5.3,7.3-3.43,18.85,6.52,21.24a33.34,33.34,0,0,0,9.28.76,19.93,19.93,0,0,0,2,.13c3.73,0,7.87-1.25,11.54-2q10-2,19.83-4.36c12.35-3,24.65-6.29,36.79-10.07s23.94-8.35,35.64-13.27c-3.18,1.34,11-4.62,4.29-1.81,2.52-1,5-2.11,7.57-3.18C3198.08,1945.82,3201,1944.58,3203.82,1943.3Z" transform="translate(0 0)"/><path class="cls-19" d="M2083.42,1857.55c5.64-2,11.34-3.43,16.94-5.57s11.12-4.37,16.65-6.64c11.88-4.9,23.68-9.92,35.33-15.37,10.66-5,21.67-9.34,32.2-14.61s20.67-11,30.73-16.92c39.58-23.37,74.38-55.72,98.47-95,.52-.85,1-1.71,1.52-2.56,18.57.12,37.15,0,55.72-.58,28.43-.82,56.83-3,85.08-6.26,21.11-2.48,42.23-5.26,63.2-8.79q9.54-1.6,19-3.45a133.15,133.15,0,0,0,36.76-12.51c7.68-3.86,14.9-9.75,21.22-15.42,6.72-6,12.26-13.52,16.94-21.22a91,91,0,0,0,12.26-32.23,420.51,420.51,0,0,0,5.05-60.83q.28-21.35-1.23-42.67c-1.19-16.77-3.16-34.38-7.84-50.68-6.49-22.65-16.94-41.34-32.08-59.13-14.49-17-35.7-28.82-56.88-35.18-17.52-5.26-36.6-6-54.84-6.19q-22.29-.23-44.59-.27c-59.15-.09-118.3.88-177.39,3.47-32.45,1.42-65.16,3.15-97.13,9.29a147,147,0,0,0-17.9,4.53c-11.18,3.66-22.65,7.92-32.69,14a188.71,188.71,0,0,0-25.18,18.72c-7.78,6.73-14.25,15.77-20.14,23.92a99.51,99.51,0,0,0-13.4,27.35,89.34,89.34,0,0,0-3.33,14.73,76.85,76.85,0,0,0-2.17,17.12c-2.16,5.13-4,10.24-5.72,14.51a102.5,102.5,0,0,0-4.87,16.45,385.59,385.59,0,0,0-6.77,53c-1.58,24.14,3.78,51.45,17.56,71.72,12.4,18.24,19,23.71,36.27,36.6,9.26,6.92,20.66,10.8,31.21,15,15.41,6.16,32.44,7.52,48.74,9.44,8.3,1,16.68,1.34,25.06,1.65-2.09,7.39-4.65,14.6-7.4,21.78a1.67,1.67,0,0,0-.08.2l-.66,1.51c-.87,2-1.79,3.88-2.7,5.82s-1.84,4.08-2.68,6.15c-1.21,2.21-2.27,4.51-3.46,6.72A199.11,199.11,0,0,1,2155,1761c-1.23,1.71-2.55,3.4-3.63,5.21l-.21.37-1.47,1.83q-4.26,5.25-8.86,10.21a189.63,189.63,0,0,1-19,17.94l-2.19,1.77-.43.35-.48.35c-2.11,1.53-4.2,3.06-6.34,4.55-4.07,2.84-8.18,5.6-12.42,8.17-4,2.43-8,5-12.22,7.09-2.08,1.06-4.32,1.92-6.34,3.08-.47.27-3.47,2.39-4.14,3-.87.42-2.59,1.3-3,1.48-5.86,2.6-7.76,10.83-5.56,16.3C2066.9,1851,2073.59,1861.07,2083.42,1857.55Z" transform="translate(0 0)"/><path class="cls-11" d="M2956.49,592.55c-2,3.32-.62,1.67,0,0Z" transform="translate(0 0)"/><path class="cls-16" d="M2036.14,1199.36l-.1.22v.11c0-.08.07-.15.1-.22Z" transform="translate(0 0)"/><path class="cls-16" d="M2045.67,1132.45v0a2.94,2.94,0,0,0-.08,1.81A4.42,4.42,0,0,1,2045.67,1132.45Z" transform="translate(0 0)"/><path class="cls-16" d="M2045.91,1162.65c-.85,3-.67,3.21-.41,2.48.11-.79.23-1.57.4-2.31Z" transform="translate(0 0)"/><path class="cls-10" d="M2453.58,728.26c-.61,1.75-.71,2.51-.63,2.63a16.46,16.46,0,0,1,.63-2.6Z" transform="translate(0 0)"/><path class="cls-13" d="M1728.85,480c-1.18-1.3-2.18-2,1.27,1.59l-.11-.16C1729.61,481,1729.23,480.52,1728.85,480Z" transform="translate(0 0)"/><path class="cls-14" d="M821.12,860.42a22.84,22.84,0,0,0,1.25,2c-.42-.66-.83-1.32-1.21-2Z" transform="translate(0 0)"/><path class="cls-14" d="M896.82,950.73c-.13.19-.25.38-.39.57C896.65,951,896.76,950.83,896.82,950.73Z" transform="translate(0 0)"/><path class="cls-20" d="M3426.55,645c-11.36,8-22.38,16.2-31.05,27-8.17,10.21-16.47,20.34-22.13,32.19-6,12.56-11.11,24.49-13.95,37.41.07-.49.14-1,.2-1.47q-.6,3.14-1.14,6.32c-.07.43-.15.86-.22,1.3-1.33,8-2.33,16-2.86,24.06a95.94,95.94,0,0,0,1.65,26.77c-1,7.72-1.7,15.47-2.52,23.12q-1.77,16.56-2.38,33.22a443.31,443.31,0,0,0,2.1,64.67c3.17,28.88,7.33,57.76,14.35,86a226.3,226.3,0,0,0,16.6,44.94c4.69,9.6,12.06,18.17,18.8,26.23,7,8.38,17,15.43,25.63,21.3,26.68,18.11,60,21.13,91,24q8.25.76,16.49,1.39c.07,5.49-.08,11-.4,16.47-.16,2.67-.37,5.33-.61,8-.14,1.59-.33,3.18-.48,4.77l-.12,1c-.08.49-.14,1-.22,1.47a202.2,202.2,0,0,1-9.83,35.42c-.43,1.15-.87,2.3-1.32,3.44-.15.38-.48,1.13-.7,1.62-1.08,2.34-2.18,4.67-3.35,7a146.65,146.65,0,0,1-9,15.35c-1.39,2-2.81,4.07-4.27,6.06-.12.16-1.35,1.79-1.69,2.26-.7.89-1.4,1.77-2.12,2.65q-5.17,6.35-10.86,12.24c-3.78,3.92-7.72,7.7-11.81,11.3-2.24,2-4.54,3.84-6.84,5.72l-.77.65-.81.6-1.87,1.37c-9.36,5.44-19,10.43-28.73,15.09-11,5.28-20.1,9.18-30.78,13.44-5.8,2.31-11.66,4.47-17.49,6.71-5.64,2.17-10.19,4.93-12,11-1.38,4.57-1.32,10.32,2.65,13.72,2.92,2.5,6,4.53,9.83,5.06a9.65,9.65,0,0,0,8.46.94c7.73-2.62,15.78-3.94,23.42-6.71s15.27-5.8,22.84-8.82c15.92-6.34,30.62-12.43,46.34-19.25,28.81-12.5,57.47-26.89,83.31-44.83,24.91-17.31,47.33-36.84,65.91-60.89,14.93-19.32,27.67-40.75,36.09-63.78,19.86-1.91,39.64-4.48,59.42-7.26,21.12-3,43.28-5.62,63.39-13.07,14.12-5.23,28.77-10.82,41.08-19.76,10.91-7.92,22.5-16.24,31.23-26.77s17.88-21.73,24.24-34a259.58,259.58,0,0,0,16.17-38.75c7-21.37,9.63-44.49,11.61-66.71,1.48-16.64,1.41-33.31.85-50-.77-22.71-3-45.35-5.49-67.93-2.73-24.44-5.08-49.37-11.57-73.17-3.87-14.23-9.81-28-16-41.29-6-12.86-15.09-24.11-24.07-35a79.13,79.13,0,0,0-8.21-8.57,203,203,0,0,0-24.36-18.76c-11.94-7.78-25.77-13.35-39.12-17.92-13.93-4.77-28.87-6.27-43.37-8a210.39,210.39,0,0,0-26.08-1.5c-19.18.07-38.3,2.18-57.38,3.94-44.16,4.06-88.5,7.43-132.54,12.72-24.49,2.95-49.87,5.62-73,14.82C3452.91,631,3438.72,636.43,3426.55,645Z" transform="translate(0 0)"/></g><g id="line_art" data-name="line art"><path class="cls-21" d="M1443.9,2648.92c-6.68,0-8.24-1.73-9.7-3.33a17.19,17.19,0,0,1-2.08-3c-40.15-1.74-132.76-9.23-351.16-32.2-172-18.1-344.1-37.66-363.36-39.85a7.81,7.81,0,0,1-1.08.05,6.73,6.73,0,0,1-4.79-2.27l-.11-.13a5.71,5.71,0,0,1-.39-.47,6.71,6.71,0,0,1-1.34-4.65c-1.6-6.61-4.94-22.46-13.35-62.36-8.15-38.68-19-90.24-29.85-141.78-19.9-94.55-39.77-189.08-42.93-204.11l-18.35-17.24c10.24,45.24,22.48,99.46,34.61,153.41,17.32,77,31,138.46,40.71,182.56,5.76,26.19,10.16,46.48,13.07,60.31,1.54,7.34,2.72,13.12,3.48,17.07,1.28,6.69,2.28,12-3.73,13.78a6.76,6.76,0,0,1-1.94.29H155.47a6.72,6.72,0,1,1,0-13.44H683.73c-8.55-43.57-60.36-273.78-95.73-430.06-7.74-6.78-15.59-13.08-23.25-19.22-30.65-24.59-59.6-47.81-70.11-92.42C484,1964.54,491.49,1928,517,1901.35c55.41-57.88,181.79-52.12,247.73-39.59,62.74,11.92,131.74,26.63,199.28,53.11.44-6.32,1-12.8,1.62-19.38-.06-.3-.11-.59-.17-.88-9.51-48.7-14-93.69-18.35-137.2-.52-5.22-1.49-11.39-2.51-17.92-.91-5.78-1.87-11.91-2.66-18.2-9.88.27-18.59-1.46-24.36-7.27-15.75-15.85-1.81-71.06,6.48-82.69,10.75-15.07,30.5-22.6,48.86-25.89-6.42-105.83-12.71-215.2,29-322.31,13.46-40.48,30.87-81.19,45.72-115.93a387.62,387.62,0,0,0,23.23-74.22c-1.94-5-4-10-6-15-11.36-28.27-23.11-57.5-20.41-84,5.26-51.61,22.2-101.08,38.58-148.93,3.69-10.79,7.39-21.58,11-32.41l.64-1.94c17.13-51.93,34.83-105.62,76.8-145.4,82.56-78.25,183.38-87.89,291.57-27.86q5.84,3.24,11.54,6.37c49.11,27.08,91.53,50.46,127.39,99.67,31.3,42.94,56.36,112.12,59.6,164.49,1.32,21.39.13,42.61-1,63.13-2.16,38.24-4.19,74.36,8.85,111.18,18,50.73,53.13,80.36,93.85,114.66l1.92,1.62c2.85.31,5.8.6,8.8.89,19.6,1.91,41.81,4.07,56.18,13.31,45.92,29.51,55.79,113.42,57.9,148.13,2.48,40.85-3.39,79-9.06,116-3.56,23.13-7.23,47-8.94,71.8-.95,13.73.52,36.11,2.22,62,5.05,76.74,12,181.85-33.3,210.09-19.65,12.25-46.7,8.68-80.39-10.64-38.14-21.87-64-56.82-79.26-97.93-5.89,22-10.55,43.46-10.52,66,0,13.87,3.6,26.93,7.47,39.57,44.59-13.7,107.12,11,136.74,29.53,22.2,13.93,51.92,35.26,53.63,59.67,1.42,20.24-6.87,36-22.18,42a51.36,51.36,0,0,1-11.25,3.29,183.39,183.39,0,0,1-7.66,24c14.47-6.53,28.79-10.6,44.5-15.08l5.92-1.68c56.62-16.22,108.2-27.53,166.27-1.46,41,18.41,66.73,49,74.38,88.43,13,67-27,144.8-72.47,192.14-54.84,57.09-130.32,106.19-211.29,139.26,5.87,9.82,10,19.71,11.79,27.77,5.52,24.48,8.73,50,.67,75.52,12.74,12.19,20.72,23.2,20.49,33.73a18.65,18.65,0,0,1-.56,4.21H3844.52a6.72,6.72,0,0,1,0,13.44H1852.63a6.72,6.72,0,0,1-4-12.14c3.29-2.41,3.75-4.37,3.78-5.8.11-5.1-4.86-12-12.48-19.83a117.08,117.08,0,0,1-19.21,27.86,6.72,6.72,0,0,1-8.12,1.4c-47.5-25.29-70.5-33.9-124.11-23.86-6.51,1.22-12.84,2.63-19,4-18.75,4.18-36.45,8.12-58.17,6.78-.64,0-64.65-4.12-79.94-19.66-12.9-13.11-6.74-34.31,2.09-56.2-2.55.14-5.11.26-7.69.39q-5.17.24-10.06.7c-17.71,34.88-32.45,58.06-46.07,61.21a13.44,13.44,0,0,1-11-2.28c-2.81-2-5.36-5.23-7.68-9.56,2.21,15.62,4.29,30.49,6.23,44.4a53.66,53.66,0,0,0,25.66,1,6.93,6.93,0,0,1,2.18-.19l252.54,19.89a6.72,6.72,0,0,1,1.6,13.07c-.71.24-72.56,24.32-144.87,46.54C1493.22,2641.55,1457.68,2648.92,1443.9,2648.92Zm15.41-104.46c6,43.11,10.21,74.87,11.46,86.83,46.49-10.61,140.76-39.35,232.78-69.68l-218.4-17.2A63.9,63.9,0,0,1,1459.31,2544.46Zm-18.24,85.26c7.76.23,13.22.17,16.06-.23-1.52-13.34-5.91-45.87-12-89.76a54.91,54.91,0,0,1-13.48-9.2C1431.88,2560,1435.37,2610.48,1441.07,2629.72Zm-718.79-72.13c245.84,28,597.84,65.79,705,71.52-8.51-34-9.11-102.33-9.1-103.17q0-6.74.52-13.05c-9-18.4-8.58-39.82,1.34-62.1a124,124,0,0,1,10-18c-15-105.08-33.11-230.67-46.79-324.9a268.83,268.83,0,0,1-52.15-29.38c-15.89-11.63-29.43-25.72-42.52-39.34-1.17-1.23-2.35-2.45-3.52-3.67L581.93,2034c3.06,13.48,9.66,42.56,18.22,80.38,1.8,1.62,3.6,3.27,5.38,4.95l29,27.23a6.67,6.67,0,0,1,2,3.51C637.28,2153.86,712.55,2511.83,722.28,2557.59Zm710.15-47.49a44.56,44.56,0,0,0,10.24,12.25c-1.6-11.43-3.3-23.49-5.07-36A103.89,103.89,0,0,0,1432.43,2510.1Zm294.48-27.33c31,0,53.86,9.44,87.33,27.06a98.42,98.42,0,0,0,15.42-24.64c-8.67-7.7-18.77-15.79-28.36-23.47-22.25-17.81-45-36-58.87-54.2q-14.37,3.49-28.73,6.24a1281.3,1281.3,0,0,1-165.28,20.63c-8,19.18-15.5,39.37-7.4,47.61,7.74,7.86,46.32,14.16,71.19,15.68,19.81,1.2,36.63-2.52,54.43-6.49,6.23-1.38,12.67-2.82,19.41-4.08C1701.62,2484.19,1714.88,2482.77,1726.91,2482.77Zm-271.32-24.16c6.1,24,11,25.77,11.25,25.84,7.58-1.78,20.44-22.87,32.56-45.82C1480.85,2442.22,1466.34,2448.79,1455.59,2458.61Zm-22.49-4.08c-.27.57-.54,1.15-.79,1.73a74,74,0,0,0-6.44,23.29,84.33,84.33,0,0,1,8.45-16.44C1433.91,2460.27,1433.51,2457.41,1433.1,2454.53Zm323.6-50.68c13.33,15.62,33.93,32.12,53,47.38,8.83,7.08,17.15,13.73,24.54,20.06,4.62-19.44,2.47-39.91-2.64-62.54-1.67-7.38-5.71-16.65-11.39-25.69A645.56,645.56,0,0,1,1756.7,2403.85Zm-307.09,25.09c.85,5.17,1.76,10.25,2.72,15.12q20.87-15.7,54.68-20.24c5.74-11.43,11-22.39,14.94-30.73,2.24-4.67,4.35-9.1,6.33-13.21-3.39.53-7.33,1.32-11.92,2.45C1496,2387.37,1468.91,2405.54,1449.61,2428.94Zm93.85-49.54c-2.86,5.82-6,12.45-9.37,19.48-3.91,8.18-7.68,16-11.32,23.44l2.44-.13q7.11-.33,14.07-.73c6.6-15.62,14.14-34.15,9.42-39.67C1548.06,2381,1546.62,2380,1543.46,2379.4Zm6.26-12.24a19.61,19.61,0,0,1,9.2,5.9c9.09,10.64,3.53,27.6-4.68,47.49a1262.45,1262.45,0,0,0,157-20q11.71-2.22,23.47-5c-3.67-6.95-5.76-13.9-5.74-20.81,0-11.08,5.45-21,16.1-29.38,13.36-10.56,28.46-13.3,43.7-7.91,14.2,5,26.81,16.34,36.54,29.19,80.2-32.34,155.07-80.78,209.26-137.21,43.05-44.82,81.07-118,69-180.26-6.89-35.46-29.33-61.95-66.69-78.73-53.93-24.21-103-13.37-157.07,2.12l-5.94,1.69c-21.12,6-38.32,10.9-56.72,21.65-19.83,41.13-51.5,84.84-78.71,120.08-18.64,24.14-41.69,44.06-64,63.32-17.45,15.08-35.49,30.67-51.38,48.23-18.22,20.13-28.66,45.52-39.72,72.41-8.45,20.55-17.18,41.8-29.78,60.78C1552.4,2362.37,1551.14,2364.54,1549.72,2367.16Zm64.84-288.44c-5.3,10.39-11.2,20.69-17.74,31.07-27.52,43.71-58.72,93.25-103.66,133-6.75,6-13.06,11.29-18.63,16-34.22,28.82-45.75,38.53-35.76,89.66,1,5.36,2.2,15.07,3.67,27.36,1.25,10.5,2.74,23,4.54,35.8,20.51-21.59,46.21-37.38,66.15-42.32a116.93,116.93,0,0,1,22.18-3.62,136.73,136.73,0,0,1,7-12.37c11.87-17.88,20.35-38.51,28.56-58.47,11-26.76,22.38-54.44,42.17-76.31,16.45-18.17,34.81-34,52.56-49.38,22.8-19.69,44.33-38.3,62.14-61.36,13.21-17.1,39.65-51.34,61.33-88.13l-2.43,2.65c-13,14.15-26.42,28.78-43.73,31.76a6.71,6.71,0,0,1-7.85-6.25c-1.7-31,13.45-62.44,26.82-90.15,3-6.23,5.85-12.12,8.36-17.73,3.82-8.54,7.41-15.73,10.76-21.78-31.08-14.25-73.75-24.69-100.44-13.35-2.91,7-7.07,12.83-13,15.57a17.21,17.21,0,0,1-6.65,1.62,81.79,81.79,0,0,0-8.38,19.58,440.18,440.18,0,0,1-10,61.56c-2.59,19.94-6.06,39.58-14.2,54.91A128.8,128.8,0,0,1,1614.56,2078.72Zm158.93,269.46c-7,0-13.6,2.56-20.13,7.73-7.38,5.84-11,12-11,18.88,0,5.48,2.11,11.34,5.78,17.43a629.09,629.09,0,0,0,64-20.44c-8-9.75-17.63-18-27.89-21.65A32,32,0,0,0,1773.49,2348.18Zm-375.85-234.53c7.35,50.63,17,117.1,26.84,185.57,5.53-20.51,20.23-32.88,41.39-50.71,5.51-4.64,11.76-9.9,18.38-15.76,41.51-36.74,71.32-82.74,97.46-124.19-23.32,15.7-50.83,25.14-77.3,25.14h-.47C1468.77,2133.55,1431.64,2126.33,1397.64,2113.65Zm-2.21-15.23c34.32,13.77,72.51,21.69,108.56,21.84h.43c36.18,0,74.54-19.56,98.71-48.74a326.5,326.5,0,0,0,26.19-71.09c.5-3.9,1-7.82,1.44-11.72,2-17,4.11-34.27,8.55-49.73q1-10.59,1.65-21.78c.09-1.56.18-3.11.28-4.68-21.27-21.07-9-59,4.17-74.62.76-.9,1.53-1.77,2.33-2.62,4.46-49.18,8.35-99.44,4.1-146-4.14-45.36-13.67-92.31-22.88-137.73-15.36-75.72-31.25-154-23.76-230.27.57-5.8,1-12.84,1.42-20.29,1.2-20.32,2.68-45.38,8.4-67.61q-18.3,3.5-34,.19c0,23.5-3,48.45-9.65,75.48-9.81,40.2-37.5,77-64.28,112.66-30.68,40.83-62.41,83-65.46,128.86a6.72,6.72,0,0,1-13.11,1.57c-6.26-19.87-27.89-47.1-45.27-69l-3.79-4.78c-28.94-36.54-53.84-76.5-66.63-106.91-17-40.49-10.58-69.66-3.74-100.54,4-17.84,8-36.2,8.17-58.43-69,48.48-117.87,101.54-146,158.55,12.13,39,9.26,86-2.32,125.31-4.84,16.48-13.44,31.49-22.07,46,10.33,59.71,37.59,113.15,64.2,165.32,15.12,29.65,29.41,57.66,40.51,86.44,18.13,47-9,128.29-34.45,178.23,31,8.29,53,28.62,73.61,49.77l87.81.19a6.72,6.72,0,0,1,6.64,5.74C1386.73,2038.67,1390.42,2063.94,1395.43,2098.42ZM673.68,1866.81c-55.42,0-114.77,10.22-146.95,43.83-22.18,23.18-28.58,55.54-19,96.18,9.44,40.11,35.39,60.92,65.44,85,3.28,2.63,6.6,5.29,9.93,8-6.14-27.11-11.64-51.35-16.14-71.14a6.73,6.73,0,0,1,6.56-8.21h0l416.53.91c-23.71-5.89-29.12-43.26-26.86-92.4-67.85-27.12-137.61-42-201-54A491.15,491.15,0,0,0,673.68,1866.81Zm630,168.71c11,11.38,22.48,22.75,35.29,32.12a248.81,248.81,0,0,0,41.93,24.51c-3-20.87-5.81-39.89-8.22-56.48ZM1793,1924.16c-3.21,5.77-6.72,12.78-10.52,21.26-2.59,5.78-5.47,11.76-8.52,18.09-11.3,23.43-24,49.64-25.46,74.63,9.83-4.9,19.15-15.05,28.22-24.93,8.06-8.78,16.4-17.87,25.58-23.93,1.48-1,3-1.91,4.4-2.81,6-12.75,10.7-25.29,13.51-37a28.14,28.14,0,0,1-6.08-7.6c-2-3.37-4.08-6.85-8.5-9.94A135.17,135.17,0,0,0,1793,1924.16Zm-797.91,97.26,276.64.6c-17.67-17.2-36.32-31.74-61.19-37.53-8.26,13.43-31.37,36.19-50.92,36.57-9.06.09-16.68-4.18-21.82-12.63-6.58-10.83-4.35-18.64-1.31-23.29,12-18.4,58.31-16.76,66.33-15.7l.59.09c24-45.94,52.45-127,35.63-170.63-10.86-28.13-25-55.84-40-85.17-22.61-44.32-45.67-89.53-58.87-138.93-2.38,27-5.59,54.92-9.79,85.4,10.08,32.11,17.84,59.63,3.57,75.13-4,4.34-9.29,7.27-16.1,8.83-5.05,33.55-9.92,68-13.43,103.11l-.46,4.61c-3.35,33.14-11.84,117.09,9.19,148.87a84.45,84.45,0,0,1,6.57,7.58,6.72,6.72,0,0,1-9.78,9.12,44.1,44.1,0,0,1-7.1-8c-9.8-9.85-23-18.3-35.88-26.53-2.07-1.32-4.12-2.63-6.13-3.93a541.76,541.76,0,0,0-66.29-36.43c8.16,24.81,14.33,51.33,4.36,75.18A6.73,6.73,0,0,1,995.09,2021.42Zm195.52-39.21c-15.53,0-38,2.8-42.87,10.28-.5.76-2,3.09,1.54,9,2.66,4.36,5.85,6.33,10.08,6.18,11.43-.23,27.75-14.35,36.32-25.31C1194.11,1982.25,1192.41,1982.21,1190.61,1982.21Zm-214.17-47.75c-1.17,32.21,1,62.65,12.31,71.62,5.81-21.68-2.38-46.63-10.92-71Zm12.13-9.4a561.83,561.83,0,0,1,79.61,42.62l6.07,3.89c5.67,3.62,11.61,7.43,17.42,11.48-10.34-40.53-4.36-99.62-1-132.53l.46-4.58c3.42-34.29,8.12-67.79,13-100.46-8.23-.08-17.91-1.39-29.18-3.93-12.55-2.83-25-8.36-37-13.71-14.4-6.41-28-12.47-41.68-14.24a25.16,25.16,0,0,0-5.11.05A1102.31,1102.31,0,0,1,986,1836.48c-.42,4.28-1.19,10.28-2.16,17.87-1.22,9.48-3.08,23.94-4.67,40.29C981.3,1904.12,984.8,1914.32,988.57,1925.06ZM1813,1886.3c.62,0,1.15,0,1.6.06,13,.92,17.81,17.55,19.39,23,2.5,8.71,3,18.35,1.8,28.66,1.08-.39,2.31-.87,3.72-1.43,14.22-5.64,14.11-23.32,13.74-28.6-1-13.54-16.88-30.11-47.36-49.23-29.25-18.34-87.17-39.35-125.58-27.83,3.18,10.67,6,21.7,6.45,33.34a120.16,120.16,0,0,1-1.83,24.8c31.71-8.1,73.48,3.88,103,17.59C1800.33,1888.13,1808.73,1886.3,1813,1886.3ZM1800,1912.75a141.52,141.52,0,0,1,13.36,8.16,37.7,37.7,0,0,1,9.64,9.78,55.54,55.54,0,0,0-1.87-17.59c-3-10.34-6.15-13.24-7.41-13.33C1811.49,1899.65,1806.84,1902.74,1800,1912.75Zm-144.88-6.17.32.2c.26-.31.53-.62.81-.92a52.25,52.25,0,0,1,13.62-10.86,94.48,94.48,0,0,0,3.52-30.13c-.42-9.71-2.66-19-5.45-28.58a47,47,0,0,0-7.25,5.2l-.81,8.76C1658.07,1869.72,1656.36,1888.3,1655.1,1906.58ZM1644.39,1872a52.08,52.08,0,0,0-1,11.93Q1643.87,1878,1644.39,1872ZM955.34,1720c.75,5.91,1.67,11.78,2.55,17.4,1.06,6.72,2.06,13.07,2.62,18.66,3.09,31,6.06,60.72,10.64,91.85.68-5.28,1.21-9.57,1.52-12.75a1089.48,1089.48,0,0,0,5.09-119.36l-4.86,1C967.15,1717.94,961.19,1719.14,955.34,1720Zm707.32,99.1c-.14,1.59-.27,3.19-.41,4.78l1.6-.88C1663.45,1821.72,1663.05,1820.41,1662.66,1819.11Zm23.13-129.91c12.28,44.73,36.88,84.87,79.54,109.33,29.05,16.67,51.46,20.33,66.59,10.89,38.43-24,31.55-128.58,27-197.8-1.73-26.39-3.23-49.18-2.22-63.82,1.75-25.31,5.47-49.51,9.06-72.91,5.83-37.91,11.33-73.72,8.94-113.13-1.55-25.49-9.87-110.73-51.75-137.64-11.65-7.48-32.14-9.48-50.22-11.25l-3.76-.36a6.71,6.71,0,0,1-7,.66c-1.34-.65-2.66-1.27-4-1.86-3.84-.48-7.5-1-10.92-1.72-7.31-1.46-15.91-4.11-25-7-22.74-.63-43.52,7.76-67.6,17.5-5.14,2.07-10.41,4.21-15.85,6.31-2.86,1.11-5.67,2.11-8.45,3-7.15,22.38-8.8,50.37-10.09,72.3-.45,7.59-.87,14.76-1.47,20.81-7.29,74.24,8.39,151.54,23.56,226.29,9.28,45.77,18.88,93.09,23.09,139.18q.91,10,1.36,20.11c1.62-6,3.31-12,5-18l.39-1.35c-15.82-59.58-12.2-128.45,6.12-188.43a116.21,116.21,0,0,1,5-12.28c-.87-3.35-1.77-6.69-2.66-10-5.32-19.69-10.81-40.06-9.86-59.56.69-14,15-64.27,37.21-79,6.92-4.56,14.33-5.58,21.44-2.95a20.14,20.14,0,0,1,11.77,11.66c9.81,24.08-13.64,77.44-38.49,130-1.85,3.93-3.62,7.67-5.2,11.07,1.51,6.06,2.9,12.15,4,18.18,9,51.49,4.07,111.69-14.72,178.92Zm-691.46,10.86a28.45,28.45,0,0,1,3.68.22c15.63,2,30.78,8.76,45.43,15.29,11.92,5.31,23.19,10.33,34.44,12.86s20.72,3.71,28.27,3.55q1.21-8.06,2.44-16,2.17-14.16,4.3-28.31c.21-1.39.42-2.78.62-4.16-17.22-1.59-36.26-8.18-56.24-15.08-23.84-8.24-48.33-16.73-68.12-15.41q.17,3.19.32,6.38c.69,14.06,1.18,27.63,1.48,40.82C992.12,1700.11,993.25,1700.06,994.33,1700.06Zm131.38-7.24q-1.9,12.59-3.83,25.16-.86,5.57-1.7,11.17a13.64,13.64,0,0,0,3.93-2.91C1129.81,1720,1129.06,1707.62,1125.71,1692.82Zm-152-73.8c-15.41,3-31,9.22-38.74,20.11-8,11.21-16.2,57-7.88,65.42,2.56,2.58,7.46,3.4,13.49,3.35-1.79-26.79,2.38-53.53,29.67-64.42a50.31,50.31,0,0,1,4.8-1.65C974.67,1634.2,974.22,1626.57,973.76,1619Zm2.08,36.72-.56.22c-19.43,7.75-22.71,28.39-21.27,50.65,5.54-.85,11.19-2,16.24-3,2.51-.51,5-1,7.29-1.45-.28-13.6-.78-27.6-1.49-42.14Zm17.47-16.32c21.25,0,45.09,8.24,68.35,16.28,19.48,6.73,38,13.14,53.8,14.47.37-2.61.74-5.22,1.1-7.79a26.27,26.27,0,0,0-4.86-10.79c-18.1-24.49-77.9-33.39-110.37-34.79a111,111,0,0,0-14.21.36c.44,7.41.89,14.91,1.31,22.41C990,1639.47,991.67,1639.42,993.31,1639.42Zm695.2-126.8c-11.43,41.66-17.07,95.88-9,147.33C1692.55,1605.07,1695.57,1555.62,1688.51,1512.62Zm-691.37,90.65c1.67,0,3.27,0,4.77.1,13.27.58,72.3,4.33,105.53,26.39-6.67-32.48,6.79-58.73,21.57-83.77.56-8.1,1-16.16,1.47-24.23a296.66,296.66,0,0,1-1.12-41.4c-1.17-11.47-2.89-22.82-4.66-34.48l-1.21-8.06c-1.27-8.56-3.73-18.06-6.34-28.12-5-19.13-10.08-38.9-8.15-56.36,1.43-12.95,5-27.45,20.56-36.83a6.72,6.72,0,0,1,7.83.65,106.66,106.66,0,0,1,27.43,37c31.33-57.69,83.17-111.17,155.11-159.84a6.72,6.72,0,0,1,10.48,5.18c1.68,29.76-3.55,53.42-8.17,74.3-6.63,30-12.36,55.88,3,92.42,12.34,29.35,36.55,68.14,64.77,103.78l3.78,4.76c12.78,16.09,27.77,35,37.93,52.5,9.86-40.76,37.65-77.73,64.65-113.66,26-34.54,52.81-70.26,62-107.78,6.75-27.67,9.7-52.89,9.39-76.55-.86-.37-1.71-.77-2.56-1.18-25.31-12.38-43.67-40-57.76-86.87-3.47-11.53-6.66-23-9.67-34.36-11.46,16.94-25.17,32.79-38.36,47.14-30.35,33-56.69,48.85-82.88,49.74-21.49.69-43-9-63.89-28.84-6.59-6.26-13.36-12.6-20.21-19-16.84-15.76-34-31.78-50.17-48.32,11.17,40.32,15.49,80-.71,112.59-13.66,27.45-39.8,46.61-79.92,58.55-15.75,4.69-32.86,7.06-49.41,9.35-41.65,5.76-81,11.21-102.59,50.71a6.7,6.7,0,0,1-6.44,3.47c-1-.08-3.7-.13-5.74-.12-21.4,86.94-16.36,175.46-11.13,261.6C990.16,1603.41,993.81,1603.27,997.14,1603.27Zm129.08-22.87c-6.24,15.07-9.26,30.74-5.24,48.36C1123,1612.07,1124.77,1596.05,1126.22,1580.4ZM1142.84,1480a263.9,263.9,0,0,1,1.2,39.88c0,.14,0,.29,0,.44a144.5,144.5,0,0,0,12-27.76c9.09-30.87,12.49-68.26,6.18-101.36a268.6,268.6,0,0,0-18.39,74.88Q1143.16,1473.07,1142.84,1480Zm578.61-131.33a11.31,11.31,0,0,0-6.25,2.16c-16.83,11.11-30.6,56.45-31.19,68.39-.77,15.77,3.26,32.44,8,50,15.62-33.1,44.7-95.91,36.59-115.83a6.69,6.69,0,0,0-4-4.13A8.91,8.91,0,0,0,1721.45,1348.64Zm-588.94-17.76c-5.9,5.07-8.86,12.23-10.15,23.94-1.67,15,3.14,33.56,7.8,51.51,2.19,8.46,4.28,16.54,5.73,24.24a289.4,289.4,0,0,1,20.78-60.32C1151.36,1355.07,1143.47,1341.51,1132.51,1330.88Zm-117.9-43.19c-3.82,11.51-7.31,23-10.32,34.27,25.64-36.08,66.48-41.73,106.07-47.21,16.79-2.32,32.64-4.52,47.42-8.92,36.34-10.82,59.81-27.72,71.72-51.66,17.6-35.36,7.37-82.52-8.25-129-9.17-10.34-17.81-20.9-25.66-31.77-39-54-52.74-119.43-37.73-179.46,11.46-45.83,38.82-84.88,78.34-112.66-77.89,25.39-122.62,137.29-134.48,215.62-2.37,15.63-4.28,30.49-6.13,44.85-3.14,24.38-6.08,47.2-10.7,70.15,10.63,28,18.61,56.24,10.76,82.21-7.55,25-24.76,42.64-41.4,59.72-15.25,15.64-31,31.81-39.61,53.84Zm64.6-171.16a394.09,394.09,0,0,1-19.17,56c-8.37,19.59-17.56,41.1-26.38,63.35,3.62-3.89,7.31-7.67,11-11.42,16.23-16.66,31.56-32.39,38.16-54.23C1087.72,1153.85,1085,1135.48,1079.21,1116.53Zm501.5,103.12c11.46,3.16,24.36,2.79,39-1.12,7.62-19.86,20.07-35.46,40.92-40,17.46-3.77,41.87,3.86,63.43,10.61a98.28,98.28,0,0,1,10.61,1.07c-32.7-28.43-61.89-58.31-77.87-103.44-13.94-39.36-11.73-78.53-9.6-116.42,1.14-20.13,2.31-40.94,1-61.53-3.1-50.11-27.09-116.31-57-157.41-34.1-46.8-75.31-69.52-123-95.82l-11.57-6.39c-104-57.71-196.81-49-275.8,25.87-39.51,37.45-56.68,89.5-73.28,139.85l-.64,1.94c-3.59,10.88-7.31,21.72-11,32.56-16.13,47.12-32.82,95.86-37.92,145.93-2.23,21.83,7.09,46.58,17.58,72.79,2.56-15.68,4.61-31.56,6.75-48.19,1.86-14.43,3.78-29.36,6.17-45.14,12.18-80.4,65.68-232.31,180.93-232.31h.36a6.71,6.71,0,0,1,5.82,3.39c12,20.39,33.65,31,58.69,43.2,27,13.23,57.71,28.22,80.19,59.3,49.75,68.79,67.06,138.35,85.38,212q1.34,5.34,2.68,10.75a118.75,118.75,0,0,0,5.69-15.8,6.72,6.72,0,0,1,12.17-1.77C1554.09,1107.34,1577.61,1158.83,1580.71,1219.65Zm-73.19-128.57c3.92,15.26,8.1,30.73,12.77,46.27,12.13,40.36,27.07,64.85,46.78,76.5-3.76-50.56-22.64-94.47-50.7-141.06A162.51,162.51,0,0,1,1507.52,1091.08ZM1671,1191a36.39,36.39,0,0,0-7.55.72c-11.63,2.52-20,10.19-26.08,20.78,4.09-1.61,8.09-3.23,12-4.81,13.71-5.55,26.76-10.83,39.95-14.33A88.25,88.25,0,0,0,1671,1191Zm-437.9-112.75c21.08,23.5,45.05,45.93,68.48,67.84,6.88,6.44,13.68,12.8,20.29,19.09,18.45,17.53,36.15,25.73,54.17,25.15,22.36-.76,45.69-15.18,73.44-45.4,15.48-16.84,31.68-35.76,43.65-55.8q-3.27-12.84-6.38-25.45c-18-72.34-35-140.67-83.23-207.35-20.51-28.37-48.31-42-75.2-55.1-23-11.23-44.81-21.9-59.27-40.87-14,16.43-49.32,57.62-57.51,66.89-42,47.55-18.58,135.91-10.41,161.87,4.73,15,10.7,31,17,47.87C1223.18,1050.42,1228.36,1064.26,1233.11,1078.23Zm3.33-300.46c-32.84,25.48-55.62,59.72-65.54,99.39-14.05,56.18-1.08,117.53,35.59,168.33.34.48.69,1,1,1.42-.65-1.75-1.31-3.5-2-5.24-6.37-17.06-12.4-33.18-17.23-48.54-11.16-35.44-32.22-123.41,13.15-174.79C1206.46,812.69,1222,794.6,1236.44,777.77Z" transform="translate(0 0)"/></g></svg>